<svg width="64" height="64" viewBox="0 0 64 64" fill="none" xmlns="http://www.w3.org/2000/svg">
<rect x="64" width="64" height="64" rx="32" transform="rotate(90 64 0)" fill="white" fill-opacity="0.2"/>
<path d="M33 24.5C33 23.9477 32.5523 23.5 32 23.5C31.4477 23.5 31 23.9477 31 24.5H33ZM31.2929 40.2071C31.6834 40.5976 32.3166 40.5976 32.7071 40.2071L39.0711 33.8431C39.4616 33.4526 39.4616 32.8195 39.0711 32.4289C38.6805 32.0384 38.0474 32.0384 37.6569 32.4289L32 38.0858L26.3431 32.4289C25.9526 32.0384 25.3195 32.0384 24.9289 32.4289C24.5384 32.8195 24.5384 33.4526 24.9289 33.8431L31.2929 40.2071ZM31 24.5V39.5H33V24.5H31Z" fill="white"/>
</svg>
