<svg xmlns="http://www.w3.org/2000/svg" width="195" height="219" fill="none" viewBox="0 0 195 219"><mask id="a" width="294" height="261" x="0" y="2" maskUnits="userSpaceOnUse" style="mask-type:alpha"><path fill="#4C51BE" d="m71.772 175.928-.837-.347-11.088 13.324 1.178.014c.134.001 6.194-7.215 9.208-10.823l1.513.017.026-2.185Z"/><path stroke="#000" stroke-width="1.727" d="m132.018 57.252 9.035.106-.035 2.982-9.035-.106zM132.256 94.592l9.035.106-.046 3.99-9.036-.105z"/><path stroke="#000" stroke-width="1.727" d="m131.553 93.905 10.38.122-.066 5.671-10.38-.121z"/><path stroke="#000" stroke-width=".863" d="m132.501 95.175 8.553.1-.037 3.173-8.553-.1z"/><path fill="#4C51BE" d="m124.861 178.233-.302-174.904 1.499 1.195 3.324 3.402 2.485 3.225 1.648 2.878.965 3.711.121 4.038.105 5.383 4.544-.283.54-3.021.067-5.717.532-2.348 1.052-3.688 1.888-3.173 5.287-6.329.464 175.41-8.077.41-.462-32.295-1.517.319-1.009-.012-1.013.325-.666-.513-1.015.493-.833-.683-.211 32.287-9.416-.11Z"/><path fill="#3D4198" d="m130.483 55.699 12.107.142-.07 6.054-12.108-.142z"/><path fill="#9297F9" d="m131.818 57.066 9.416.11-.04 3.363-9.415-.11zM132.114 93.727l9.416.11-.043 3.7-9.416-.11z"/><path fill="#9297F9" d="m132.114 93.727 9.416.11-.043 3.7-9.416-.11z"/><path fill="#C8CAFD" d="m130.473 57.047 12.107.142.016-1.345-12.107-.142zM130.7 93.71l12.107.143.016-1.345-12.107-.142z"/><path fill="#C8CAFD" d="m130.7 93.71 12.107.143.016-1.345-12.107-.142z"/><path fill="#171838" d="m130.453 60.406 12.107.142-.016 1.345-12.107-.142z"/><path fill="#262863" d="m128.406 55.335.739.327-.067 5.735-.319-.004-.205-.64-.214.157-.214.157-.317-.163-.317-.163-.113-.726.128-.548.222-.794.537-.472-.421-.323-.423-.165-.307-1.03.113-.565.432-.632.746-.151ZM143.822 55.518l-1.243.34-.075 6.372.531.006.362-.704.352.181.352.182.533-.171.533-.17.213-.804-.196-.613-.344-.89-.879-.54.713-.346.71-.169.544-1.135-.17-.63-.699-.717-1.237-.192Z"/><path fill="#C8CAFD" d="m143.486 55.51-1.243.34-.074 6.372.531.006.362-.703.352.18.352.182.533-.171.533-.17.183-.53-.167-.887-.343-.889-.879-.541.712-.346.71-.169.542-.878-.167-.887-.7-.717-1.237-.191Z"/><path fill="#787DE7" d="m144.546 59.604-1.179-.747-.401-.044.172-.213c.126.014.243.027.346.04l1.349 1.046.083.938-.621.548-.69-.34-.249-.72.363-.408.539.015.304.452-.173.487-.453-.062-.133-.348.122-.095.067.174.269.106-.072-.494-.477.035-.039.442.201.326.496.137.369-.482-.193-.793ZM144.562 55.952l-1.38.108-.358.237.031-.323.309-.204 1.682.06.566.84-.227.957-.757.157-.589-.516.086-.644.458-.361.493.22.114.586-.411.257-.296-.24.052-.176.148.12.281-.087-.322-.422-.38.367.203.45.34.17.486-.214.053-.718-.582-.624Z"/><path fill="#C8CAFD" d="m129.254 55.009 1.235.368-.075 6.372-.531-.006-.346-.712-.356.173-.356.173-.529-.184-.529-.183-.171-.533.188-.883.364-.88.891-.521-.704-.362-.705-.186-.521-.891.187-.883.717-.7 1.241-.162Z"/><path fill="#171838" d="m130.68 97.406 12.107.142-.016 1.345-12.107-.142z"/><path fill="#171838" d="m130.68 97.406 12.107.142-.016 1.345-12.107-.142z"/><path fill="#D8459E" d="m144.403 62.927.858-1.503-3.026-.036-4.038.121-10.423-.29 1.499 1.195 2.677 1.208 5.203.902 5.895-.772 1.355-.825Z"/><path fill="#9297F9" d="M130.976 64.516c.448.355 1.41 1.172 1.676 1.596l.345-.522 1.703-.68 2.054-1.727 2.716-.319 1.852 1.073 1.517.718 1.186.014 1.837 2.298c.202 2.104.603 6.382.6 6.663-.003.28-.242 1.398-.361 1.922l-1.865-.022-.863 1.391 2.029.374-.519.87c-1.132.22-3.398.73-3.401 1.01-.004.28.775 1.294 1.165 1.766-.136 1.983-.342 6.055-.076 6.479.267.423 1.241.19 1.695.02.442.88 1.325 2.677 1.323 2.817-.002.176-2.569 2.247-2.569 2.247l-12.202-.143-2.189-1.252c-.109-.293-.327-.95-.324-1.23.003-.28.468-1.395.7-1.918.569-.343 1.709-1.1 1.712-1.38.004-.351.367-2.448.543-2.972.14-.418.203-2.858.217-4.025l-1.532.507-1.864-.022-.484-2.107.852-.34c.793-.225 2.381-.708 2.383-.848.002-.14-.333-.53-.501-.707-.62-.065-1.929-.267-2.196-.55-.268-.284-.321-1.522-.315-2.106l1.387-2.611c-.562-.299-1.718-.93-1.852-1.072-.167-.178.866-1.567.868-1.742l.041-3.502 2.712.032Z"/><path fill="#262863" d="m144.109 92.522-1.243.34-.075 6.372.531.006.362-.704.352.181.352.181.533-.17.533-.171.213-.803-.196-.613-.344-.89-.878-.54.712-.346.71-.169.544-1.135-.169-.63-.7-.717-1.237-.192ZM128.672 92.339l.739.327-.067 5.735-.318-.004-.205-.64-.215.157-.214.157-.317-.163-.316-.163-.114-.726.129-.548.221-.794.537-.472-.421-.323-.423-.165-.307-1.031.113-.564.432-.632.746-.151Z"/><path fill="#787DE7" d="m128.205 59.401 1.15-.688.405-.012-.19-.239-.349.011-1.304.99-.019.983.671.631.68-.299.204-.74-.398-.461-.548-.03-.28.45.211.53.457-.027.112-.356-.132-.111-.056.178-.267.089.039-.515.49.078.069.47-.182.326-.495.102-.41-.54.142-.82ZM128.56 55.592l1.527.29.371.308.003-.364-.321-.265-1.882-.14-.728.865.143 1.095.826.268.716-.502-.022-.728-.468-.459-.576.184-.195.64.429.337.358-.232-.038-.203-.179.116-.303-.13.407-.432.382.456-.278.476-.399.149-.518-.3.025-.806.72-.623Z"/><path fill="#C8CAFD" d="m144.109 92.183-1.243.339-.075 6.372.531.006.362-.704.352.181.352.182.533-.171.533-.17.184-.53-.167-.887-.344-.889-.878-.541.712-.346.71-.169.541-.879-.166-.887-.7-.716-1.237-.191ZM129.491 92.013l1.234.368-.074 6.372-.531-.006-.346-.712-.356.173-.356.173-.529-.184-.529-.183-.171-.533.188-.883.364-.88.891-.521-.704-.363-.706-.185-.52-.891.187-.883.717-.7 1.241-.162Z"/><path fill="#9297F9" d="m127.352 21.525 1.02-.997.016-1.345.685-1.001.821 1.69.858-1.503.489 1.352.856-1.336.655 1.521.833.683 1.165 1.023.159.842-.354 1.51 1.003.516.34-.332.852-1 .681-.664 1.177.014 1.159 1.527.014-1.177-.659-1.185-.328-.677-.162-.506.004-.336.017-1.514.847-.494.514-.835 1.154 2.032.346-.837.524-1.676 1.325 1.697.525-1.675 1.477 3.044.646 16.657-.534 2.516-2.046 2.33-1.183.491-.071 6.054-.504-.006-1.517.318-2.521-.197-6.556-.245.062-5.213-.669-.344-1.676-.525-.997-1.02-.66-1.017-.321-1.35.534-16.81Z"/><path fill="#AFB3FF" d="m128.069 50.456-.317-1.685.673.008.675-.16 1.007.18 1.02-.998 1.514.018s3.363.04 4.874.225l2.188-.142 1.85.022 1.513.017c.134.002.5.342.667.513l1.005.348.512-.667.494.847-.039 3.363-.178.839-.675.16-1.007-.18-.838-.178-1.171-.518-1.172-.519-1.173-.35-3.535.295-3.028.133-1.518.318-1.185.659-1.011.156-.676.329-1.163-1.191.694-1.842Z"/><path fill="#D8459E" d="m142.636 56.007 3.227-2.653-.331-.509-1.505-.69-1.678-.356-2.518-.366-2.522-.03-4.036-.047-2.528.475-2.53.643-.342.5 2.656 2.89 12.107.143Z"/><path fill="#9297F9" d="m124.531 3.328-1.362 1.498-1.366 173.706 3.034-.637-.306-174.567Z"/><path fill="#262863" d="m128.326 75.348-.483-1.856.145 2.02.664.68 1.346.016.834.515-.494-.847-1.343-.184-.669-.344Z"/><path fill="#9297F9" d="m150.087 4.297-1.493-1.7.466 175.242 3.531.042-2.504-173.584Z"/><path fill="#262863" d="m142.594 56.18-1.357.993-.04 3.363 1.334 1.025.063-5.381ZM142.901 92.836l-1.358 1.056-.042 3.573 1.333 1.088.067-5.717Z"/><path fill="#262863" d="m142.901 92.836-1.358 1.056-.042 3.573 1.333 1.088.067-5.717ZM130.413 61.418l1.357-.993.039-3.363-1.333-1.025-.063 5.38Z"/><path fill="#BDC0FA" d="m.487 236.13 7.23-22.873 14.447-21.067 18.057-11.436 18.735-2.788 36.158-.08 1.712-2.502 13.788.162-1.039 2.51 11.608-.368h52.063l53.878.738 66.668 9.54-47.979 74.598-225.657-2.648L.487 236.13Z"/><path fill="#262863" d="m130.7 98.422 1.358-1.056.041-3.574-1.332-1.087-.067 5.717Z"/><path fill="#D8459E" d="m143.275 100.588 1.355-.825.855-1.167.004-.336-7.064.085-10.424-.29 1.5 1.194 2.676 1.209 5.203.902 5.895-.772Z"/><path fill="#262863" d="m131.813 42.429-.063 5.38-.675.161.062-5.213-.333-.34-1.844-.526-1.167-.855-.66-1.016-.319-1.518c.003-.168.02-1.715.022-1.85l.051-4.371.219-4.37.244-6.388 1.02-.997.018-1.513.683-.833-.184 1.343-.184 1.343-.851.831-.075 6.39-.028 2.354-.033 2.859-.224 4.706.317 1.685.997 1.021 2.516.534.491 1.183ZM136.789 22.645l.674-.16-.178.838-.856 1.336-1.013.324-.997-1.02 1.345.015.515-.835.51-.498ZM139.929 22.686l-1.32-2.202.649 2.026.155 1.18.498.51.018-1.514ZM140.899 18.823l1.201-2.005-.355 1.51-.516 1.003-.33-.508ZM143.032 18.17l.857-1.336-.354 1.51-.17.166-.333-.34ZM131.113 19.38l1.021-.997-.857 1.335-.164-.338Z"/><path fill="#9297F9" d="M132.807 99.82c-.891.113-2.708.34-2.841.339l-.679.923-.347 1.114-.352 1.672.99.943 2.002.023-.343.741-1.668-.019-1.342.543-.022 1.862c-.004.373.315 1.68.311 2.053-.005.372-.341.554-.844.735-.503.18.474 2.241.47 2.613-.004.298 1.114-.111 1.673-.353l1.339-.357 2.319 1.518 1.454 4.115c-.233.866-.732 2.636-.867 2.783-.136.148-1.632 1.533-2.363 2.208l-.043 3.724-.688 1.669-1.056 4.644-1.352 1.474.281 4.474 1.995.693c.66.628 3.036 2.942 3.302 3.094.265.152.271 1.431.37 2.426l.928.756 1.008-.547.661.567 1.172-.359.666.194 1.341-.543.295.003.025-2.113.566-2.35 1.831-1.322 2.365-.678.382-4.093.018-1.49-1.669-.02-.321-1.121c-.156-.933-.432-2.948-.292-3.542.169-.185.678-.924 1.183-1.29.404-.294.178-.867.014-1.118-.276-.189-.827-.643-.824-.941.004-.372.015-1.303-.316-1.494-.332-.19-.154-1.119-.147-1.678l.028-2.421c.004-.298-1.196-2.373-1.796-3.374l-.158-.746 1.523-1.845 1.338-.171 1.185-1.476c.173-.495.519-1.558.523-1.856.004-.373-.806-2.431-.804-2.618.002-.186.85-1.293.852-1.48l.03-2.607c.004-.298-.436-.75-.656-.939l-1.329-.574.016-1.304-1.158-.945-1.33-.388-1.673.353-.846.921c-.387-.191-1.195-.573-1.328-.574l-1.836-.022c-.267-.003-.565.739-.68 1.11-.331-.252-1.026-.794-1.158-.945-.131-.151-.94-.446-1.328-.574Z"/><path fill="#787DE7" d="m144.74 92.956-1.38.108-.357.237.031-.323.308-.204 1.682.06.566.839-.227.957-.757.158-.589-.516.086-.644.458-.361.493.22.114.586-.41.257-.297-.24.053-.177.148.12.28-.086-.322-.422-.379.367.202.45.34.17.487-.214.052-.718-.582-.624ZM144.753 96.604l-1.179-.747-.4-.044.172-.213.345.04 1.35 1.046.082.938-.62.548-.691-.34-.248-.72.362-.408.539.015.305.452-.174.487-.452-.062-.134-.349.123-.094.067.174.269.106-.072-.494-.478.035-.038.442.201.326.495.137.369-.482-.193-.793ZM128.462 96.397l1.15-.687.405-.013-.19-.239-.35.011-1.303.99-.019.983.671.631.68-.299.204-.74-.398-.46-.549-.03-.279.45.211.529.457-.027.112-.356-.132-.11-.056.177-.267.09.039-.516.49.078.069.47-.182.326-.496.103-.409-.54.142-.82ZM128.737 92.596l1.527.29.372.308.002-.364-.321-.265-1.882-.14-.728.865.143 1.095.826.268.717-.502-.022-.728-.469-.459-.576.184-.195.64.429.337.358-.231-.038-.204-.179.116-.303-.13.408-.432.381.456-.278.476-.399.149-.517-.3.024-.806.72-.623Z"/><path fill="#262863" d="m133.126 100.194 1.836 1.135-1.662-1.69-1.679-.205-1.35.355-1.353.727-.524 1.664-.19 1.853 1 .754-.494-.933.352-1.295.524-1.664 1.688-.537 1.852-.164ZM129.331 105.462l1.609.019-2.422.722-.02 1.69.454 2.446-.974.739-.171.937.476.568 2.573.031-2.745.906-.791-1.136-.144-1.503 1.135-.738-.297-2.068.024-2.065 1.293-.548ZM134.751 121.283l.035-2.974-.896 2.778-2.444 2.202-.212 3.343-.363 1.483-1.088 4.448-1.581 2.212.291 4.65.225-4.458 1.229-1.659 1.252-3.702.549-2.596.382-3.156 2.621-2.571ZM142.945 114.069l1.348-.169-1.007-.197-1.352.54-1.022 1.097.153 1.297c.219.496.655 1.525.653 1.673-.001.148.77 1.304 1.156 1.863l.493.931.016-1.295-.824-1.489-.823-1.49-.326-.929 1.535-1.832Z"/><path fill="#BABEF3" d="m96.795 175.384 13.788.161-5.206 13.73-1.85-.022-4.354-1.565-9.583-.28 7.205-12.024ZM168.273 175.2l13.287-.181 4.4 11.992-5.723.437-5.543-.569-4.53-.894-1.891-10.785ZM170.491 205.164l11.602.136 13.953.5 20.539 41.107-25.438.543-12.253 1.201-6.161-5.786-2.242-37.701Z"/><path fill="#BABEF3" d="m172.824 186.18 22.608.265 6.089 19.243-10.532-.443-7.468.905-7.41.922-3.287-20.892ZM78.864 186.607l21.523.253-7.176 22.115-3.162-1.047-28.934 43.722-32.117-.377 32.648-44.855 5.871 1.246 11.347-21.057Z"/><path fill="#D8459E" d="M130.767 178.299c-5.645-.066-17.097-.369-17.75-.376l-.412.331 18.162.045ZM128.717 138.419l-.01.841 2.344.869 3.16 3.064.31 2.19.829 1.018 1.183-.49.669.344 1.181-.323.671.176 1.183-.49.338-.164.018-1.514.008-.672 2.389-2.999 2.364-.813.01-.841-1.337-.689-1.678-.356-2.518-.366-2.522-.029-4.036-.048-2.528.475-2.028.817Z"/><path fill="#262863" d="M135.297 65.171c.136-.133 1.081-1.389 1.537-2l-2.038 1.658-1.859.819-.172.334-1.664-1.533-2.859-.034-.043 3.7.376-3.36 1.345.017 1.175.181 1.662 1.702.514-.835c.619-.161 1.89-.516 2.026-.649ZM127.663 69.962l-.334-.172.006-.505.34-.332.161.675 1.669 1.028-.338.165-1.504-.859ZM129.944 79.905l-1.852.147 1.848.19 1.351-.49-.044 3.7c-.001.135-.362 2.182-.542 3.189l-1.697 1.325 1.86-.819.35-1.173.368-2.686.045-3.868-1.687.485Z"/><path fill="#9297F9" fill-rule="evenodd" d="m64.754 206.97 13.424-20.536 3.868.045-.661 1.002-13.55 20.526-3.081-1.037Zm-2.615-.88 2.615.88-.104.159-2.51-1.039Zm37.055-18.4-9.478 18.724-4.876-.057-21.512 41.79-28.914-1.012 27.725-41.045-4.708-.055-29.583 41.696-.073 6.222 41.355 1.326 20.537-44.661 4.714-.45 9.16-21.082.336.024-.308-2.378-3.867-.045-.508 1.003Zm6.196 1.527 3.865.273 3.999-11.221.032-2.691-2.691-.031-5.205 13.67Zm-17.963-2.674 2.858.033 6.522-11.191-2.69-.031-1.55 3.008-2.57 4.091-2.57 4.09Z" clip-rule="evenodd"/><path fill="#9297F9" fill-rule="evenodd" d="m99.702 186.687-9.417-.111-2.858-.033-5.381-.064-.661 1.002 17.809.209.508-1.003Z" clip-rule="evenodd"/><path fill="#4C51BE" d="m113.272 178.433.031-2.69-5.206 13.729 1.177.014 3.998-11.053ZM103.735 189.587l.033-2.858-10.015 22.249-3.838-2.568-20.675 42.137-.075 6.39 20.71-45.164 4.537.39 9.323-20.576Z"/><path fill="#9297F9" d="m59.48 189.238 11.428-13.656-2.69-.032-13.446 13.633 4.708.055ZM48.596 186.078c-1.177-.07-3.563-.21-3.698-.212L.488 233.722h4.21l43.897-47.644Z"/><path fill="#4C51BE" d="m49.612 186.933-1-.852L5.91 231.918l8.425-.602 35.254-42.365.024-2.018Z"/><path fill="#9297F9" d="m165.604 175.164 2.859.034 1.891 10.785 2.522.03 4.139 19.893 2.186.025 8.263 41.132 36.166-.753-19.032-40.585-.673-.008-4.035-.047-8.349-19.438-3.029.132-3.026-.035-4.072-11.315 2.522.029 4.576 11.321 3.029-.132 3.699.043 8.685 19.442.673.008 4.708.055 20.878 40.943-49.126 1.61-6.565-42.457c-.404 1.005-1.246 2.979-1.379 2.843-.133-.136-2.477-13.427-3.632-20.055l-1.85-.022-2.028-13.478Z"/><path fill="#4C51BE" d="m165.876 206.125-1.379 2.843 1.009.012 7.53 46.168-.255-6.899-6.905-42.124ZM169.632 187.828l-.349 1.005.331.509 3.302 19.546.514-.835-3.798-20.225Z"/><path fill="#D8459E" d="m169.595 190.529-47.567-.558 44.934-1.323 2.04.192.4.678.193 1.011ZM166.312 211.168l-50.109-.588 47.337-1.462 2.148.208.422.739.202 1.103ZM67.359 189.33c-5.646-.066-17.098-.368-17.75-.376l-.413.332 18.163.044Z"/></mask><g mask="url(#a)"><path fill="#7F84FF" d="m71.772 175.928-.837-.347-11.088 13.324 1.178.014c.134.001 6.194-7.215 9.208-10.823l1.513.017.026-2.185Z"/><path fill="#13144B" stroke="#13144B" stroke-width="1.727" d="m132.018 57.252 9.035.106-.035 2.982-9.035-.106zM132.256 94.592l9.035.106-.046 3.99-9.036-.105z"/><path fill="#13144B" stroke="#13144B" stroke-width="1.727" d="m131.553 93.905 10.38.122-.066 5.671-10.38-.121z"/><path fill="#13144B" stroke="#13144B" stroke-width=".863" d="m132.501 95.175 8.553.1-.037 3.173-8.553-.1z"/><path fill="#7F84FF" d="m124.861 178.233-.302-174.904 1.499 1.195 3.324 3.402 2.485 3.225 1.648 2.878.965 3.711.121 4.038.105 5.383 4.544-.283.54-3.021.067-5.717.532-2.348 1.052-3.688 1.888-3.173 5.287-6.329.464 175.41-8.077.41-.462-32.295-1.517.319-1.009-.012-1.013.325-.666-.513-1.015.493-.833-.683-.211 32.287-9.416-.11Z"/><path fill="#3D4198" d="m130.483 55.699 12.107.142-.07 6.054-12.108-.142z"/><path fill="#B1B5FF" d="m131.818 57.066 9.416.11-.04 3.363-9.415-.11zM132.114 93.727l9.416.11-.043 3.7-9.416-.11z"/><path fill="#B1B5FF" d="m132.114 93.727 9.416.11-.043 3.7-9.416-.11z"/><path fill="#C8CAFD" d="m130.473 57.047 12.107.142.016-1.345-12.107-.142zM130.7 93.71l12.107.143.016-1.345-12.107-.142z"/><path fill="#C8CAFD" d="m130.7 93.71 12.107.143.016-1.345-12.107-.142z"/><path fill="#171838" d="m130.453 60.406 12.107.142-.016 1.345-12.107-.142z"/><path fill="#13144B" d="m128.406 55.335.739.327-.067 5.735-.319-.004-.205-.64-.214.157-.214.157-.317-.163-.317-.163-.113-.726.128-.548.222-.794.537-.472-.421-.323-.423-.165-.307-1.03.113-.565.432-.632.746-.151ZM143.822 55.518l-1.243.34-.075 6.372.531.006.362-.704.352.181.352.182.533-.171.533-.17.213-.804-.196-.613-.344-.89-.879-.54.713-.346.71-.169.544-1.135-.17-.63-.699-.717-1.237-.192Z"/><path fill="#C8CAFD" d="m143.486 55.51-1.243.34-.074 6.372.531.006.362-.703.352.18.352.182.533-.171.533-.17.183-.53-.167-.887-.343-.889-.879-.541.712-.346.71-.169.542-.878-.167-.887-.7-.717-1.237-.191Z"/><path fill="#6D73FF" d="m144.546 59.604-1.179-.747-.401-.044.172-.213c.126.014.243.027.346.04l1.349 1.046.083.938-.621.548-.69-.34-.249-.72.363-.408.539.015.304.452-.173.487-.453-.062-.133-.348.122-.095.067.174.269.106-.072-.494-.477.035-.039.442.201.326.496.137.369-.482-.193-.793ZM144.562 55.952l-1.38.108-.358.237.031-.323.309-.204 1.682.06.566.84-.227.957-.757.157-.589-.516.086-.644.458-.361.493.22.114.586-.411.257-.296-.24.052-.176.148.12.281-.087-.322-.422-.38.367.203.45.34.17.486-.214.053-.718-.582-.624Z"/><path fill="#C8CAFD" d="m129.254 55.009 1.235.368-.075 6.372-.531-.006-.346-.712-.356.173-.356.173-.529-.184-.529-.183-.171-.533.188-.883.364-.88.891-.521-.704-.362-.705-.186-.521-.891.187-.883.717-.7 1.241-.162Z"/><path fill="#171838" d="m130.68 97.406 12.107.142-.016 1.345-12.107-.142z"/><path fill="#171838" d="m130.68 97.406 12.107.142-.016 1.345-12.107-.142z"/><path fill="#FF009A" d="m144.403 62.927.858-1.503-3.026-.036-4.038.121-10.423-.29 1.499 1.195 2.677 1.208 5.203.902 5.895-.772 1.355-.825Z"/><path fill="#B1B5FF" d="M130.976 64.516c.448.355 1.41 1.172 1.676 1.596l.345-.522 1.703-.68 2.054-1.727 2.716-.319 1.852 1.073 1.517.718 1.186.014 1.837 2.298c.202 2.104.603 6.382.6 6.663-.003.28-.242 1.398-.361 1.922l-1.865-.022-.863 1.391 2.029.374-.519.87c-1.132.22-3.398.73-3.401 1.01-.004.28.775 1.294 1.165 1.766-.136 1.983-.342 6.055-.076 6.479.267.423 1.241.19 1.695.02.442.88 1.325 2.677 1.323 2.817-.002.176-2.569 2.247-2.569 2.247l-12.202-.143-2.189-1.252c-.109-.293-.327-.95-.324-1.23.003-.28.468-1.395.7-1.918.569-.343 1.709-1.1 1.712-1.38.004-.351.367-2.448.543-2.972.14-.418.203-2.858.217-4.025l-1.532.507-1.864-.022-.484-2.107.852-.34c.793-.225 2.381-.708 2.383-.848.002-.14-.333-.53-.501-.707-.62-.065-1.929-.267-2.196-.55-.268-.284-.321-1.522-.315-2.106l1.387-2.611c-.562-.299-1.718-.93-1.852-1.072-.167-.178.866-1.567.868-1.742l.041-3.502 2.712.032Z"/><path fill="#13144B" d="m144.109 92.522-1.243.34-.075 6.372.531.006.362-.704.352.181.352.181.533-.17.533-.171.213-.803-.196-.613-.344-.89-.878-.54.712-.346.71-.169.544-1.135-.169-.63-.7-.717-1.237-.192ZM128.672 92.339l.739.327-.067 5.735-.318-.004-.205-.64-.215.157-.214.157-.317-.163-.316-.163-.114-.726.129-.548.221-.794.537-.472-.421-.323-.423-.165-.307-1.031.113-.564.432-.632.746-.151Z"/><path fill="#6D73FF" d="m128.205 59.401 1.15-.688.405-.012-.19-.239-.349.011-1.304.99-.019.983.671.631.68-.299.204-.74-.398-.461-.548-.03-.28.45.211.53.457-.027.112-.356-.132-.111-.056.178-.267.089.039-.515.49.078.069.47-.182.326-.495.102-.41-.54.142-.82ZM128.56 55.592l1.527.29.371.308.003-.364-.321-.265-1.882-.14-.728.865.143 1.095.826.268.716-.502-.022-.728-.468-.459-.576.184-.195.64.429.337.358-.232-.038-.203-.179.116-.303-.13.407-.432.382.456-.278.476-.399.149-.518-.3.025-.806.72-.623Z"/><path fill="#C8CAFD" d="m144.109 92.183-1.243.339-.075 6.372.531.006.362-.704.352.181.352.182.533-.171.533-.17.184-.53-.167-.887-.344-.889-.878-.541.712-.346.71-.169.541-.879-.166-.887-.7-.716-1.237-.191ZM129.491 92.013l1.234.368-.074 6.372-.531-.006-.346-.712-.356.173-.356.173-.529-.184-.529-.183-.171-.533.188-.883.364-.88.891-.521-.704-.363-.706-.185-.52-.891.187-.883.717-.7 1.241-.162Z"/><path fill="#B1B5FF" d="m127.352 21.525 1.02-.997.016-1.345.685-1.001.821 1.69.858-1.503.489 1.352.856-1.336.655 1.521.833.683 1.165 1.023.159.842-.354 1.51 1.003.516.34-.332.852-1 .681-.664 1.177.014 1.159 1.527.014-1.177-.659-1.185-.328-.677-.162-.506.004-.336.017-1.514.847-.494.514-.835 1.154 2.032.346-.837.524-1.676 1.325 1.697.525-1.675 1.477 3.044.646 16.657-.534 2.516-2.046 2.33-1.183.491-.071 6.054-.504-.006-1.517.318-2.521-.197-6.556-.245.062-5.213-.669-.344-1.676-.525-.997-1.02-.66-1.017-.321-1.35.534-16.81Z"/><path fill="#AFB3FF" d="m128.069 50.456-.317-1.685.673.008.675-.16 1.007.18 1.02-.998 1.514.018s3.363.04 4.874.225l2.188-.142 1.85.022 1.513.017c.134.002.5.342.667.513l1.005.348.512-.667.494.847-.039 3.363-.178.839-.675.16-1.007-.18-.838-.178-1.171-.518-1.172-.519-1.173-.35-3.535.295-3.028.133-1.518.318-1.185.659-1.011.156-.676.329-1.163-1.191.694-1.842Z"/><path fill="#FF009A" d="m142.636 56.007 3.227-2.653-.331-.509-1.505-.69-1.678-.356-2.518-.366-2.522-.03-4.036-.047-2.528.475-2.53.643-.342.5 2.656 2.89 12.107.143Z"/><path fill="#B1B5FF" d="m124.531 3.328-1.362 1.498-1.366 173.706 3.034-.637-.306-174.567Z"/><path fill="#13144B" d="m128.326 75.348-.483-1.856.145 2.02.664.68 1.346.016.834.515-.494-.847-1.343-.184-.669-.344Z"/><path fill="#B1B5FF" d="m150.087 4.297-1.493-1.7.466 175.242 3.531.042-2.504-173.584Z"/><path fill="#13144B" d="m142.594 56.18-1.357.993-.04 3.363 1.334 1.025.063-5.381ZM142.901 92.836l-1.358 1.056-.042 3.573 1.333 1.088.067-5.717Z"/><path fill="#13144B" d="m142.901 92.836-1.358 1.056-.042 3.573 1.333 1.088.067-5.717ZM130.413 61.418l1.357-.993.039-3.363-1.333-1.025-.063 5.38Z"/><path fill="#BDC0FA" d="m.487 236.13 7.23-22.873 14.447-21.067 18.057-11.436 18.735-2.788 36.158-.08 1.712-2.502 13.788.162-1.039 2.51 11.608-.368h52.063l53.878.738 66.668 9.54-47.979 74.598-225.657-2.648L.487 236.13Z"/><path fill="#13144B" d="m130.7 98.422 1.358-1.056.041-3.574-1.332-1.087-.067 5.717Z"/><path fill="#FF009A" d="m143.275 100.588 1.355-.825.855-1.167.004-.336-7.064.085-10.424-.29 1.5 1.194 2.676 1.209 5.203.902 5.895-.772Z"/><path fill="#13144B" d="m131.813 42.429-.063 5.38-.675.161.062-5.213-.333-.34-1.844-.526-1.167-.855-.66-1.016-.319-1.518c.003-.168.02-1.715.022-1.85l.051-4.371.219-4.37.244-6.388 1.02-.997.018-1.513.683-.833-.184 1.343-.184 1.343-.851.831-.075 6.39-.028 2.354-.033 2.859-.224 4.706.317 1.685.997 1.021 2.516.534.491 1.183ZM136.789 22.645l.674-.16-.178.838-.856 1.336-1.013.324-.997-1.02 1.345.015.515-.835.51-.498ZM139.929 22.686l-1.32-2.202.649 2.026.155 1.18.498.51.018-1.514ZM140.899 18.823l1.201-2.005-.355 1.51-.516 1.003-.33-.508ZM143.032 18.17l.857-1.336-.354 1.51-.17.166-.333-.34ZM131.113 19.38l1.021-.997-.857 1.335-.164-.338Z"/><path fill="#B1B5FF" d="M132.807 99.82c-.891.113-2.708.34-2.841.339l-.679.923-.347 1.114-.352 1.672.99.943 2.002.023-.343.741-1.668-.019-1.342.543-.022 1.862c-.004.373.315 1.68.311 2.053-.005.372-.341.554-.844.735-.503.18.474 2.241.47 2.613-.004.298 1.114-.111 1.673-.353l1.339-.357 2.319 1.518 1.454 4.115c-.233.866-.732 2.636-.867 2.783-.136.148-1.632 1.533-2.363 2.208l-.043 3.724-.688 1.669-1.056 4.644-1.352 1.474.281 4.474 1.995.693c.66.628 3.036 2.942 3.302 3.094.265.152.271 1.431.37 2.426l.928.756 1.008-.547.661.567 1.172-.359.666.194 1.341-.543.295.003.025-2.113.566-2.35 1.831-1.322 2.365-.678.382-4.093.018-1.49-1.669-.02-.321-1.121c-.156-.933-.432-2.948-.292-3.542.169-.185.678-.924 1.183-1.29.404-.294.178-.867.014-1.118-.276-.189-.827-.643-.824-.941.004-.372.015-1.303-.316-1.494-.332-.19-.154-1.119-.147-1.678l.028-2.421c.004-.298-1.196-2.373-1.796-3.374l-.158-.746 1.523-1.845 1.338-.171 1.185-1.476c.173-.495.519-1.558.523-1.856.004-.373-.806-2.431-.804-2.618.002-.186.85-1.293.852-1.48l.03-2.607c.004-.298-.436-.75-.656-.939l-1.329-.574.016-1.304-1.158-.945-1.33-.388-1.673.353-.846.921c-.387-.191-1.195-.573-1.328-.574l-1.836-.022c-.267-.003-.565.739-.68 1.11-.331-.252-1.026-.794-1.158-.945-.131-.151-.94-.446-1.328-.574Z"/><path fill="#6D73FF" d="m144.74 92.956-1.38.108-.357.237.031-.323.308-.204 1.682.06.566.839-.227.957-.757.158-.589-.516.086-.644.458-.361.493.22.114.586-.41.257-.297-.24.053-.177.148.12.28-.086-.322-.422-.379.367.202.45.34.17.487-.214.052-.718-.582-.624ZM144.753 96.604l-1.179-.747-.4-.044.172-.213.345.04 1.35 1.046.082.938-.62.548-.691-.34-.248-.72.362-.408.539.015.305.452-.174.487-.452-.062-.134-.349.123-.094.067.174.269.106-.072-.494-.478.035-.038.442.201.326.495.137.369-.482-.193-.793ZM128.462 96.397l1.15-.687.405-.013-.19-.239-.35.011-1.303.99-.019.983.671.631.68-.299.204-.74-.398-.46-.549-.03-.279.45.211.529.457-.027.112-.356-.132-.11-.056.177-.267.09.039-.516.49.078.069.47-.182.326-.496.103-.409-.54.142-.82ZM128.737 92.596l1.527.29.372.308.002-.364-.321-.265-1.882-.14-.728.865.143 1.095.826.268.717-.502-.022-.728-.469-.459-.576.184-.195.64.429.337.358-.231-.038-.204-.179.116-.303-.13.408-.432.381.456-.278.476-.399.149-.517-.3.024-.806.72-.623Z"/><path fill="#13144B" d="m133.126 100.194 1.836 1.135-1.662-1.69-1.679-.205-1.35.355-1.353.727-.524 1.664-.19 1.853 1 .754-.494-.933.352-1.295.524-1.664 1.688-.537 1.852-.164ZM129.331 105.462l1.609.019-2.422.722-.02 1.69.454 2.446-.974.739-.171.937.476.568 2.573.031-2.745.906-.791-1.136-.144-1.503 1.135-.738-.297-2.068.024-2.065 1.293-.548ZM134.751 121.283l.035-2.974-.896 2.778-2.444 2.202-.212 3.343-.363 1.483-1.088 4.448-1.581 2.212.291 4.65.225-4.458 1.229-1.659 1.252-3.702.549-2.596.382-3.156 2.621-2.571ZM142.945 114.069l1.348-.169-1.007-.197-1.352.54-1.022 1.097.153 1.297c.219.496.655 1.525.653 1.673-.001.148.77 1.304 1.156 1.863l.493.931.016-1.295-.824-1.489-.823-1.49-.326-.929 1.535-1.832Z"/><path fill="#BABEF3" d="m96.795 175.384 13.788.161-5.206 13.73-1.85-.022-4.354-1.565-9.583-.28 7.205-12.024ZM168.273 175.2l13.287-.181 4.4 11.992-5.723.437-5.543-.569-4.53-.894-1.891-10.785ZM170.491 205.164l11.602.136 13.953.5 20.539 41.107-25.438.543-12.253 1.201-6.161-5.786-2.242-37.701Z"/><path fill="#BABEF3" d="m172.824 186.18 22.608.265 6.089 19.243-10.532-.443-7.468.905-7.41.922-3.287-20.892ZM78.864 186.607l21.523.253-7.176 22.115-3.162-1.047-28.934 43.722-32.117-.377 32.648-44.855 5.871 1.246 11.347-21.057Z"/><path fill="#FF009A" d="M130.767 178.299c-5.645-.066-17.097-.369-17.75-.376l-.412.331 18.162.045ZM128.717 138.419l-.01.841 2.344.869 3.16 3.064.31 2.19.829 1.018 1.183-.49.669.344 1.181-.323.671.176 1.183-.49.338-.164.018-1.514.008-.672 2.389-2.999 2.364-.813.01-.841-1.337-.689-1.678-.356-2.518-.366-2.522-.029-4.036-.048-2.528.475-2.028.817Z"/><path fill="#13144B" d="M135.297 65.171c.136-.133 1.081-1.389 1.537-2l-2.038 1.658-1.859.819-.172.334-1.664-1.533-2.859-.034-.043 3.7.376-3.36 1.345.017 1.175.181 1.662 1.702.514-.835c.619-.161 1.89-.516 2.026-.649ZM127.663 69.962l-.334-.172.006-.505.34-.332.161.675 1.669 1.028-.338.165-1.504-.859ZM129.944 79.905l-1.852.147 1.848.19 1.351-.49-.044 3.7c-.001.135-.362 2.182-.542 3.189l-1.697 1.325 1.86-.819.35-1.173.368-2.686.045-3.868-1.687.485Z"/><path fill="#B1B5FF" fill-rule="evenodd" d="m64.754 206.97 13.424-20.536 3.868.045-.661 1.002-13.55 20.526-3.081-1.037Zm-2.615-.88 2.615.88-.104.159-2.51-1.039Zm37.055-18.4-9.478 18.724-4.876-.057-21.512 41.79-28.914-1.012 27.725-41.045-4.708-.055-29.583 41.696-.073 6.222 41.355 1.326 20.537-44.661 4.714-.45 9.16-21.082.336.024-.308-2.378-3.867-.045-.508 1.003Zm6.196 1.527 3.865.273 3.999-11.221.032-2.691-2.691-.031-5.205 13.67Zm-17.963-2.674 2.858.033 6.522-11.191-2.69-.031-1.55 3.008-2.57 4.091-2.57 4.09Z" clip-rule="evenodd"/><path fill="#B1B5FF" fill-rule="evenodd" d="m99.702 186.687-9.417-.111-2.858-.033-5.381-.064-.661 1.002 17.809.209.508-1.003Z" clip-rule="evenodd"/><path fill="#7F84FF" d="m113.272 178.433.031-2.69-5.206 13.729 1.177.014 3.998-11.053ZM103.735 189.587l.033-2.858-10.015 22.249-3.838-2.568-20.675 42.137-.075 6.39 20.71-45.164 4.537.39 9.323-20.576Z"/><path fill="#B1B5FF" d="m59.48 189.238 11.428-13.656-2.69-.032-13.446 13.633 4.708.055ZM48.596 186.078c-1.177-.07-3.563-.21-3.698-.212L.488 233.722h4.21l43.897-47.644Z"/><path fill="#7F84FF" d="m49.612 186.933-1-.852L5.91 231.918l8.425-.602 35.254-42.365.024-2.018Z"/><path fill="#B1B5FF" d="m165.604 175.164 2.859.034 1.891 10.785 2.522.03 4.139 19.893 2.186.025 8.263 41.132 36.166-.753-19.032-40.585-.673-.008-4.035-.047-8.349-19.438-3.029.132-3.026-.035-4.072-11.315 2.522.029 4.576 11.321 3.029-.132 3.699.043 8.685 19.442.673.008 4.708.055 20.878 40.943-49.126 1.61-6.565-42.457c-.404 1.005-1.246 2.979-1.379 2.843-.133-.136-2.477-13.427-3.632-20.055l-1.85-.022-2.028-13.478Z"/><path fill="#7F84FF" d="m165.876 206.125-1.379 2.843 1.009.012 7.53 46.168-.255-6.899-6.905-42.124ZM169.632 187.828l-.349 1.005.331.509 3.302 19.546.514-.835-3.798-20.225Z"/><path fill="#FF009A" d="m169.595 190.529-47.567-.558 44.934-1.323 2.04.192.4.678.193 1.011ZM166.312 211.168l-50.109-.588 47.337-1.462 2.148.208.422.739.202 1.103ZM67.359 189.33c-5.646-.066-17.098-.368-17.75-.376l-.413.332 18.163.044Z"/><path fill="url(#b)" d="M-19.226-18.516h216.398v254.243H-19.226z" opacity=".8" style="mix-blend-mode:hard-light"/></g><defs><linearGradient id="b" x1="149.737" x2="-29.561" y1="170.83" y2="94.861" gradientUnits="userSpaceOnUse"><stop stop-color="#E7465F"/><stop offset=".281" stop-color="#9951D0"/><stop offset=".563" stop-color="#584EB9"/><stop offset="1" stop-color="#292A67"/></linearGradient></defs></svg>