<svg xmlns="http://www.w3.org/2000/svg" width="164" height="234" fill="none" viewBox="0 0 164 234"><mask id="a" width="254" height="319" x="0" y="0" maskUnits="userSpaceOnUse" style="mask-type:alpha"><path fill="#fff" d="m116.97 170.76-3.534-4.338 1.433-1.125c.933 1.017 2.801 3.085 2.801 3.213 0 .129 3.736-2.088 5.603-3.213v1.125l-6.303 4.338Z"/><path fill="#787DE7" d="m109.647 165.938-2.802-1.446-.875 2.571v7.391l4.202-.643-.525-7.873ZM91.086 165.623l-3.151-1.768-.526 2.893v7.39l4.203-.642-.526-7.873ZM74.923 165.299l-2.976-1.768-.7 2.892v7.391l4.201-.642-.525-7.873ZM57.783 165.299l-2.977-1.768-.7 2.892v7.391l4.202-.642-.525-7.873ZM41.346 165.623l-2.976-1.768-.7 2.893v7.39l4.202-.642-.526-7.873ZM26.288 164.334l-2.977-1.768-.7 2.893v7.39l4.202-.642-.525-7.873ZM13.002 165.181l-3.271-1.786-.77 2.922v7.469l4.619-.649-.578-7.956Z"/><path fill="#BDC0FA" d="m.885 248.526 2.101-83.389v-2.571l3.327 5.303 3.852-4.821-.35 8.195h3.677v-8.195l5.078 3.214 4.727-3.214-.175 8.195h6.128v-7.231l4.553 3.857 4.552-3.857-.175 7.713h6.479v-7.713l4.727 4.821 5.428-4.821v7.713h7.355v-7.713l4.902 4.499 4.903-4.499v7.231l7.004.482v-7.713l4.377 4.499 4.553-3.374v6.588l8.754-.482v-6.106l4.728 4.499 5.428-4.499v7.873h6.829v-6.748l3.502 4.017 6.128-4.017v85.959L.885 248.526Z"/><path fill="#fff" d="M106.829 165.457v-.964l-5.428 3.214-4.727-3.535v.964l4.727 4.82 5.428-4.499ZM87.927 165.141v-1.286l-4.692 3.535-4.238-3.535v.965l4.238 4.82 4.692-4.499ZM71.998 164.496v-.964l-5.24 3.214-4.565-3.535v.964l4.564 4.82 5.24-4.499ZM54.84 164.496v-.964l-5.429 3.214-4.727-3.535v.964l4.727 4.82 5.428-4.499ZM38.351 164.674v-.857l-4.866 2.856-4.239-3.142v.857l4.239 4.285 4.866-3.999ZM23.299 163.385v-.857l-5.241 2.856-4.565-3.142v.857l4.565 4.285 5.24-3.999ZM10.113 163.972v-1.154l-3.875 3.087-3.26-3.339v.911l3.26 4.552 3.875-4.057Z"/><path fill="#4C51BE" d="m114.534 12.948-3.464-2.327-.126 3.07.626.51-.063 1.535-.346.553.577 3.664-1.06.2-1.283-.296.635-3.615-.458-.666.06-1.454.501-.384.1-2.423-.307-.417-3.677 2.842 1.67-5.19-4.269-2.442 5.042-.601L110.18.794l1.685 4.277 5.028-.278-4.185 3.387 1.826 4.768Z"/><path fill="#9297F9" d="m110.145.785 1.765 4.28-.928.933-.925.852.088-6.065Z"/><path fill="#787DE7" d="m110.127.786-1.411 4.797.623.592.686.902.102-6.29Z"/><path fill="#787DE7" d="m110.06 6.848-.538-.67-.785-.598-2.191.152-2.847.368 6.361.748ZM109.882 6.912l.734.448.941.297 1.266.528 4.024-3.394-6.965 2.121Z"/><path fill="#787DE7" d="m110.06 6.848-2.099 1.855-.648 1.996-1.015 3.033 2.001-3.397 1.761-3.487ZM110.06 6.848l.275 3.167.7.675 3.471 2.166-2.526-3.31-1.92-2.698Z"/><path fill="#5357AD" d="m110.045 6.85-2.099 1.856-1.027-.609-3.235-1.994 6.361.747Z"/><path fill="#5357AD" d="m110.035 6.855.273 3.167-.107.643-3.93 3.074 3.764-6.884Z"/><path fill="#9297F9" d="m110.032 6.85 2.778 1.328.434 1.232 1.153 3.445-2.378-3.172-1.987-2.833ZM110.06 6.848l1.774-1.796 1.302.1 3.806-.367-6.882 2.063Z"/><path fill="#787DE7" d="m119.653 63.805-7.905-43.855-.975.122-1.367-.218-8.529 44.069 3.446.789 1.438.463 1.642-.58 4.173.82 2.467-.95 1.131.046 1.282.296 1.06-.2 1.077-.603 1.06-.199Z"/><path fill="#333789" d="m109.957 10.9.427-.549-.097.4.151.25.138.572-.089 2.18-.098.401-.282.96.364.986-.497 2.245-.201.962-.017.404.404.017-.252.232-.482-.1.319-1.848.316-1.768-.458-.666.059-1.454.502-.383.099-2.424-.306-.417Z"/><path fill="#9297F9" d="M117.36 64.518c.438-.17 1.893-.796 2.214-.718l-7.985-43.858-.488.06 6.259 44.516ZM111.669 65.34l-4.015-.731.053-1.292 2.593-43.342.32.094.326-.068 3.691 44.005-2.968 1.335ZM100.81 63.757c2.863-14.527 8.593-43.645 8.603-43.903l.724.11-4.527 45.123-4.8-1.33Z"/><path fill="#4C51BE" d="m128.436 65.733-4.302-6.415-4.781 4.49-4.78-6.093-4.781 3.047-2.231 3.527-1.594-1.924-3.824-1.603-5.1 5.612-4.302-3.528v43.136l7.873-3.118 6.748 2.156 2.571 3.046 5.914-3.046 7.331 3.046 1.593-.962 3.028-.641.637-40.73Z"/><path fill="#2B2E6B" d="m108.441 65.273 5.945-5.945 4.177 6.266-.803 10.283-4.177-.482-5.142.482V65.273ZM122.932 143.996l5.945-5.945 4.017 7.551-.964 14.461-4.499-3.214-4.499-2.249v-10.604ZM133.216 150.425l5.945-5.945 4.017 7.552-.964 14.461-4.499-3.214-4.499-2.249v-10.605Z"/><path fill="#2B2E6B" d="m141.86 155.57 5.945-5.945 4.017 7.552-.964 14.46-4.499-3.213-4.499-2.25V155.57ZM109.082 96.441v-8.837l3.535-.803 2.731 1.767-.321 16.228-.964.321-4.82 1.125-.161-9.8ZM120.682 99.868v-8.614l2.57-.762 2.25 1.685-.238 14.92-.741.307-1.431.762-2.41-1.069v-7.23ZM102.363 99.235V90.62l-2.742-.762-2.4 1.685.172 12.133 1.028-.482 2.496-.321 1.446.16v-3.8ZM96.737 68.483l5.623-5.624 3.535 1.446v12.372l-3.535 1.607-5.462 1.125-.161-10.926ZM120.334 66.881l3.535-4.338 2.249 4.338v10.765l-.803-.16h-4.981V66.88Z"/><path fill="#333789" d="m124.043 59.164-6.748 2.089 2.089 2.57 4.659-4.659ZM139.647 141.91l-8.355.964 2.089 4.017 6.266-4.981ZM114.394 57.234l-7.551 5.303.16 1.767 7.391-7.07Z"/><path fill="#454AAC" d="m102.372 59.965 4.499 2.57.161 1.929-4.66-4.5Z"/><path fill="#333789" d="M99.984 62.86h-7.39l4.177 3.695 3.213-3.696Z"/><path fill="#BDC0FA" d="m151.852 312.222-24.904 4.017h-3.695l-4.82-4.017-8.195-24.422-8.676-32.295-44.827-12.211v-22.333c.91-24.583 3.534-75.195 3.534-75.195s8.623-.482 12.533 0l31.974-3.856 16.227 9.801 29.243 19.602 1.606-6.427V312.222Z"/><path fill="#9297F9" fill-rule="evenodd" d="M128.554 68.482V87.9l.321.184v.803l-.803 2.25-6.748-3.696-3.696-2.088-6.427-.804-4.499.643-2.249.482c-1.982.91-5.977 2.763-6.106 2.892-.128.129-3.91 2.196-5.784 3.213l-.482-.321-.16-.964v-1.767l.642-1.607V65.268l-.482-.803.161-.964.803-1.446 3.856 4.178 5.463-6.267 4.66 3.856 7.391-6.748 5.141 6.106 4.981-4.5L130 66.234l-.161 1.124-1.285 1.125Zm-14.139-9.158-5.945 5.945v10.604l4.981-.482 5.159.482.304-9.801-4.499-6.748Zm9.319 3.534-2.41 3.214v10.283l2.088.321 2.732.964V66.715l-2.41-3.857Zm-18.799 1.768-2.571-1.446-5.463 5.463-.32 10.925 4.498-1.928 3.856-1.285v-11.73Zm0 17.674-8.034 3.695v-4.338l5.142-2.089 2.892-.321V82.3Zm13.497-.643.114-3.695-5.095-.804-4.981.804v3.695h9.962Zm4.98-2.892h-2.41V82.3l1.928 2.088 3.696 2.41v-6.025l-3.214-2.008Z" clip-rule="evenodd"/><path fill="#D8459E" d="M108.294 78.442V77.8l.964-.322 3.374-.482c1.178.054 3.599.16 3.856.16.257 0 1.5.322 2.089.483v.482c-.214.053-.707.16-.964.16s-2.035-.428-2.892-.642l-2.732.16-2.57.322-1.125.321ZM120.975 79.091v-.643l.831.153 1.962.172c.612.27 1.87.821 2.007.87.138.047.696.582.958.843l-.158.455-.298-.243-1.604-.93-1.513-.356-1.479-.174-.706-.147ZM96.939 82.46l-.06-.804.704-.321 2.569-.964 1.93-.965 2.89-.481v.643l-.482.16-2.41.482-2.229 1.075-1.983.804-.929.37ZM96.883 68.644l-.161-.322-.321-.642.16 12.05 1.125-.643-.803-10.443ZM118.409 65.594l-.643 10.283 1.004.161.282-9.962-.282-.625-4.378-6.123h-.161l4.017 5.945.161.321ZM126.17 67.203l-.643 10.282 1.004.161.281-9.962-.281-.625-2.45-4.516-.322.321 2.25 4.017.161.322ZM128.24 91.626v-.643l-4.981-3.535-4.82-2.57-5.945-.804h-2.249l-2.41.322-2.249.16-2.089.643s-4.017 1.874-5.945 2.892l-5.463 3.374.322.482 1.767-.642 5.302-2.893 3.053-1.285 2.571-.964 2.249-.322 2.41-.32h4.178l3.695.803 3.053 1.285 7.551 4.017Z"/><path fill="#D8459E" d="m116.218 87.765-3.213-.964 2.249 1.928-.16 16.228 1.124-.322v-16.87ZM123.391 90.492l2.754 1.828v14.475l-.827.305-2.08 1.066-.306-.152 2.386-1.455V92.93l-1.927-2.438ZM96.917 91.388l2.754-1.529-1.927 2.04v11.778l-.827.322v-12.61Z"/><path fill="#9297F9" d="m115.855 104.633-5.784 1.285.161 3.214 3.213-.643 2.25-.375 4.82 1.607c-.375.589-.514 1.724-.643 1.981-.129.257-.268 3.428-.321 4.981l1.285 5.142 2.249 4.177-1.285-3.695-.321-5.784.964-3.696 2.731-3.374 3.053-.964 2.731.643 3.053 3.052-2.249-3.695-4.178-2.249-2.088.482-2.411 1.285-7.23-3.374Z"/><path fill="#BDC0FA" d="M115.869 143.199v-35.187l-29.063 3.995-.501 30.199 29.564.993Z"/><path fill="#787DE7" d="M115.725 137.736v-29.724l16.871 4.659-.321 30.367-4.178-3.695-4.659 2.088-7.713-3.695Z"/><path fill="#333789" d="m128.729 134.359-7.069 3.053 2.088 4.017 4.981-7.07ZM73.123 139.022l8.104 5.239 1.537-2.186-9.64-3.053ZM90.823 136.131l8.426 7.041 1.537-2.185-9.963-4.856ZM148.292 146.895l-7.231.642 3.053 3.214 4.178-3.856Z"/><path fill="#9297F9" fill-rule="evenodd" d="m149.593 170.35.322-16.549-1.607-6.588-4.177 2.41-4.499-7.712-5.945 4.177-4.981-11.729-4.659 6.267.175 3.856 3.841-5.142 3.857 9.641-.643 9.801-6.588-4.66v2.089l25.708 18.638.482-1.125-.482-2.41-.804-.964Zm-15.103-20.727 4.338-3.053 2.411 4.66-.804 13.496-6.748-4.338.803-10.765Zm9.641 4.178-.643 13.175 5.302 2.892v-16.067l-1.446-2.571-3.213 2.571Z" clip-rule="evenodd"/><path fill="#9297F9" d="m86.933 108.489 4.017-.161-.482 1.928-1.286 2.089-1.446.161-1.767.803.964-4.82Z"/><path fill="#787DE7" d="m110.253 107.527-8.837-4.82 2.571.161 2.089.321 1.446.482 1.446.964 1.125 1.285.16 1.607Z"/><ellipse cx="99.465" cy="114.918" fill="#CDD0FB" rx="10.604" ry="10.926"/><ellipse cx="6.564" cy="8.504" fill="#CDD0FB" rx="6.564" ry="8.504" transform="matrix(-.98869 .15 -.12928 -.9916 135.929 125.066)"/><path fill="#D9DBFF" fill-rule="evenodd" d="m110.035 106.877 1.004 2.779v6.95l-2.209 5.361-4.218 3.574-5.02 1.588-4.42-.198-4.016-2.184-2.41-5.163-.201-5.361 1.406-4.368 2.21-3.375 2.41-2.185 2.008-.992 2.008-.596h2.812l3.615.596 3.013 1.588 2.008 1.986Zm-1.567 3.703-.803-2.249-1.607-1.607-2.41-1.286-2.892-.482h-2.25l-1.606.482-1.607.804-1.928 1.767-1.767 2.732-1.125 3.534.16 4.339 1.929 4.177 3.213 1.767 3.535.161 4.017-1.285 3.374-2.892 1.767-4.339v-5.623ZM122.656 124.777l-.897-2.043-.697-5.343.825-4.327 2.241-3.142 2.935-1.691 2.743-.26 2.695 1.303 2.002 3.743.661 4.103-.428 3.489-1.024 2.802-1.266 1.904-1.138.951-1.178.646-1.733.263-2.288-.12-2.016-.94-1.437-1.338Zm.595-2.994.72 1.655 1.151 1.084 1.615.763 1.83.1 1.387-.21.942-.521.909-.768 1.011-1.539.816-2.265.339-2.822-.534-3.32-1.607-3.031-2.157-1.058-2.195.207-2.347 1.363-1.79 2.539-.654 3.5.564 4.323Z" clip-rule="evenodd"/><path fill="#2B2E6B" d="m99.253 110.021-.739.742.185 4.271 3.696-.743v-.371l2.217.371-1.294 1.3-.739-.557-4.619 1.485v-5.57l-.74-.743.925-2.042 1.108 1.857ZM129.297 114.544l-.483.422-.082 2.629 2.277-.289.017-.228 1.329.328-.844.739-.424-.375-2.871.703.254-3.418-.415-.489.654-1.212.588 1.19Z"/><path fill="#787DE7" d="M87.455 105.047v3.449h.445l-.89.322V104.019l-2.166.516 2.61-3.43v3.942Z"/><path fill="#5F64C3" d="m100.118 209.395.803-.161.643 3.053-.482 7.07-2.41-.804 1.446-9.158ZM93.209 205.095l.803-.204.643 3.876-.482 8.977-2.41-1.02 1.446-11.629ZM85.816 200.973l.804-.25.642 4.748-.482 10.998-2.41-1.25 1.446-14.246Z"/><path fill="#787DE7" d="m159.399 230.119-2.731-1.767-.643 2.892v7.391l3.856-.643-.482-7.873Z"/><path fill="#5F64C3" d="M149.776 228.508c.514-3.985.536-37.865.482-54.307l-1.607-3.696v-17.031l-1.446-2.089v-5.302l2.571-11.889v-3.053l.482-.964.285-3.747-3.498-.913 3.856-2.919.19 3.832.131 3.747.482.964v2.41l1.029 6.018 1.542 7.478-.161 5.624 1.928.803-1.767 6.909-.482 11.247 2.731 2.571-2.731 2.731v55.271l-4.338-1.606.321-2.089Z"/><path fill="#B2B5FF" d="m136.108 314.311 1.928-83.389v-2.57l3.053 5.302 3.535-4.82-.321 8.194h3.374v-8.194l4.659 3.213 4.338-3.213-.16 8.194h5.623v-7.23l4.178 3.856 4.177-3.856-.161 7.712h5.945v-7.712l4.338 4.82 4.981-4.82v7.712h6.748v-7.712l4.499 4.498 4.499-4.498v7.23l6.427.482v-7.712l4.017 4.498 4.177-3.374v6.588l8.034-.482v-6.106l4.338 4.499 4.981-4.499v7.873h6.266v-6.748l3.213 4.017 5.624-4.017v85.96l-112.31-3.696Z"/><path fill="#5F64C3" d="M67.982 120.866h-.322L63 142.396l-5.462-.803 2.731 4.177-3.534 67.887h6.66l1.695-67.244 1.124-.321 6.106-5.945-2.089-19.281h-.482v-1.607l.482-.803v-.803l-.321-.482-.482-.482v-6.427l-4.017 3.856 3.213.803v1.768l-.642.642-.322.804.322.964v1.767Z"/><path fill="#2B2E6B" d="m99.492 143.671 5.945-5.944 9.64 5.944-.642 10.605-10.444 2.249-4.499-2.249v-10.605ZM81.142 144.96l8.676-5.784 9.48 3.856-1.607 13.175-15.264 1.607-1.285-2.25V144.96Z"/><path fill="#2B2E6B" d="m65.269 146.252 7.551-5.623 9.48 3.856-1.607 13.175-15.745 1.768v-.965l.32-12.211Z"/><path fill="#D8459E" d="m100.919 143.52 5.141-5.141-6.105 4.82.964 12.532 1.285-.482-1.285-11.729ZM82.779 145.122l5.141-5.142-6.105 4.821.964 12.532 1.285-.482-1.285-11.729ZM67.003 146.085l5.785-4.659-6.749 4.177-.482 13.175 2.25-.16-.804-12.533Z"/><path fill="#9297F9" fill-rule="evenodd" d="m64.837 158.783.071-13.229 7.713-6.855 8.194 4.659 9.158-7.712 8.195 6.427 7.712-6.909 6.587 4.82.028 2.53-6.455-4.136-6.105 4.79-1.607 1.26-1.558-1.07-6.636-4.558-8.142 6.004-1.016.75-1.286-.64-6.909-3.441-6.909 4.295-1.035 13.015Zm47.791-4.178-.133-12.091.133.085v12.006Zm0 0-11.568 1.01-3.535.308-14.782 1.29-2.892.252-15.014 1.318-.09 1.125 47.881-4.081v-1.222Z" clip-rule="evenodd"/><path fill="#9297F9" d="m80.976 145.554-1.286-.64.16 12.551 2.893-.252-.75-12.409-1.017.75ZM99.935 143.168l-1.607 1.26-1.558-1.07.755 12.565 3.535-.308-1.125-12.447Z"/><path fill="#787DE7" d="m93.519 145.123-3.375-6.588h-.964v1.768l-5.784 8.837-2.892 4.98-.322 4.82-.803 2.411-1.928 1.124v1.286l.482 11.889c.107 2.196.257 6.652 0 6.909-.257.257 16.282-2.463 24.583-3.856v-2.249l-1.125-3.535h1.607l-.482-14.461-.803-.964-2.41-1.446-.322-5.623-5.462-5.302Z"/><path fill="#D4D5F2" fill-rule="evenodd" d="m90.81 135.001 3.534 6.266 2.25 3.695 2.338 2.339.875.875 2.41 3.374.322 2.249.964.804 1.124 1.767-.321 14.139 1.285 1.125v4.981l-.642.964-.322 1.607-27.635 4.498-.482-2.57-.322-1.446-1.124-1.607.482-3.214 1.446-1.124-.804-11.408 2.892-1.928v-5.784l1.286-3.696 4.499-6.748 3.213-4.017.964-3.535 1.125-3.052.643 1.446Zm6.587 15.906.322 4.981 1.124.803.964 1.125 1.928.322v13.496l-1.446.321.482 4.66.643.321-.321 1.125-22.013 3.053V174.847l-.481-1.124-.322-11.087 2.892-.321v-1.446l.482-1.125-.482-3.053.964-3.695 3.696-5.784 4.338-7.552 1.767 4.017 2.41 4.017 3.053 3.213Z" clip-rule="evenodd"/><path fill="#fff" d="M170.49 230.459v-.857l-4.466 2.856-3.889-3.142v.857l3.889 4.285 4.466-3.999ZM156.684 229.17v-.857l-4.809 2.856-4.189-3.142v.857l4.189 4.285 4.809-3.999ZM144.459 229.566v-.911l-3.435 3.035-2.992-3.338v.91l2.992 4.552 3.435-4.248Z"/><path fill="#5F64C3" d="m112.303 139.676 5.8-14.153 6.427 15.746.659 46.809 1.591 128.644-8.75 1.286-7.317-1.286 1.59-100.503v-76.543Z"/><path fill="#787DE7" d="M83.905 213.092v-13.496l-2.731 2.892-2.25-4.66-3.534 87.245h5.141l1.768 1.446-1.125 2.249 1.928.643-1.928 23.458 1.125 1.286v3.695l28.439-2.089 1.928-101.223h-2.892l-3.857-3.053-2.731 3.053-.482-4.499-1.767-.803-.804 9.158-2.41-.803.964-11.247-3.053 3.374-.642-4.017-.964-.964-.643 11.729-2.731-1.446.642-10.283v-.643l-3.053 1.607-1.606-4.82-.322 12.854-2.41-.643Z"/><path fill="#CDD0FB" d="M118.137 138.051v179.952l8.676-1.285-2.249-175.454-6.427-3.213Z"/><path fill="#7E84FA" d="M118.116 138.217v-12.694l-5.784 14.14 5.784-1.446Z"/><path fill="#CDD0FB" d="M118.125 138.377v-12.854l6.426 15.746-6.426-2.892Z"/><path fill="#fff" d="m98.715 206.984.16-1.125-3.052 2.41-.643-2.731-1.125-.804 1.607 4.981 3.053-2.731ZM106.085 211.966l-.161-.482-2.571 1.928-.642-3.374-1.768-.804 2.089 5.463 3.053-2.731ZM91.28 204.418v-.964l-2.892.803-.643-2.731-1.124-.803 1.606 4.98 3.053-1.285ZM83.915 200.399v-1.607l-2.732 2.892-1.125-3.053-1.124-.803 2.25 4.981 2.73-2.41Z"/><path fill="#D8459E" d="m141.56 151.265-2.57-4.538 1.767 4.376-.803 13.292.964.648.642-13.778ZM131.899 148.819l-3.856-9.319 2.892 9.158-.643 9.48.964.803.643-10.122Z"/><path fill="#9297F9" d="m65.712 159.745.321-14.3-.803.643-.482 13.818.964-.161Z"/></mask><g mask="url(#a)"><path fill="#fff" d="m116.97 170.76-3.534-4.338 1.433-1.125c.933 1.017 2.801 3.085 2.801 3.213 0 .129 3.736-2.088 5.603-3.213v1.125l-6.303 4.338Z"/><path fill="#6D73FF" d="m109.647 165.938-2.802-1.446-.875 2.571v7.391l4.202-.643-.525-7.873ZM91.086 165.623l-3.151-1.768-.526 2.893v7.39l4.203-.642-.526-7.873ZM74.923 165.299l-2.976-1.768-.7 2.892v7.391l4.201-.642-.525-7.873ZM57.783 165.299l-2.977-1.768-.7 2.892v7.391l4.202-.642-.525-7.873ZM41.346 165.623l-2.976-1.768-.7 2.893v7.39l4.202-.642-.526-7.873ZM26.288 164.334l-2.977-1.768-.7 2.893v7.39l4.202-.642-.525-7.873ZM13.002 165.181l-3.271-1.786-.77 2.922v7.469l4.619-.649-.578-7.956Z"/><path fill="#BDC0FA" d="m.885 248.526 2.101-83.389v-2.571l3.327 5.303 3.852-4.821-.35 8.195h3.677v-8.195l5.078 3.214 4.727-3.214-.175 8.195h6.128v-7.231l4.553 3.857 4.552-3.857-.175 7.713h6.479v-7.713l4.727 4.821 5.428-4.821v7.713h7.355v-7.713l4.902 4.499 4.903-4.499v7.231l7.004.482v-7.713l4.377 4.499 4.553-3.374v6.588l8.754-.482v-6.106l4.728 4.499 5.428-4.499v7.873h6.829v-6.748l3.502 4.017 6.128-4.017v85.959L.885 248.526Z"/><path fill="#fff" d="M106.829 165.457v-.964l-5.428 3.214-4.727-3.535v.964l4.727 4.82 5.428-4.499ZM87.927 165.141v-1.286l-4.692 3.535-4.238-3.535v.965l4.238 4.82 4.692-4.499ZM71.998 164.496v-.964l-5.24 3.214-4.565-3.535v.964l4.564 4.82 5.24-4.499ZM54.84 164.496v-.964l-5.429 3.214-4.727-3.535v.964l4.727 4.82 5.428-4.499ZM38.351 164.674v-.857l-4.866 2.856-4.239-3.142v.857l4.239 4.285 4.866-3.999ZM23.299 163.385v-.857l-5.241 2.856-4.565-3.142v.857l4.565 4.285 5.24-3.999ZM10.113 163.972v-1.154l-3.875 3.087-3.26-3.339v.911l3.26 4.552 3.875-4.057Z"/><path fill="#7F84FF" d="m114.534 12.948-3.464-2.327-.126 3.07.626.51-.063 1.535-.346.553.577 3.664-1.06.2-1.283-.296.635-3.615-.458-.666.06-1.454.501-.384.1-2.423-.307-.417-3.677 2.842 1.67-5.19-4.269-2.442 5.042-.601L110.18.794l1.685 4.277 5.028-.278-4.185 3.387 1.826 4.768Z"/><path fill="#B1B5FF" d="m110.145.785 1.765 4.28-.928.933-.925.852.088-6.065Z"/><path fill="#6D73FF" d="m110.127.786-1.411 4.797.623.592.686.902.102-6.29Z"/><path fill="#6D73FF" d="m110.06 6.848-.538-.67-.785-.598-2.191.152-2.847.368 6.361.748ZM109.882 6.912l.734.448.941.297 1.266.528 4.024-3.394-6.965 2.121Z"/><path fill="#6D73FF" d="m110.06 6.848-2.099 1.855-.648 1.996-1.015 3.033 2.001-3.397 1.761-3.487ZM110.06 6.848l.275 3.167.7.675 3.471 2.166-2.526-3.31-1.92-2.698Z"/><path fill="#5357AD" d="m110.045 6.85-2.099 1.856-1.027-.609-3.235-1.994 6.361.747Z"/><path fill="#5357AD" d="m110.035 6.855.273 3.167-.107.643-3.93 3.074 3.764-6.884Z"/><path fill="#B1B5FF" d="m110.032 6.85 2.778 1.328.434 1.232 1.153 3.445-2.378-3.172-1.987-2.833ZM110.06 6.848l1.774-1.796 1.302.1 3.806-.367-6.882 2.063Z"/><path fill="#6D73FF" d="m119.653 63.805-7.905-43.855-.975.122-1.367-.218-8.529 44.069 3.446.789 1.438.463 1.642-.58 4.173.82 2.467-.95 1.131.046 1.282.296 1.06-.2 1.077-.603 1.06-.199Z"/><path fill="#333789" d="m109.957 10.9.427-.549-.097.4.151.25.138.572-.089 2.18-.098.401-.282.96.364.986-.497 2.245-.201.962-.017.404.404.017-.252.232-.482-.1.319-1.848.316-1.768-.458-.666.059-1.454.502-.383.099-2.424-.306-.417Z"/><path fill="#B1B5FF" d="M117.36 64.518c.438-.17 1.893-.796 2.214-.718l-7.985-43.858-.488.06 6.259 44.516ZM111.669 65.34l-4.015-.731.053-1.292 2.593-43.342.32.094.326-.068 3.691 44.005-2.968 1.335ZM100.81 63.757c2.863-14.527 8.593-43.645 8.603-43.903l.724.11-4.527 45.123-4.8-1.33Z"/><path fill="#7F84FF" d="m128.436 65.733-4.302-6.415-4.781 4.49-4.78-6.093-4.781 3.047-2.231 3.527-1.594-1.924-3.824-1.603-5.1 5.612-4.302-3.528v43.136l7.873-3.118 6.748 2.156 2.571 3.046 5.914-3.046 7.331 3.046 1.593-.962 3.028-.641.637-40.73Z"/><path fill="#2B2E6B" d="m108.441 65.273 5.945-5.945 4.177 6.266-.803 10.283-4.177-.482-5.142.482V65.273ZM122.932 143.996l5.945-5.945 4.017 7.551-.964 14.461-4.499-3.214-4.499-2.249v-10.604ZM133.216 150.425l5.945-5.945 4.017 7.552-.964 14.461-4.499-3.214-4.499-2.249v-10.605Z"/><path fill="#2B2E6B" d="m141.86 155.57 5.945-5.945 4.017 7.552-.964 14.46-4.499-3.213-4.499-2.25V155.57ZM109.082 96.441v-8.837l3.535-.803 2.731 1.767-.321 16.228-.964.321-4.82 1.125-.161-9.8ZM120.682 99.868v-8.614l2.57-.762 2.25 1.685-.238 14.92-.741.307-1.431.762-2.41-1.069v-7.23ZM102.363 99.235V90.62l-2.742-.762-2.4 1.685.172 12.133 1.028-.482 2.496-.321 1.446.16v-3.8ZM96.737 68.483l5.623-5.624 3.535 1.446v12.372l-3.535 1.607-5.462 1.125-.161-10.926ZM120.334 66.881l3.535-4.338 2.249 4.338v10.765l-.803-.16h-4.981V66.88Z"/><path fill="#333789" d="m124.043 59.164-6.748 2.089 2.089 2.57 4.659-4.659ZM139.647 141.91l-8.355.964 2.089 4.017 6.266-4.981ZM114.394 57.234l-7.551 5.303.16 1.767 7.391-7.07Z"/><path fill="#454AAC" d="m102.372 59.965 4.499 2.57.161 1.929-4.66-4.5Z"/><path fill="#333789" d="M99.984 62.86h-7.39l4.177 3.695 3.213-3.696Z"/><path fill="#BDC0FA" d="m151.852 312.222-24.904 4.017h-3.695l-4.82-4.017-8.195-24.422-8.676-32.295-44.827-12.211v-22.333c.91-24.583 3.534-75.195 3.534-75.195s8.623-.482 12.533 0l31.974-3.856 16.227 9.801 29.243 19.602 1.606-6.427V312.222Z"/><path fill="#B1B5FF" fill-rule="evenodd" d="M128.554 68.482V87.9l.321.184v.803l-.803 2.25-6.748-3.696-3.696-2.088-6.427-.804-4.499.643-2.249.482c-1.982.91-5.977 2.763-6.106 2.892-.128.129-3.91 2.196-5.784 3.213l-.482-.321-.16-.964v-1.767l.642-1.607V65.268l-.482-.803.161-.964.803-1.446 3.856 4.178 5.463-6.267 4.66 3.856 7.391-6.748 5.141 6.106 4.981-4.5L130 66.234l-.161 1.124-1.285 1.125Zm-14.139-9.158-5.945 5.945v10.604l4.981-.482 5.159.482.304-9.801-4.499-6.748Zm9.319 3.534-2.41 3.214v10.283l2.088.321 2.732.964V66.715l-2.41-3.857Zm-18.799 1.768-2.571-1.446-5.463 5.463-.32 10.925 4.498-1.928 3.856-1.285v-11.73Zm0 17.674-8.034 3.695v-4.338l5.142-2.089 2.892-.321V82.3Zm13.497-.643.114-3.695-5.095-.804-4.981.804v3.695h9.962Zm4.98-2.892h-2.41V82.3l1.928 2.088 3.696 2.41v-6.025l-3.214-2.008Z" clip-rule="evenodd"/><path fill="#FF009A" d="M108.294 78.442V77.8l.964-.322 3.374-.482c1.178.054 3.599.16 3.856.16.257 0 1.5.322 2.089.483v.482c-.214.053-.707.16-.964.16s-2.035-.428-2.892-.642l-2.732.16-2.57.322-1.125.321ZM120.975 79.091v-.643l.831.153 1.962.172c.612.27 1.87.821 2.007.87.138.047.696.582.958.843l-.158.455-.298-.243-1.604-.93-1.513-.356-1.479-.174-.706-.147ZM96.939 82.46l-.06-.804.704-.321 2.569-.964 1.93-.965 2.89-.481v.643l-.482.16-2.41.482-2.229 1.075-1.983.804-.929.37ZM96.883 68.644l-.161-.322-.321-.642.16 12.05 1.125-.643-.803-10.443ZM118.409 65.594l-.643 10.283 1.004.161.282-9.962-.282-.625-4.378-6.123h-.161l4.017 5.945.161.321ZM126.17 67.203l-.643 10.282 1.004.161.281-9.962-.281-.625-2.45-4.516-.322.321 2.25 4.017.161.322ZM128.24 91.626v-.643l-4.981-3.535-4.82-2.57-5.945-.804h-2.249l-2.41.322-2.249.16-2.089.643s-4.017 1.874-5.945 2.892l-5.463 3.374.322.482 1.767-.642 5.302-2.893 3.053-1.285 2.571-.964 2.249-.322 2.41-.32h4.178l3.695.803 3.053 1.285 7.551 4.017Z"/><path fill="#FF009A" d="m116.218 87.765-3.213-.964 2.249 1.928-.16 16.228 1.124-.322v-16.87ZM123.391 90.492l2.754 1.828v14.475l-.827.305-2.08 1.066-.306-.152 2.386-1.455V92.93l-1.927-2.438ZM96.917 91.388l2.754-1.529-1.927 2.04v11.778l-.827.322v-12.61Z"/><path fill="#B1B5FF" d="m115.855 104.633-5.784 1.285.161 3.214 3.213-.643 2.25-.375 4.82 1.607c-.375.589-.514 1.724-.643 1.981-.129.257-.268 3.428-.321 4.981l1.285 5.142 2.249 4.177-1.285-3.695-.321-5.784.964-3.696 2.731-3.374 3.053-.964 2.731.643 3.053 3.052-2.249-3.695-4.178-2.249-2.088.482-2.411 1.285-7.23-3.374Z"/><path fill="#BDC0FA" d="M115.869 143.199v-35.187l-29.063 3.995-.501 30.199 29.564.993Z"/><path fill="#6D73FF" d="M115.725 137.736v-29.724l16.871 4.659-.321 30.367-4.178-3.695-4.659 2.088-7.713-3.695Z"/><path fill="#333789" d="m128.729 134.359-7.069 3.053 2.088 4.017 4.981-7.07ZM73.123 139.022l8.104 5.239 1.537-2.186-9.64-3.053ZM90.823 136.131l8.426 7.041 1.537-2.185-9.963-4.856ZM148.292 146.895l-7.231.642 3.053 3.214 4.178-3.856Z"/><path fill="#B1B5FF" fill-rule="evenodd" d="m149.593 170.35.322-16.549-1.607-6.588-4.177 2.41-4.499-7.712-5.945 4.177-4.981-11.729-4.659 6.267.175 3.856 3.841-5.142 3.857 9.641-.643 9.801-6.588-4.66v2.089l25.708 18.638.482-1.125-.482-2.41-.804-.964Zm-15.103-20.727 4.338-3.053 2.411 4.66-.804 13.496-6.748-4.338.803-10.765Zm9.641 4.178-.643 13.175 5.302 2.892v-16.067l-1.446-2.571-3.213 2.571Z" clip-rule="evenodd"/><path fill="#B1B5FF" d="m86.933 108.489 4.017-.161-.482 1.928-1.286 2.089-1.446.161-1.767.803.964-4.82Z"/><path fill="#6D73FF" d="m110.253 107.527-8.837-4.82 2.571.161 2.089.321 1.446.482 1.446.964 1.125 1.285.16 1.607Z"/><ellipse cx="99.465" cy="114.918" fill="#CDD0FB" rx="10.604" ry="10.926"/><ellipse cx="6.564" cy="8.504" fill="#CDD0FB" rx="6.564" ry="8.504" transform="matrix(-.98869 .15 -.12928 -.9916 135.929 125.066)"/><path fill="#D9DBFF" fill-rule="evenodd" d="m110.035 106.877 1.004 2.779v6.95l-2.209 5.361-4.218 3.574-5.02 1.588-4.42-.198-4.016-2.184-2.41-5.163-.201-5.361 1.406-4.368 2.21-3.375 2.41-2.185 2.008-.992 2.008-.596h2.812l3.615.596 3.013 1.588 2.008 1.986Zm-1.567 3.703-.803-2.249-1.607-1.607-2.41-1.286-2.892-.482h-2.25l-1.606.482-1.607.804-1.928 1.767-1.767 2.732-1.125 3.534.16 4.339 1.929 4.177 3.213 1.767 3.535.161 4.017-1.285 3.374-2.892 1.767-4.339v-5.623ZM122.656 124.777l-.897-2.043-.697-5.343.825-4.327 2.241-3.142 2.935-1.691 2.743-.26 2.695 1.303 2.002 3.743.661 4.103-.428 3.489-1.024 2.802-1.266 1.904-1.138.951-1.178.646-1.733.263-2.288-.12-2.016-.94-1.437-1.338Zm.595-2.994.72 1.655 1.151 1.084 1.615.763 1.83.1 1.387-.21.942-.521.909-.768 1.011-1.539.816-2.265.339-2.822-.534-3.32-1.607-3.031-2.157-1.058-2.195.207-2.347 1.363-1.79 2.539-.654 3.5.564 4.323Z" clip-rule="evenodd"/><path fill="#2B2E6B" d="m99.253 110.021-.739.742.185 4.271 3.696-.743v-.371l2.217.371-1.294 1.3-.739-.557-4.619 1.485v-5.57l-.74-.743.925-2.042 1.108 1.857ZM129.297 114.544l-.483.422-.082 2.629 2.277-.289.017-.228 1.329.328-.844.739-.424-.375-2.871.703.254-3.418-.415-.489.654-1.212.588 1.19Z"/><path fill="#6D73FF" d="M87.455 105.047v3.449h.445l-.89.322V104.019l-2.166.516 2.61-3.43v3.942Z"/><path fill="#5F64C3" d="m100.118 209.395.803-.161.643 3.053-.482 7.07-2.41-.804 1.446-9.158ZM93.209 205.095l.803-.204.643 3.876-.482 8.977-2.41-1.02 1.446-11.629ZM85.816 200.973l.804-.25.642 4.748-.482 10.998-2.41-1.25 1.446-14.246Z"/><path fill="#6D73FF" d="m159.399 230.119-2.731-1.767-.643 2.892v7.391l3.856-.643-.482-7.873Z"/><path fill="#5F64C3" d="M149.776 228.508c.514-3.985.536-37.865.482-54.307l-1.607-3.696v-17.031l-1.446-2.089v-5.302l2.571-11.889v-3.053l.482-.964.285-3.747-3.498-.913 3.856-2.919.19 3.832.131 3.747.482.964v2.41l1.029 6.018 1.542 7.478-.161 5.624 1.928.803-1.767 6.909-.482 11.247 2.731 2.571-2.731 2.731v55.271l-4.338-1.606.321-2.089Z"/><path fill="#B2B5FF" d="m136.108 314.311 1.928-83.389v-2.57l3.053 5.302 3.535-4.82-.321 8.194h3.374v-8.194l4.659 3.213 4.338-3.213-.16 8.194h5.623v-7.23l4.178 3.856 4.177-3.856-.161 7.712h5.945v-7.712l4.338 4.82 4.981-4.82v7.712h6.748v-7.712l4.499 4.498 4.499-4.498v7.23l6.427.482v-7.712l4.017 4.498 4.177-3.374v6.588l8.034-.482v-6.106l4.338 4.499 4.981-4.499v7.873h6.266v-6.748l3.213 4.017 5.624-4.017v85.96l-112.31-3.696Z"/><path fill="#5F64C3" d="M67.982 120.866h-.322L63 142.396l-5.462-.803 2.731 4.177-3.534 67.887h6.66l1.695-67.244 1.124-.321 6.106-5.945-2.089-19.281h-.482v-1.607l.482-.803v-.803l-.321-.482-.482-.482v-6.427l-4.017 3.856 3.213.803v1.768l-.642.642-.322.804.322.964v1.767Z"/><path fill="#2B2E6B" d="m99.492 143.671 5.945-5.944 9.64 5.944-.642 10.605-10.444 2.249-4.499-2.249v-10.605ZM81.142 144.96l8.676-5.784 9.48 3.856-1.607 13.175-15.264 1.607-1.285-2.25V144.96Z"/><path fill="#2B2E6B" d="m65.269 146.252 7.551-5.623 9.48 3.856-1.607 13.175-15.745 1.768v-.965l.32-12.211Z"/><path fill="#FF009A" d="m100.919 143.52 5.141-5.141-6.105 4.82.964 12.532 1.285-.482-1.285-11.729ZM82.779 145.122l5.141-5.142-6.105 4.821.964 12.532 1.285-.482-1.285-11.729ZM67.003 146.085l5.785-4.659-6.749 4.177-.482 13.175 2.25-.16-.804-12.533Z"/><path fill="#B1B5FF" fill-rule="evenodd" d="m64.837 158.783.071-13.229 7.713-6.855 8.194 4.659 9.158-7.712 8.195 6.427 7.712-6.909 6.587 4.82.028 2.53-6.455-4.136-6.105 4.79-1.607 1.26-1.558-1.07-6.636-4.558-8.142 6.004-1.016.75-1.286-.64-6.909-3.441-6.909 4.295-1.035 13.015Zm47.791-4.178-.133-12.091.133.085v12.006Zm0 0-11.568 1.01-3.535.308-14.782 1.29-2.892.252-15.014 1.318-.09 1.125 47.881-4.081v-1.222Z" clip-rule="evenodd"/><path fill="#B1B5FF" d="m80.976 145.554-1.286-.64.16 12.551 2.893-.252-.75-12.409-1.017.75ZM99.935 143.168l-1.607 1.26-1.558-1.07.755 12.565 3.535-.308-1.125-12.447Z"/><path fill="#6D73FF" d="m93.519 145.123-3.375-6.588h-.964v1.768l-5.784 8.837-2.892 4.98-.322 4.82-.803 2.411-1.928 1.124v1.286l.482 11.889c.107 2.196.257 6.652 0 6.909-.257.257 16.282-2.463 24.583-3.856v-2.249l-1.125-3.535h1.607l-.482-14.461-.803-.964-2.41-1.446-.322-5.623-5.462-5.302Z"/><path fill="#D4D5F2" fill-rule="evenodd" d="m90.81 135.001 3.534 6.266 2.25 3.695 2.338 2.339.875.875 2.41 3.374.322 2.249.964.804 1.124 1.767-.321 14.139 1.285 1.125v4.981l-.642.964-.322 1.607-27.635 4.498-.482-2.57-.322-1.446-1.124-1.607.482-3.214 1.446-1.124-.804-11.408 2.892-1.928v-5.784l1.286-3.696 4.499-6.748 3.213-4.017.964-3.535 1.125-3.052.643 1.446Zm6.587 15.906.322 4.981 1.124.803.964 1.125 1.928.322v13.496l-1.446.321.482 4.66.643.321-.321 1.125-22.013 3.053V174.847l-.481-1.124-.322-11.087 2.892-.321v-1.446l.482-1.125-.482-3.053.964-3.695 3.696-5.784 4.338-7.552 1.767 4.017 2.41 4.017 3.053 3.213Z" clip-rule="evenodd"/><path fill="#fff" d="M170.49 230.459v-.857l-4.466 2.856-3.889-3.142v.857l3.889 4.285 4.466-3.999ZM156.684 229.17v-.857l-4.809 2.856-4.189-3.142v.857l4.189 4.285 4.809-3.999ZM144.459 229.566v-.911l-3.435 3.035-2.992-3.338v.91l2.992 4.552 3.435-4.248Z"/><path fill="#5F64C3" d="m112.303 139.676 5.8-14.153 6.427 15.746.659 46.809 1.591 128.644-8.75 1.286-7.317-1.286 1.59-100.503v-76.543Z"/><path fill="#6D73FF" d="M83.905 213.092v-13.496l-2.731 2.892-2.25-4.66-3.534 87.245h5.141l1.768 1.446-1.125 2.249 1.928.643-1.928 23.458 1.125 1.286v3.695l28.439-2.089 1.928-101.223h-2.892l-3.857-3.053-2.731 3.053-.482-4.499-1.767-.803-.804 9.158-2.41-.803.964-11.247-3.053 3.374-.642-4.017-.964-.964-.643 11.729-2.731-1.446.642-10.283v-.643l-3.053 1.607-1.606-4.82-.322 12.854-2.41-.643Z"/><path fill="#CDD0FB" d="M118.137 138.051v179.952l8.676-1.285-2.249-175.454-6.427-3.213Z"/><path fill="#7E84FA" d="M118.116 138.217v-12.694l-5.784 14.14 5.784-1.446Z"/><path fill="#CDD0FB" d="M118.125 138.377v-12.854l6.426 15.746-6.426-2.892Z"/><path fill="#fff" d="m98.715 206.984.16-1.125-3.052 2.41-.643-2.731-1.125-.804 1.607 4.981 3.053-2.731ZM106.085 211.966l-.161-.482-2.571 1.928-.642-3.374-1.768-.804 2.089 5.463 3.053-2.731ZM91.28 204.418v-.964l-2.892.803-.643-2.731-1.124-.803 1.606 4.98 3.053-1.285ZM83.915 200.399v-1.607l-2.732 2.892-1.125-3.053-1.124-.803 2.25 4.981 2.73-2.41Z"/><path fill="#FF009A" d="m141.56 151.265-2.57-4.538 1.767 4.376-.803 13.292.964.648.642-13.778ZM131.899 148.819l-3.856-9.319 2.892 9.158-.643 9.48.964.803.643-10.122Z"/><path fill="#B1B5FF" d="m65.712 159.745.321-14.3-.803.643-.482 13.818.964-.161Z"/><path fill="url(#b)" d="M-63.115-12.832h223v262h-223z" opacity=".9" style="mix-blend-mode:hard-light"/></g><defs><linearGradient id="b" x1="111.002" x2="-73.765" y1="182.291" y2="104.003" gradientUnits="userSpaceOnUse"><stop stop-color="#E7465F"/><stop offset=".281" stop-color="#9951D0"/><stop offset=".563" stop-color="#584EB9"/><stop offset="1" stop-color="#292A67"/></linearGradient></defs></svg>