<svg xmlns="http://www.w3.org/2000/svg" width="224" height="199" fill="none" viewBox="0 0 224 199"><mask id="a" width="296" height="220" x="26" y="14" maskUnits="userSpaceOnUse" style="mask-type:alpha"><path fill="#9B1566" d="m32.49 154.488 7.034-.241 6.257 1.514 14.816 4.468-18.399-2.067-9.767-3.07.058-.604Z"/><path fill="#D8459E" d="m48.554 158.773 12.054 1.459-14.148 68.153-5.078-1.096 11.471-65.666-4.3-2.85Z"/><path fill="#4C51BE" d="m145.273 24.139 29.856-9.335 1.796 3.525 23.419 3.767S189.6 45.151 179.147 87.44c-4.756 17.837-8.601 51.613-8.601 51.613l4.229.405.174-1.813.72-1.15 12.357 1.488-.376 3.927 2.114.203.678-3.899 11.997 2.064-.376 3.927 2.417.232.347-3.625 11.781 1.128-.35 10.027 38.796 5.544 15.117 4.497-.521 5.437 31.029 3.887-.116 1.208 9.063.868 11.261 6.566.378 18.328-18.543-.557-32.446 10.917-21.146-2.026-60.329 15.563-28.396-2.72-66.557 13.747-47.428-4.542-5.049-1.398 7.878-44.06-5.004-5.053s-4.3-2.85-4.267-9.554c.032-6.704 4.68-7.478 4.68-7.478l-3.034-3.339-9.465-3.041-5.257-15.137 6.01-21.374 16.654-17.916-.401-2.173-.72 1.15-3.526 1.797-7.565-3.773 4.194-15.146 3.8-1.466 18.308 9.375-5.67 30.553 53.453 8.473s6.191-35.99 9.897-52.403c3.706-16.412 23.937-52.582 23.937-52.582Z"/><path fill="#9297F9" d="m48.166 137.088 2.967-5.508 2.217-4.056 99.773 15.043 64.027 9.485 35.171 5.198 17.808 5.059 1.458 16.602-227.872-30.36 2.246-4.357-.906-.087 1.829-3.179-.604-.057 2.793-3.696-.907-.087Z"/><path fill="#D8459E" d="m175.094 15.104 1.796 3.525-9.577 20.423-12.245 32.362s6.184-23.187 8.662-29.961c2.478-6.775 11.364-26.35 11.364-26.35ZM37.368 97.029l4.647-.775 5.81 2.996-2.892 1.552-7.565-3.773ZM51.233 95.316l.758 2.923.562 2.387-15.056 17.154-3.176 20.426 5.17 16.044-7.366.514-5.257-15.137 6.01-21.375 16.654-17.916-.343-2.776 2.044-2.244ZM45.17 149l226.42 29.611-5.11 5.608-204.756-26.622L45.171 149Z"/><path fill="#9B1566" d="m206.764 174.53 62.115 7.168-2.375 2.516-176.446-22.995 116.706 13.311Z"/><path fill="#D8459E" d="m79.08 178.287-11.63-.337 9.097 2.426 9.63.923 3.377-2.787 4.54-8.363-9.236 8.691-5.778-.553Z"/><path fill="#9297F9" d="m63.843 162.743 20.466-5.121.963.565-6.975 7.884 6.716-5.187 1.689-1.394 13.335 2.832 15.473 17.032-16.953-11.342-4.058 7.354-3.596-.65-1.008-3.031-.173.923-4.919 6.707-17.006-1.032-3.741-1.524-4.713-3.562.48-5.007 4.02-5.447Z"/><path fill="#D8459E" d="m92.793 167.886 7.18-1.751-5.368 1.925-2.735 3.092-2.275 4.659 1.34-4.444 1.858-3.481ZM104.314 181.919l-11.63-.336 9.097 2.426 9.63.923 3.377-2.787 4.539-8.363-9.235 8.691-5.778-.554Z"/><path fill="#9297F9" d="m89.166 166.083 20.467-5.121.962.565-6.975 7.884 6.717-5.188 1.688-1.393 13.335 2.832 15.474 17.032-16.953-11.342-4.058 7.353-3.596-.649-1.008-3.031-.174.923-4.516 6.565-17.408-.89-3.742-1.524-4.712-3.562.48-5.008 4.02-5.446Z"/><path fill="#787DE7" d="m141.175 182.728.991-2.238c.133-.298-10.774-11.528-16.244-17.105l-16.49-2.357-6.975 7.884.545 10.548 7.098 3.013 6.643-4.418.278-6.971-3.831-4.643-5.192 1.447-2.131 6.016 3.557 3.45 3.303-2.016-.201-1.963-1.652 1.008-2.585-1.414 3.872-3.905 3.061 4.569-2.754 4.402-3.614 1.208-4.364-3.139.737-7.704 6.754-5.573 13.261 3.602 15.933 16.299Z"/><path fill="#D8459E" d="m52.71 121.675 102.132 15.879-.318 3.323-1.208-.116-.592 2.992-2.648 2.185-3.58-4.001-3.914 2.674-3.307-3.671-4.159 2.041-3.335-3.368-4.519 2.616-3.249-4.275-4.518 2.616-3.336-3.368-4.49 2.314-3.667-3.095-4.187 2.343-3.609-3.699-4.188 2.342-3.638-3.397-4.518 2.616-3.25-4.274-4.849 2.889-3.22-4.577-4.576 3.221-3.58-4.002-4.577 3.22-2.975-3.943-4.85 2.889-4.833-.463 1.559-9.911Z"/><path fill="#787DE7" d="m52.812 120.468 174.141 27.958 2.272 1.742.187 1.237-12.328-1.791-42.334-6.798-20.154-2.844-1.208-.116-.562 2.69-2.649 2.185-3.58-4.001-3.914 2.674-3.307-3.671-4.158 2.041-3.336-3.368-4.519 2.616-3.249-4.275-4.518 2.616-3.336-3.368-4.49 2.314-3.667-3.095-4.187 2.343-3.609-3.699-4.188 2.342-3.637-3.397-4.519 2.616-3.249-4.274-4.85 2.889-3.22-4.577-4.576 3.221-3.58-4.002-4.577 3.22-2.975-3.943-4.85 2.889-4.833-.463 1.559-9.911Z"/><path fill="#D8459E" d="m153.389 139.857 21.361 2.96-.173 1.813-4.23-.405-17.463-2.282.505-2.086ZM184.337 144.642l21.361 2.961-.173 1.812-4.229-.405-17.464-2.282.505-2.086ZM205.963 147.935l23.447 3.465-4.618.473-1.238.186-18.096-2.038.505-2.086Z"/><path fill="#D8459E" d="m174.217 151.6.843-15.162 12.356 1.488-1.748 15.075-6.058 2.774-5.393-4.175ZM189.243 153.651l.842-15.163 12.357 1.489-1.748 15.075-6.058 2.773-5.393-4.174ZM204.314 155.705l.842-15.162 12.357 1.488-1.749 15.076-6.058 2.773-5.392-4.175Z"/><path fill="#BDC0FA" d="m174.822 151.658.843-15.162 12.356 1.488-1.748 15.076-6.058 2.773-5.393-4.175ZM189.871 153.705l.842-15.162 12.357 1.488-1.749 15.076-6.058 2.773-5.392-4.175ZM204.93 155.76l.842-15.162 12.357 1.488-1.749 15.076-6.058 2.773-5.392-4.175Z"/><path fill="#D8459E" d="m134.354 186.626-11.63-.336 9.098 2.426 9.63.923 3.377-2.787 4.539-8.363-9.235 8.691-5.779-.554Z"/><path fill="#9297F9" d="m119.185 170.786 20.164-5.15 1.264.594-6.975 7.884 6.717-5.187 1.689-1.394 13.334 2.832 15.474 17.032-16.953-11.342-4.058 7.354-3.596-.65-1.008-3.031-.174.923-4.516 6.565-17.408-.89-3.742-1.524-4.712-3.562.734-4.482 3.766-5.972Z"/><path fill="#787DE7" d="m171.215 187.435.992-2.238c.132-.298-10.774-11.528-16.244-17.105l-16.49-2.357-6.975 7.884.545 10.548 7.097 3.013 6.643-4.418.279-6.97-3.831-4.644-5.193 1.447-2.131 6.016 3.557 3.45 3.303-2.016-.201-1.963-1.651 1.008-2.586-1.414 3.873-3.905 3.061 4.569-2.754 4.402-3.614 1.208-4.365-3.139.738-7.704 6.754-5.573 13.261 3.602 15.932 16.299Z"/><path fill="#D8459E" d="m163.454 187.467-9.121-.264 7.135 1.903 7.552.723 2.648-2.185 1.527-3.207-5.21 3.464-4.531-.434Z"/><path fill="#9297F9" d="m151.531 175.05 15.927-3.963.877.389-5.47 6.183 5.268-4.068 1.324-1.093 10.457 2.221 12.135 13.357-12.855-12.206-4.345.803-4.833-.463 2.429 3.282-.62 3.294-3.542 5.148-13.652-.698-2.934-1.195-3.695-2.793.376-3.927 3.153-4.271Z"/><path fill="#787DE7" d="m192.36 188.101.778-1.754c.103-.234-8.45-9.041-12.739-13.415l-12.932-1.848-5.47 6.183.427 8.272 5.566 2.362 5.21-3.464.218-5.466-3.005-3.642-4.071 1.135-1.672 4.717 2.79 2.707 2.59-1.582-.157-1.539-1.295.791-2.028-1.109 3.037-3.063 2.4 3.584-2.159 3.451-2.835.948-3.422-2.462.578-6.042 5.297-4.37 10.399 2.825 12.495 12.781Z"/><path fill="#D8459E" d="m149.994 175.191 7.18-1.751-5.367 1.925-2.735 3.091-2.276 4.66 1.34-4.444 1.858-3.481ZM118.06 171.222l7.179-1.751-5.367 1.925-2.735 3.092-2.275 4.659 1.34-4.444 1.858-3.481ZM95.156 168.418l7.18-1.752-5.367 1.925-2.735 3.092-2.275 4.66 1.34-4.445 1.857-3.48Z"/><path fill="#787DE7" d="m100.793 163.182 2.806-.654-3.011-2.475-16.49-2.357-6.976 7.884.545 10.548 7.098 3.013 6.643-4.418.279-6.971-3.832-4.643-5.192 1.447-2.131 6.016 3.557 3.45 3.303-2.016-.201-1.963-1.651 1.008-2.586-1.414 3.872-3.905 3.062 4.569-2.755 4.402-3.614 1.208-4.364-3.139.738-7.704 6.753-5.573 13.261 3.602.886.085Z"/></mask><g mask="url(#a)"><path fill="#9B1566" d="m32.49 154.488 7.034-.241 6.257 1.514 14.816 4.468-18.399-2.067-9.767-3.07.058-.604Z"/><path fill="#FF009A" d="m48.554 158.773 12.054 1.459-14.148 68.153-5.078-1.096 11.471-65.666-4.3-2.85Z"/><path fill="#7F84FF" d="m145.273 24.139 29.856-9.335 1.796 3.525 23.419 3.767S189.6 45.151 179.147 87.44c-4.756 17.837-8.601 51.613-8.601 51.613l4.229.405.174-1.813.72-1.15 12.357 1.488-.376 3.927 2.114.203.678-3.899 11.997 2.064-.376 3.927 2.417.232.347-3.625 11.781 1.128-.35 10.027 38.796 5.544 15.117 4.497-.521 5.437 31.029 3.887-.116 1.208 9.063.868 11.261 6.566.378 18.328-18.543-.557-32.446 10.917-21.146-2.026-60.329 15.563-28.396-2.72-66.557 13.747-47.428-4.542-5.049-1.398 7.878-44.06-5.004-5.053s-4.3-2.85-4.267-9.554c.032-6.704 4.68-7.478 4.68-7.478l-3.034-3.339-9.465-3.041-5.257-15.137 6.01-21.374 16.654-17.916-.401-2.173-.72 1.15-3.526 1.797-7.565-3.773 4.194-15.146 3.8-1.466 18.308 9.375-5.67 30.553 53.453 8.473s6.191-35.99 9.897-52.403c3.706-16.412 23.937-52.582 23.937-52.582Z"/><path fill="#B1B5FF" d="m48.166 137.088 2.967-5.508 2.217-4.056 99.773 15.043 64.027 9.485 35.171 5.198 17.808 5.059 1.458 16.602-227.872-30.36 2.246-4.357-.906-.087 1.829-3.179-.604-.057 2.793-3.696-.907-.087Z"/><path fill="#FF009A" d="m175.094 15.104 1.796 3.525-9.577 20.423-12.245 32.362s6.184-23.187 8.662-29.961c2.478-6.775 11.364-26.35 11.364-26.35ZM37.368 97.029l4.647-.775 5.81 2.996-2.892 1.552-7.565-3.773ZM51.233 95.316l.758 2.923.562 2.387-15.056 17.154-3.176 20.426 5.17 16.044-7.366.514-5.257-15.137 6.01-21.375 16.654-17.916-.343-2.776 2.044-2.244ZM45.17 149l226.42 29.611-5.11 5.608-204.756-26.622L45.171 149Z"/><path fill="#9B1566" d="m206.764 174.53 62.115 7.168-2.375 2.516-176.446-22.995 116.706 13.311Z"/><path fill="#FF009A" d="m79.08 178.287-11.63-.337 9.097 2.426 9.63.923 3.377-2.787 4.54-8.363-9.236 8.691-5.778-.553Z"/><path fill="#B1B5FF" d="m63.843 162.743 20.466-5.121.963.565-6.975 7.884 6.716-5.187 1.689-1.394 13.335 2.832 15.473 17.032-16.953-11.342-4.058 7.354-3.596-.65-1.008-3.031-.173.923-4.919 6.707-17.006-1.032-3.741-1.524-4.713-3.562.48-5.007 4.02-5.447Z"/><path fill="#FF009A" d="m92.793 167.886 7.18-1.751-5.368 1.925-2.735 3.092-2.275 4.659 1.34-4.444 1.858-3.481ZM104.314 181.919l-11.63-.336 9.097 2.426 9.63.923 3.377-2.787 4.539-8.363-9.235 8.691-5.778-.554Z"/><path fill="#B1B5FF" d="m89.166 166.083 20.467-5.121.962.565-6.975 7.884 6.717-5.188 1.688-1.393 13.335 2.832 15.474 17.032-16.953-11.342-4.058 7.353-3.596-.649-1.008-3.031-.174.923-4.516 6.565-17.408-.89-3.742-1.524-4.712-3.562.48-5.008 4.02-5.446Z"/><path fill="#6D73FF" d="m141.175 182.728.991-2.238c.133-.298-10.774-11.528-16.244-17.105l-16.49-2.357-6.975 7.884.545 10.548 7.098 3.013 6.643-4.418.278-6.971-3.831-4.643-5.192 1.447-2.131 6.016 3.557 3.45 3.303-2.016-.201-1.963-1.652 1.008-2.585-1.414 3.872-3.905 3.061 4.569-2.754 4.402-3.614 1.208-4.364-3.139.737-7.704 6.754-5.573 13.261 3.602 15.933 16.299Z"/><path fill="#FF009A" d="m52.71 121.675 102.132 15.879-.318 3.323-1.208-.116-.592 2.992-2.648 2.185-3.58-4.001-3.914 2.674-3.307-3.671-4.159 2.041-3.335-3.368-4.519 2.616-3.249-4.275-4.518 2.616-3.336-3.368-4.49 2.314-3.667-3.095-4.187 2.343-3.609-3.699-4.188 2.342-3.638-3.397-4.518 2.616-3.25-4.274-4.849 2.889-3.22-4.577-4.576 3.221-3.58-4.002-4.577 3.22-2.975-3.943-4.85 2.889-4.833-.463 1.559-9.911Z"/><path fill="#6D73FF" d="m52.812 120.468 174.141 27.958 2.272 1.742.187 1.237-12.328-1.791-42.334-6.798-20.154-2.844-1.208-.116-.562 2.69-2.649 2.185-3.58-4.001-3.914 2.674-3.307-3.671-4.158 2.041-3.336-3.368-4.519 2.616-3.249-4.275-4.518 2.616-3.336-3.368-4.49 2.314-3.667-3.095-4.187 2.343-3.609-3.699-4.188 2.342-3.637-3.397-4.519 2.616-3.249-4.274-4.85 2.889-3.22-4.577-4.576 3.221-3.58-4.002-4.577 3.22-2.975-3.943-4.85 2.889-4.833-.463 1.559-9.911Z"/><path fill="#FF009A" d="m153.389 139.857 21.361 2.96-.173 1.813-4.23-.405-17.463-2.282.505-2.086ZM184.337 144.642l21.361 2.961-.173 1.812-4.229-.405-17.464-2.282.505-2.086ZM205.963 147.935l23.447 3.465-4.618.473-1.238.186-18.096-2.038.505-2.086Z"/><path fill="#FF009A" d="m174.217 151.6.843-15.162 12.356 1.488-1.748 15.075-6.058 2.774-5.393-4.175ZM189.243 153.651l.842-15.163 12.357 1.489-1.748 15.075-6.058 2.773-5.393-4.174ZM204.314 155.705l.842-15.162 12.357 1.488-1.749 15.076-6.058 2.773-5.392-4.175Z"/><path fill="#BDC0FA" d="m174.822 151.658.843-15.162 12.356 1.488-1.748 15.076-6.058 2.773-5.393-4.175ZM189.871 153.705l.842-15.162 12.357 1.488-1.749 15.076-6.058 2.773-5.392-4.175ZM204.93 155.76l.842-15.162 12.357 1.488-1.749 15.076-6.058 2.773-5.392-4.175Z"/><path fill="#FF009A" d="m134.354 186.626-11.63-.336 9.098 2.426 9.63.923 3.377-2.787 4.539-8.363-9.235 8.691-5.779-.554Z"/><path fill="#B1B5FF" d="m119.185 170.786 20.164-5.15 1.264.594-6.975 7.884 6.717-5.187 1.689-1.394 13.334 2.832 15.474 17.032-16.953-11.342-4.058 7.354-3.596-.65-1.008-3.031-.174.923-4.516 6.565-17.408-.89-3.742-1.524-4.712-3.562.734-4.482 3.766-5.972Z"/><path fill="#6D73FF" d="m171.215 187.435.992-2.238c.132-.298-10.774-11.528-16.244-17.105l-16.49-2.357-6.975 7.884.545 10.548 7.097 3.013 6.643-4.418.279-6.97-3.831-4.644-5.193 1.447-2.131 6.016 3.557 3.45 3.303-2.016-.201-1.963-1.651 1.008-2.586-1.414 3.873-3.905 3.061 4.569-2.754 4.402-3.614 1.208-4.365-3.139.738-7.704 6.754-5.573 13.261 3.602 15.932 16.299Z"/><path fill="#FF009A" d="m163.454 187.467-9.121-.264 7.135 1.903 7.552.723 2.648-2.185 1.527-3.207-5.21 3.464-4.531-.434Z"/><path fill="#B1B5FF" d="m151.531 175.05 15.927-3.963.877.389-5.47 6.183 5.268-4.068 1.324-1.093 10.457 2.221 12.135 13.357-12.855-12.206-4.345.803-4.833-.463 2.429 3.282-.62 3.294-3.542 5.148-13.652-.698-2.934-1.195-3.695-2.793.376-3.927 3.153-4.271Z"/><path fill="#6D73FF" d="m192.36 188.101.778-1.754c.103-.234-8.45-9.041-12.739-13.415l-12.932-1.848-5.47 6.183.427 8.272 5.566 2.362 5.21-3.464.218-5.466-3.005-3.642-4.071 1.135-1.672 4.717 2.79 2.707 2.59-1.582-.157-1.539-1.295.791-2.028-1.109 3.037-3.063 2.4 3.584-2.159 3.451-2.835.948-3.422-2.462.578-6.042 5.297-4.37 10.399 2.825 12.495 12.781Z"/><path fill="#FF009A" d="m149.994 175.191 7.18-1.751-5.367 1.925-2.735 3.091-2.276 4.66 1.34-4.444 1.858-3.481ZM118.06 171.222l7.179-1.751-5.367 1.925-2.735 3.092-2.275 4.659 1.34-4.444 1.858-3.481ZM95.156 168.418l7.18-1.752-5.367 1.925-2.735 3.092-2.275 4.66 1.34-4.445 1.857-3.48Z"/><path fill="#6D73FF" d="m100.793 163.182 2.806-.654-3.011-2.475-16.49-2.357-6.976 7.884.545 10.548 7.098 3.013 6.643-4.418.279-6.971-3.832-4.643-5.192 1.447-2.131 6.016 3.557 3.45 3.303-2.016-.201-1.963-1.651 1.008-2.586-1.414 3.872-3.905 3.062 4.569-2.755 4.402-3.614 1.208-4.364-3.139.738-7.704 6.753-5.573 13.261 3.602.886.085Z"/><path fill="url(#b)" d="M.884-47.828h223v262h-223z" opacity=".4" style="mix-blend-mode:hard-light"/></g><defs><linearGradient id="b" x1="-1.729" x2="223.016" y1="120.561" y2="106.596" gradientUnits="userSpaceOnUse"><stop stop-color="#8E54F5"/><stop offset=".5" stop-color="#FF4236"/><stop offset="1" stop-color="#FFB55C"/></linearGradient></defs></svg>