<svg xmlns="http://www.w3.org/2000/svg" width="186" height="164" fill="none" viewBox="0 0 186 164"><mask id="a" width="203" height="213" x="3" y="7" maskUnits="userSpaceOnUse" style="mask-type:alpha"><path fill="#5A5FB6" d="m66.582 20.213 10.32-3.516-4.962 3.507-4.423 2.028.395 3.497.785 1.618 3.394 2.279 12.705 2.879 6.427 7.973 7.673 5.227-.18 1.708 7.312 8.644 5.312 7.664 15.671 3.768 2.746 2.978-2.603 4.716.167 3.856 4.549 2.21 3.073 5.315-5.49 3.067-6.762.629-14.299-2.28-3.485.4-4.125 2.827-5.017-3.218-2.046-5.975-3.288 2.148-7.462 3.626-10.853-2.3-8.124-2.778-7-.74-4.652 2.388-7.17-.95-5.566.18-3.377 1.178-4.205 3.586-2.443 3.197-1.078 2.958-.909 3.167-.3 2.848 1.791 1.149-.668.889-1.364.24-2.159-3.108-1.86-2.308-1.213-3.008.6-2.048 1.295-1.399 2.001.98-1.522-1.889-.387-1.768 7.324-5.945 1.674-1.358 1.187-2.178 2.032-1.13 1.775-2.307 2.27.24 3.217.34 3.007.51 2.946 1.08 3.993.23 2.202-.92 1.574-.41 2.54-.498.538-1.48c.34-.795 1.026-2.463 1.058-2.767.032-.303.885-2.338 1.307-3.317l1.316-1.588 3.518-2.508 1.863-1.338 1.296-1.4 2.204-4.565 2.884-7.374 1.307-3.317c.422-.979 1.35-3.005 1.686-3.277.335-.272 1.07-1.678 1.396-2.348l1.086-1.229.14-1.328-2.02-.79-3.394-2.278-3.595-.38-1.823.959-2.072 1.508-1.892-.2-3.027-.32c-.415-.3-1.24-.937-1.224-1.09.02-.189-.15-.399.08-.758.183-.288.575-1.22.748-1.649-.329.093-1.171.222-1.912-.01-.74-.232-2.413-.703-3.156-.91l-.725-2.188.28-2.658.749-1.648-.287-2.718.14-1.329 3-1.218 1.324.14 4.242-.32Z"/><path fill="#9297F9" d="m74.628 52.353 6.462-10.451 1.275-1.209 4.263-.509 5.853 2.538 5.464 4.417 3.806 9.233 8.379 7.604c5.6.72 16.794 2.198 16.778 2.35-.02.19 3.621 5.566 3.52 6.515-.08.76 1.933 7.05 2.95 10.102l1.439 6.294-10.397.629-20.835 1.636-12.724-2.689-9.21-1.55c-4.312-.839-13.086-2.534-13.691-2.598l-8.514-.9c-.303-.032-5.85 1.045-8.585 1.587-1.122-.246-3.63-.767-4.69-.88-1.324-.14-4.251-1.408-4.738-2.228-.39-.655.35-1.499.768-1.838l7 .74.2-1.899c-1.576-.166-4.868-.63-5.426-1.15-.557-.519-2.29-.05-3.087.25l-2.6 1.07-2.153 2.267-3.397 1.369c-.87.995-2.62 3.063-2.651 3.367-.032.303 1.095.5 1.662.56l-3.227 1.578-2.084 3.426c-.521-.502-1.555-1.584-1.523-1.888.033-.304-.483-1.459-.745-1.999 1.146-.582 3.6-1.846 4.254-2.237.817-.49 3.618-3.457 3.847-3.817.184-.287 1.466-2.404 2.084-3.427l3.01-3.136 2.27.24c.379.04 6.96 1.12 7.379.78.335-.272 4.023.553 5.825 1l6.045-1.09 3.492-7.692 7.384-6.514 8.75-6.754-5.559 1.908 1.677-5.005Z"/><path stroke="#000" stroke-width="1.326" d="m95.433 89.296.49-2.827-.427-1.389 1.892.2 1.373 1.489-.221 2.088c-.04.38-.58 1.859-.808 2.218-.184.288-.509.586-.648.7l-.958 1.818 1.703.18c-.369.473-1.19 1.487-1.525 1.758-.335.272-.512 1.226-.559 1.669l-1.594.6-2.697-1.63.825 1.24 1.293 2.248 1.832.769-.18 1.709-1.208 2.368-1.771-1.339-3.414-2.089-4.968-1.869c-1.278-.583-3.866-1.79-4.002-1.959-.135-.168-.44-1.262-.576-1.788l3.386.55 2.918-.46 3.784.4 1.335-1.778 3.667-2.108 1.058-2.767Z"/><path fill="#9B1566" d="m74.778 49.302 6.49-8.912 1.087-1.229 4.54.48-2.797-.68-1.265-.71-2.15-1.378-3.055-1.859-2.15-1.379 7.077 3.628 7.516 3.098.886.67 4.916 4.166 4.739 2.229 1.054.88 1.792 1.148 2.101.03 2.311-.14-.301 2.849.708-1.27.845 1.05 1.471 4.186.238 1.37 1.8 2.877 2.239 2.348 2.946 1.08 5.097 2.458 1.752 1.529 1.063 2.608-.886-.67-1.244-.899-4.05-3.308-7.379-.78-3.027-.32-3.064-3.587-4.34-2.378-.249.55-.029-1.54c-.053-.709-.192-2.17-.327-2.338-.135-.167-.58-1.149-.785-1.618l-.935-2.019-1.373-1.489-1.63-2.668L91.045 42l-2.02-.79-3.745-.779-2.729.48-1.315 1.588-1.626 2.708-2.462 3.387-1.416 2.537-.64 2.428c.01.513-.017 1.61-.2 1.898-.184.288.149.4.338.42l1.175-.26 1.585-2.327c.821-1.13 2.505-3.421 2.672-3.557.21-.17 1.267-2.938 1.456-2.917.152.016 2.156-1.692 3.14-2.548l-.918 1.439-1.706 3.467-1.766 4.036-2.043 3.047-4.762 1.608-3.827 3.627.072-2.488.26-2.468 1.027-.66.447 1.2 1.348-3.697 1.387-4.076Z"/><path fill="#fff" d="m76.242 22.77.218 1.56-2.987-.7-4.074.529 4.372.27 1.771 1.339.298.8-5.22 2.327 3.007.51 2.488 1.798 2.28 1.969 3.96 2.338 2.042.6 1.295-1.399 4.504-2.787 1.106-1.419.51-3.017-.856.87c-.781.748-2.384 2.28-2.552 2.417-.167.136-1.623.276-2.33.33l-1.474-.54-1.722.01-1.015-1.26-.657-1.029-2.009-2.708-2.955-2.808Z"/><path fill="#1C1D3B" d="m58.083 24.5-.407-1.58-.11-.779 1.047-.849 2.789-1.049.507.63-.567-.06-1.594.6-1.594.599-.1.949.407 1.578-.14 1.33-.669.888.178 1.939c-.14.31-.397.855-.463.923.04.169.147 1.052.202 1.545l1.792 1.149 3.574.57c-.328.093-1.024.275-1.175.26l-2.838-.3c-.378-.04-1.095-.5-1.284-.52-.19-.02-.846-1.05-.825-1.24l.14-1.328.499-1.1-.258-1.178-.029-1.539.588-.13.33-1.309Z"/><path fill="#9297F9" d="m138.405 31.835.097 2.698-3.188 1.198-13.828-4.917-.427-1.389-.218-1.558 1.167-1.989-.785-1.618 1.694-1.549-.407-1.578.539-1.48 1.734-1.927 1.815-2.688 3.695-.569 4.251 1.41 2.508 1.608 1.591 3.048.286 2.717.376 3.687-.341 3.228-.559 1.668Z"/><path fill="#4C51BE" d="m113.932 24.244 2.109-1.623.369-.166-.501-.258-.697-.075-2.108 1.623.171-1.623-.395-1.274 1.589-.036-.089-.83 1.174-1.107-.178-1.66.871.092.135 2.067 2.133-.184-.089-.83-.764-1.108-.96-.923-.416-1.07.914-.314 2.069.425 1.049 1.754 1.07 1.55.259-.793.455-.978 1.028 1.957-.761.534-.238.59 1.635 1.2-1.045-.11.067 1.033 1.22.13 1.173-1.107c.008.48.016 1.52-.018 1.845-.043.406.547 1.495.7 1.717.153.221-.06 2.25-.082 2.454-.021.203-.561 1.992-.583 2.195-.021.203.221 1.255.199 1.458-.017.163-.775.67-1.152.904l.047 1.236.067 1.034-1.177-.536.548 1.495.067 1.033-3.569.442-4.572-.076-2.243-.444.256-2.435-1.244-1.57-1.874-.609-.003-1.642.565-.35 1.173-1.107c.122-.603.371-1.849.388-2.011.017-.163.846-1.347 1.258-1.919Z"/><path fill="#4C51BE" d="M112.432 25.11c-.515-.122-1.581-.373-1.721-.387l.459.664.501.258.132.425.629-.96ZM111.696 27.085l-.522-.056-.217.388.522.055.217-.387Z"/><path fill="#fff" d="m135.49 29.032-1.534.03-.607.32.865.859 1.453.73-.278-.99.926.29-.318-.61-.507-.629Z"/><path fill="#9297F9" d="m137.105 47.822-4.352-.46 2.359 1.209-3.385-.55.089.97 5.157 1.888 1.003 3.178 1.511 3.806c.279-.226.841-.717.857-.869.016-.151.068-1.848.092-2.677l-.634-4.866-2.697-1.63Z"/><path fill="#9297F9" d="m146.239 66.644-1.45-4.376-2.5.12 1.694-1.549-.854-2.778-1.273-2.438.035-5.755c-.291-2.078-.863-6.31-.831-6.614.032-.304-1.099-4.084-1.459-6.105l-1.393-1.3.326 2.339 1.161 5.305.955 1.829c-.132 1.245.124 3.167.191 3.45.011.012.016.02.015.027-.002.016-.007.005-.015-.028-.253-.302-3.677-2.458-5.13-3.78l-4.432.3 2.382-2.628-5.638 2.668-8.256.278.957-1.818 1.396-2.348 4.424-2.028 1.545-1.948-3.965 1.309-4.403 1.838-3.626 1.728.427 1.389-.728 1.459-1.313-2.059-.436-3.117 2.282-1.679 1.734-1.928 4.702-1.039 1.783-.579 2.66-1.638.559-1.669-1.554.22.639-2.428 2.52-.31.198 1.749 1.981 1.17 1.014 1.258-1.344.05.069 1.16 3.216.34 4.243-.32 7.286 3.458.565 3.706-.043 4.027-.545 8.773s-.216 8.679.229 12.31Z"/><path fill="#9297F9" d="m136.304 67.894 1.052-8.144 1.135.12.098 2.698-.302 2.848.794 3.347.018 3.457-1.474-.54 2.01 2.708-.132 3.058 1.88 2.118 1.852.58-1.491-3.997c-.237-2.584-.74-7.833-.859-8.153-.12-.32.131-3.058.272-4.386l.874 2.587 1.067-1.038 2.003-2.668.915 2.208.802 5.076.957 10.85 4.825 6.846 7.023 9.572 3.689 6.725 2.562 8.333-1.949-3.277c-2.752-4.13-8.327-12.437-8.614-12.62-.286-.184.955 1.828 1.611 2.857l2.606 4.307 3.262 5.336-1.364.239-.238-1.369-1.743.2-1.993.749-2.419-.639-1.164-1.659.599-2.048-1.883 1.528-1.135-.12c-.262-.539-.819-1.661-.955-1.828-.169-.21-.435-3.118-.415-3.308.016-.152-1.073-3.12-1.62-4.586l-2.746-2.978-3.93-4.446 1.201 4.926-3.202-5.906-3.382-4.197 6.739 3.209-3.394-2.279-2.448-2.178 1.018-2.388-2.448-2.179.031-2.108.362-3.417.043-4.026Z"/><path fill="#D9D9D9" d="m81.869 16.647-1.512-.16.627-.51.945.1.865.86-.08.758-.845-1.048Z"/><path fill="#4C51BE" d="M63.438 67.677c-.538.263-1.686.743-1.972.559l1.075.69.656 1.029.817-.49 2.073-1.508 1.324.14-.837.679-2.053 1.319-.559 1.668-1.037 2.578-3.188 1.199 14.628.97 1.405-.62 3.973.42 1.703.18-1.164-1.658 2.21.81 2.279 1.968-.41 2.069-4.48-1.05-.101.95 4.251 1.408 1.602 1.13.815 3.157-.628.51-2.649-.28-1.823.959-3.365-.74-3.136-1.1-4.062-1.389-5.616-1.17-4.5-.86-.637-1.218 3.007.51.06-.57-1.493-.35-1.643-.75.12-1.138 3.854 1.559 8.123 2.778 5.745 1.76 4.919.52.986-.28.08-.76-1.453-.73-4.251-1.408-8.583-2.06-7.865-1.599-1.852-.58-1.485 1.38c.043.196.117.703.069 1.158-.049.456-.399.15-.568-.06l-1.135-.12.2-1.898.46-.72-1.205-1.279-1.634.98-1.525 1.758-1.892-.2-2.13-1.57-4.48-1.049-4.73-.5c-.454-.048-.873.42-1.026.66l-1.585 2.328 1.883-1.529 2.73-.48 5.635.98 4.002 1.96.407 1.578-.362 3.417-1.513-.16-8.752-2.269 1.783-.58 7.23.381c-.697-.65-2.162-1.995-2.448-2.178-.287-.184-2.855-.75-4.102-1.01l-1.256 1.02-1.972.558-.487-.819-1.554.22-1.545 1.948.567.06-1.694 1.549-4.463 2.407-2.322 2.058 4.492-.869-3.288 2.148-2.013.94-.579 1.858-.837.679-.487-.82-.467-1.009-1.752-1.529 8.162-6.623-4.733 3.147-3.687 2.297-3.147.82-.241 2.277.287 2.718-.322 3.038-.848 2.597-.72 3.188 2.041.599 1.084 2.418.157 2.128.895 2.399 2.83-1.429 2.052-1.319 1.657-4.815-1.176.259-1.513-.16-.298-.799-.158-2.128.459-.72 1.026-.659-.866-.86-1.932.18-1.852-.58-.685-2.567 1.385-.43.2-1.898.557 1.978 2.906 1.46 1.356-1.969 1.038-2.578 4.644-4.116 3.666-2.108 2.73-.479c1.051.303 3.19.951 3.325 1.12.135.167 4.144 2.421 6.131 3.527l-2.425 6.654-1.018 2.388-1.376 2.158 1.313 2.058 1.321 3.787.078 2.888-.362 3.417 2.838.3 3.652 3.458 4.271 1.219.261-2.468 5.117 2.269 2.35-.52.95-3.547 1.416-2.537 1.915-3.637 3.219-3.307 2.39-.899 2.26 2.158-.462 4.367 1.553-.22 1.273 2.438 2.239 2.348 2.342-2.248 2.766 2.788c1.666 1.136 5.132 3.576 5.673 4.247.541.672 4.393 1.872 6.252 2.389l7.138 3.058-.261 2.468-2.443 3.197-.461 4.366-.304 6.495 4.13 2.548 1.528 7.264 3.741 4.427 2.517 3.337c.307 1.312.924 4.282.931 5.665.007 1.383-1.505 1.569-2.262 1.489l12.596 2.099 1.964-2.288.301-2.847-2.308-3.507-2.155-6.755-.594-5.246 3.108-.439 7.957-1.078.29-13.599 1.041-6.224 1.138-3.527 3.107-.44.726 2.189 3.333 2.848 1.663.559 1.525-1.758 4.532-1.249c-.949-.676-2.842-2.066-2.826-2.218.016-.152-2.828-1.003-4.251-1.409l.639-2.428 2.709-.29 1.445-.999-1.632-2.668-5.01-10.511-8.233-16.227-3.302-4.956-1.828-4.417-.267-2.907-.934-2.019-4.18-3.897-2.09-1.948 2.646 3.926 1.981 1.17.866.859-1.196.45-1.533.03-.29.928.407 1.58.109.779-1.493-.35-1.543-1.699-1.562-1.509-1.015-1.259-1.473-.54 1.184 1.47.158 2.127-.19-.02-3.024-.895-.252 1.125 1.812.96.805 1.428-1.743.2-1.284-.52-1.494-.35-2.17-1.189-.676-.84-.995-1.448-1.324-.14-.229.36.994 1.448 1.563 1.51 1.622.939 2.528 1.419 1.792 1.149 3.474 1.519 2.987.7c1.178.316 3.568.991 3.704 1.16.135.167-.11.435-.25.549l-1.703-.18-2.141.35-3.136-1.1-3.981-2.149-3.604-2.108-4.428-3.348-2.698-1.629 1.015 1.26.367 1.957 3.096 1.48 1.373 1.488 2.439.45c1.088.563 3.303 1.693 3.454 1.71.152.015-.116.499-.269.739-.617-.194-1.928-.588-2.23-.62-.303-.032-1.361-.4-1.852-.58l-3.156-.91-2.718-1.438-1.702-.18 1.204 1.279 2.915 3.187 4.4 1.81 4.38 1.998 2.769-.86 2.451-1.468 4.839 1.28 2.109 1.758-2.708.29-3.736.949 3.675-.38 3.096 1.48 2.617 2.388 2.288 3.697 2.924 4.916.275 4.636-3.047-.13-5.676-.6-2.629-.47-2.09-1.949-3.683-1.349-.995-1.449-1.502-2.078-4.429-3.348-1.949-3.277.181-1.709 2.29.05 7.479-.169-3.595-.38-4.162-.44-2.419-.64-2.27-.24-5.146-3.807-1.155.07.854 2.778-.995-1.449-1.115-.31-.877 1.06-.619 2.237-1.674 1.359-.278-.99-1.064-2.607 1.285.52-1.124-2.039-2.15-1.379.958-1.818 1.854-3.068 2.027-6.504-2.68 1.828-2.262 1.489-3.388 3.097-2.62 1.259c-1.205-.064-3.687-.237-3.974-.42-.286-.184-.45-1.776-.495-2.548l-3.95-4.257-1.153-3.577-2.27-.24c-.291-.863-.946-2.634-1.233-2.818-.286-.184 1.633.237 2.63.47l.16-1.519c.026-.253-.034-.771-.488-.82-.567-.06-.885-.669-1.034-1.068l-.895-2.398-2.35.519-1.703-.18c-.542.902-1.671 2.78-1.855 3.067-.183.288-1.471 1.252-2.093 1.699l-.825-1.24c-.594.194-1.859.572-2.161.54-.303-.032-1.621.852-2.242 1.299l-1.376 2.158Z"/><path fill="#4C51BE" d="m190.733 202.839-1.485 1.378-19.607-13.59 2.692-3.747-2.256-5.805-3.764-13.259-2.161-12.13-.593-5.246-.923-3.936-2.855-3.758-1.101-5.875-3.517 2.508-3.128.629-4.552 1.438 3.93 4.447 2.586 4.496 3.422 3.818 1.752 1.528-.221 2.089-6.539 7.563-2.273 3.407-1.746 3.846-2.76 2.588-4.38-1.999-.576-1.789 2.961-4.486 2.204-4.565.622-5.885-2.049-2.329-4.638-3.177-4.985-5.326-6.109-7.365-17.118-49.8 20.803.472-2.534-6.794-2.084-9.243-1.143-1.848-4.618-3.368-3.873-1.37-6.957-4.766-4.438-5.076-9.45-11.94 1.009-4.117 2.184-4.376-1.072-4.337-1.769-4.986-7.51-10.392 2.71-.29 5.325 2.1 6.828 4.177 3.922 2.718 3.253 3.607-2.499.12a179 179 0 0 1 1.88 2.118c.135.168.161 1.489.158 2.128l2.706 3.358 1.034 1.069.078 2.888 4.652-2.388 7.281-1.918 3.604 2.109 3.405.36 3.598-3.267 4.529 2.398 1.619 17.256 1.149 7.224-1.009 4.116-1.104 10.442 10.388 22.981 2.189 2.808-2.621-9.572 8.883 11.881 2.038 4.246c.035 1.476.275 4.636.952 5.476.676.839 2.714 5.086 3.649 7.104l.862 4.506 2.276 5.616 6.567 19.314c.532 2.808 1.66 8.545 1.915 9.033.318.609 4.721 11.441 5.188 12.45.374.807 6.753 11.527 9.895 16.787l3.858 6.934-2.104 3.617-3.098 2.168-3.337.799Z"/><path fill="#9297F9" d="M134.785 51.802c-1.55-.42-4.654-1.221-4.67-1.07l-1.573.41-.668.89-2.331.329-3.156-.91-1.952.37 1.304.33 2.867 1.839c.651-.124 1.994-.404 2.161-.54.168-.136 1.259-.443 1.783-.58l2.041.6.958-1.818 2.697 1.63 2.947 1.079-2.408-2.559Z"/><path fill="#9297F9" fill-rule="evenodd" d="m162.617 110.606 1.336-1.778 1.294 2.231 2.266 3.904 2.067 5.785 1.459 6.105 3.15 8.204 2.623 7.763 4.623 8.743c.141 2.895.413 8.759.381 9.063-.032.303 5.972 12.277 8.978 18.225l4.337 6.026 5.908 9.262c-.001 1.216-.011 3.723-.043 4.027-.032.304-1.98 1.838-2.95 2.567l-2.999 1.219-2.677-1.819-3.024-3.967 3.881 3.098 3.993.23-1.224-1.089-2.987-.699-2.597-2.579-1.043-2.797c1.559.932 4.67 2.874 4.638 3.177-.032.304 1.5.287 2.27.241l1.614-.79-2.001-.979-3.462-3.437 1.421 2.837-3.563-2.488-3.193-4.177-2.717-1.439-2.328-3.317-1.482-2.268-1.402-3.028-1.295-11.271-1.508 5.216-1.115-.31-.221 2.088-.596-1.599-2.227-4.266 1.267-2.938-1.124-2.038-1.063-2.608-.347-2.148 1.333 1.868 3.15 8.204-1.448-8.024 2.663 7.385-.593-5.246-1.809-4.606 3.601 5.755-.903-4.127-3.122-6.664-1.341-3.597-1.422-2.838-1.611-2.858-.665-2.758.745 1.999 2.827 2.218-.975-1.638-1.201-4.926-.894-2.398c-.438-.687-1.347-2.101-1.482-2.269-.135-.168-1.568-2.661-2.268-3.887l-1.679-4.016c-.462.143-1.419.387-1.554.219s-1.589-1.255-2.299-1.778l.241-2.279.381-3.606.556 1.978 2.428 2.368 1.365-.239.14-1.329c.016-.152-.138-1.103-.218-1.559l-2.488-1.799-1.502-2.078-1.892-.2-4.718-2.419 1.932-.179 1.107-1.419 2.27.24.499-1.099 2.528 1.419Zm3.124 15.687c.988 1.512 2.994 4.617 3.113 4.936.119.32 1.084 2.418 1.551 3.428l1.39 4.946 1.152 3.577.118 2.508c.235.792.739 2.42.874 2.587.135.168.58 1.149.786 1.619l1.401 3.028c.375.679 1.154 2.118 1.273 2.438.119.32.933.226 1.324.14l.27-.74-1.293-2.248-1.711-1.908-.895-2.398-.375-3.687-1.918-5.386-.782-5.266-1.233-2.817-2.517-3.338-.366-1.958.18-1.709-.656-1.029-1.244-.899-1.365.239-.418.34 1.341 3.597Zm29.645 63.41.198 1.748-2.05-2.328-1.86-2.308-4.039-5.226-3.262-5.336-2.984-4.347-.533-5.815-.287-2.718 1.577 8.613 6.813 9.743 3.87 5.016 2.557 2.958Z" clip-rule="evenodd"/><path fill="#9297F9" d="m136.68 116.883.565 3.707.418-.34 1.385-.429 2.041.599.157 2.129.505 4.276-1.396 2.348 1.742-.2 1.353 1.679-1.195.45-.966.089-2.201.919.785 1.619 2.52-.309 1.602 1.129 1.84 2.498-.946-.1.278.989 1.224 1.089.806 1.429 1.393 1.299.636 1.219.468 1.009.536 2.169.794 3.347 1.76 3.257 1.8 2.878.946.1-.298-.799-1.909-3.657-1.76-3.258-.625-3.137 1.522 1.888 1.043 2.798 2.308 3.507 1.502 2.079.785 1.618-1.287 3.128-1.625 2.707-.428-1.389.112-2.867-1.284-.52-1.574.41-.616-1.409-.258-1.179-.447-1.199-1.035-1.07.631-4.156-2.42-.64-3.035-2.048-1.961-1.359-1.7-3.827-1.611-2.858-1.115-.31-.478.909-1.265-.709-.745-1.999 1.158-3.716-1.135-.12-.926-.29-1.244-.9-.894-2.398-.009-1.728.141-1.329.768-1.838 1.525-1.759-1.405.62-1.335 1.778.2-1.898.849-2.598 3.03-3.327Z"/><path fill="#9297F9" d="m148.173 131.344-3.217-.34 1.692 2.098 1.333 1.869 2.19.999 2.101.03 2.072-1.508 3.458-1.938 4.016-3.607-.789 2.028-.619 2.238-1.706 3.467 1.944-2.098 1.396-2.348.909-3.167.301-2.847-1.445.999-1.743.199-.957 1.819-1.545 1.948-3.168 1.009-2.113 1.888-1.614.789-1.413-1.109.27-.74 1.344-.049 1.087-1.229-.508-.63-3.276.23ZM136.368 23.942l-1.812-.96-.587.13-.25.55.129.59 1.305.33.467 1.008.974 1.639.837-.68-.108-.779-.677-.84-.278-.988ZM131.237 22.058l-1.075-.69-.418.34.467 1.009 2.149 1.378.061-.569-1.184-1.468ZM132.552 20.47l-1.702-.18-.189-.02-.23.36 1.244.899 1.164 1.658.329-1.309-.616-1.408ZM119.499 53.45l.539-1.479-2.081-.22-6.392-1.06-1.345.05.06-.57-1.034-1.068 1.484-1.379-1.304-.33c.173-.43.322-1.233.37-1.688.048-.456-.112-1.356-.198-1.749l-1.324-.14c-.123.563-.374 1.727-.39 1.878-.016.152-.911 1.376-1.356 1.969l.1-.95.491-2.827-.278-.99-.439.53-1.038 2.578-1.106 1.419.986-.28-1.964 2.288 1.812.96 2.54-.5-.121 1.139-.619 2.238 1.175-.26.161-1.518.696.65.855 2.777 1.47 4.186 3.044 3.778 5.217 1.319-3.156-.91-3.124-3.017-1.99-2.898-1.132-3.767-.008-1.729 2.648.28 4.292 1.03 2.459.26Z"/><path fill="#222461" d="M82.466 12.107c.053.882.153 2.691.135 2.865l-.023.217-1.514-.16.115-1.085 1.287-1.838Z"/><path fill="#9297F9" d="m108.025 37.073-.367-1.958-.636-1.22c-.492-.179-1.512-.543-1.663-.559-.151-.016-.541-.313-.717-.46l.749-1.648.845 1.05 2.259 2.158.616 1.408-.14 1.33c-.016.151.264 1.115.407 1.578.016.45.041 1.425.008 1.729l-.1.949c-.016.152-.398.15-.588.13-.036-.26-.067-.814.101-.95.167-.136-.269-.476-.508-.63l-.238-1.368-.028-1.539ZM50.608 93.197l2.425-6.654-1.1 6.794.418-.34.12-1.138 1.018-2.388 2.193-2.648-.522 4.936 1.703.18 2.718 1.44 5.065 4.566 3.594.38.198 1.748c-.927.926-2.818 2.774-2.97 2.758-.151-.016 1.69.306 2.629.47l-1.376 2.158-4.374 3.376-2.83 1.429-4.4-1.809-3.225-2.069-.516-2.358c-.295-.223-.953-.753-1.224-1.089-.27-.336-.032-.899.12-1.139l3.845-.169 1.267-2.938-2.007-6.355.525 4.087-.361 3.417-1.703-.18-1.184-1.469-.046-4.996Z"/><path fill="#9297F9" d="m105.938 25.91-1.224-1.09 2.717 1.44c.332.482 1.029 1.49 1.164 1.658.135.168.215.983.238 1.369l1.602 1.13c.501.692 1.498 2.115 1.482 2.267-.02.19.786 1.62 1.293 2.249.507.63 1.502 2.078 1.671 2.288.135.168.553 1.402.745 1.998-.003.64-.015 1.957-.031 2.108-.016.152-.406 1.43-.599 2.049l-1.763.39-1.207 2.367c-.309-.097-.96-.332-1.095-.5-.136-.168.05-1.082.16-1.518l.35-1.5.837-.678-1.691-2.099.181-1.708c.268.476.835 1.508.954 1.828.119.32 1.131.76 1.623.94l.12-1.14.648-.699-.298-.8-1.285-.519-1.034-1.069.648-.7-1.583-1.318 1.196-.45-1.543-1.699-3.523-2.868L105 27.538l.837-.68 2.239 2.349-1.124-2.038-1.014-1.26Z"/><path fill="#1C1D3B" d="m67.072 37.16-1.831-.77 1.892.2c.151.017.806.214 1.115.31l.837-.679.499-1.099 1.215-.64 1.703.18 3.067-.059 1.812.96 1.582 1.318.946.1 1.811.96-.33 1.309-1.255 1.019-.748 1.648.18-1.708 1.566-2.138-1.284-.52-1.325-.14-2.09-1.949-1.513-.16-3.216-.34-1.385.43-.688 1.079-1.046.85-1.514-.16Z"/><path fill="#9297F9" d="m100.44 47.212-1.453-.73-3.644-1.729-5.085-4.377-4.799-1.659-9.078-4.607-4.827-3.197-2.001-.98-1.144-1.848-1.553.22-2.58.878-2.75.67c-.594.193-1.85.495-2.12.16-.271-.337-.862-1.5-1.124-2.04l.1-.948 2.42.64 2 .979.837-.68-.656-1.029c.146-.176.514-.521.817-.49.303.032 1.09-.652 1.445-.998l.478-.91-3.316.61-2.142.349-1.562-1.509-.238-1.369 1.216-.64 1.155-.069 1.514.16.318.61-1.365.24-1.743.199.488.82.885.669 1.953-.37.877-1.059-.278-.989-1.035-1.07 1.364-.239 1.474.54 1.404-.62 3.776-1.328 5.18-1.948.837-.68 2.849-1.618 1.195-.449 1.514.16 2.29.05 1.892.2.717.46.656 1.03-.089-.97 1.075.69.966-.09.58-1.859-1.124-2.038-1.611-2.858 1.373 1.489 1.9 1.928.367 1.959 2.25.43 2.001.98 2.927 1.268 2.17 1.19 2.698 1.628 1.602 1.13 2.021.79 1.771 1.338.806 1.43 1.88 2.118 1.981 1.169-.499 1.099-1.912-.01.487.819 1.394 1.299.636 1.219-.12 1.139.656 1.03 2.07 2.138-.012 1.918-1.115-.31.499-1.099-1.522-1.889-1.204-1.279-.467-1.009c-.332-.483-.762-1.846-.746-1.998.016-.152-1.373-1.489-2.069-2.139l.14-1.328 2.041.6.189.02-1.055-.88-.994-1.449c-.528-.44-1.62-1.323-1.772-1.339-.189-.02-2.25-.43-2.439-.45-.152-.016-.893-.606-1.244-.9l-.427-1.388c-.787-.403-2.397-1.213-2.549-1.23-.151-.015-2.564-1.678-3.752-2.508l.467 1.01-.607.32c-.408-.364-1.258-1.132-1.394-1.3l-1.014-1.259-1.454-.73-1.493-.35-1.554.22 1.852.58 4.328 4.297 2.348 3.128 1.261 4.356.625 3.137.267 2.908-.482 4.556-.6 2.048-1.126 1.609-.648.7-.27.739.508.63.797-.3.648-.7 1.714-1.738.47-2.638.052-2.298-.275-4.636 1.023 2.987-.137-2.318.825 1.24.983 3.367c-.023.829-.037 2.53.098 2.697.135.168-.595 1.41-.978 2.009l-.788 2.028-.12 1.139 1.026-.66.668-.889.648-.699.338.42-.519 1.288-.917 1.44-1.884 1.528-.567-.06-.278-.99-.757-.08Z"/><path fill="#4C51BE" d="m87.023 18.532-.358-.23-1.345.05-.837.68-1.932.18-2.48-.07.697.649 1.473.54c-.51.01-1.571.025-1.722.01-.152-.017-.906-.48-1.265-.71l-1.034-1.07.31-1.118.896-1.25 1.236-.829 1.244.9 1.393 1.299 1.683.37 1.553-.22 1.285.52-.06.57-.737-.27Z"/><path fill="#fff" d="m81.768 17.787-.737-.27-.608.32c.176.146.566.443.717.46.151.015.667.326.906.479l.229-.36-.507-.63Z"/><path fill="#4C51BE" d="m87.5 15.708.717.46.338.42.966-.09.6-2.049-2.566-4.686-1.035-1.07-.845-1.048c.686 1.352 2.054 4.094 2.038 4.246-.02.19.765 1.809.745 1.998-.016.152.026.963.049 1.35l-1.007.469Z"/><path fill="#222461" d="m85.252 11.822.441-4.176.636 1.219.826 1.239.765 1.808.577 1.789.028 1.539-1.006.47.089.968-.866-.859-1.095-.5-2.101-.03-.737-.27 1.216-.639 2.08.22.44-.53-.866-.859-.427-1.389Z"/><path fill="#40449E" d="M189.282 203.836c.616 1.409 15.284 14.67 16.15 15.529l-52.292-37.394-20.189-8.085-32.976-6.557c-13.386-1.863-40.574-5.634-42.24-5.81-1.664-.176-15.01-3.378-21.475-4.957l-13.665 2.586c-1.233 1.405-3.756 4.402-3.988 5.145-.232.744 1.023 11.434 1.68 16.686l-10.882 8.832-2.93-10.292-3.347-9.952 3.288-2.148c2.429-3.07 7.617-9.445 8.94-10.38 1.324-.935 6.849-4.459 9.446-6.104l33.496 5.269 55.273 7.379 13.501 2.579 13.957 5.507 5.665 2.518 21.886 15.559c6.695 4.227 20.209 12.963 20.702 14.09Z"/></mask><g mask="url(#a)"><path fill="#5A5FB6" d="m66.582 20.213 10.32-3.516-4.962 3.507-4.423 2.028.395 3.497.785 1.618 3.394 2.279 12.705 2.879 6.427 7.973 7.673 5.227-.18 1.708 7.312 8.644 5.312 7.664 15.671 3.768 2.746 2.978-2.603 4.716.167 3.856 4.549 2.21 3.073 5.315-5.49 3.067-6.762.629-14.299-2.28-3.485.4-4.125 2.827-5.017-3.218-2.046-5.975-3.288 2.148-7.462 3.626-10.853-2.3-8.124-2.778-7-.74-4.652 2.388-7.17-.95-5.566.18-3.377 1.178-4.205 3.586-2.443 3.197-1.078 2.958-.909 3.167-.3 2.848 1.791 1.149-.668.889-1.364.24-2.159-3.108-1.86-2.308-1.213-3.008.6-2.048 1.295-1.399 2.001.98-1.522-1.889-.387-1.768 7.324-5.945 1.674-1.358 1.187-2.178 2.032-1.13 1.775-2.307 2.27.24 3.217.34 3.007.51 2.946 1.08 3.993.23 2.202-.92 1.574-.41 2.54-.498.538-1.48c.34-.795 1.026-2.463 1.058-2.767.032-.303.885-2.338 1.307-3.317l1.316-1.588 3.518-2.508 1.863-1.338 1.296-1.4 2.204-4.565 2.884-7.374 1.307-3.317c.422-.979 1.35-3.005 1.686-3.277.335-.272 1.07-1.678 1.396-2.348l1.086-1.229.14-1.328-2.02-.79-3.394-2.278-3.595-.38-1.823.959-2.072 1.508-1.892-.2-3.027-.32c-.415-.3-1.24-.937-1.224-1.09.02-.189-.15-.399.08-.758.183-.288.575-1.22.748-1.649-.329.093-1.171.222-1.912-.01-.74-.232-2.413-.703-3.156-.91l-.725-2.188.28-2.658.749-1.648-.287-2.718.14-1.329 3-1.218 1.324.14 4.242-.32Z"/><path fill="#B1B5FF" d="m74.628 52.353 6.462-10.451 1.275-1.209 4.263-.509 5.853 2.538 5.464 4.417 3.806 9.233 8.379 7.604c5.6.72 16.794 2.198 16.778 2.35-.02.19 3.621 5.566 3.52 6.515-.08.76 1.933 7.05 2.95 10.102l1.439 6.294-10.397.629-20.835 1.636-12.724-2.689-9.21-1.55c-4.312-.839-13.086-2.534-13.691-2.598l-8.514-.9c-.303-.032-5.85 1.045-8.585 1.587-1.122-.246-3.63-.767-4.69-.88-1.324-.14-4.251-1.408-4.738-2.228-.39-.655.35-1.499.768-1.838l7 .74.2-1.899c-1.576-.166-4.868-.63-5.426-1.15-.557-.519-2.29-.05-3.087.25l-2.6 1.07-2.153 2.267-3.397 1.369c-.87.995-2.62 3.063-2.651 3.367-.032.303 1.095.5 1.662.56l-3.227 1.578-2.084 3.426c-.521-.502-1.555-1.584-1.523-1.888.033-.304-.483-1.459-.745-1.999 1.146-.582 3.6-1.846 4.254-2.237.817-.49 3.618-3.457 3.847-3.817.184-.287 1.466-2.404 2.084-3.427l3.01-3.136 2.27.24c.379.04 6.96 1.12 7.379.78.335-.272 4.023.553 5.825 1l6.045-1.09 3.492-7.692 7.384-6.514 8.75-6.754-5.559 1.908 1.677-5.005Z"/><path fill="#13144B" stroke="#13144B" stroke-width="1.326" d="m95.433 89.296.49-2.827-.427-1.389 1.892.2 1.373 1.489-.221 2.088c-.04.38-.58 1.859-.808 2.218-.184.288-.509.586-.648.7l-.958 1.818 1.703.18c-.369.473-1.19 1.487-1.525 1.758-.335.272-.512 1.226-.559 1.669l-1.594.6-2.697-1.63.825 1.24 1.293 2.248 1.832.769-.18 1.709-1.208 2.368-1.771-1.339-3.414-2.089-4.968-1.869c-1.278-.583-3.866-1.79-4.002-1.959-.135-.168-.44-1.262-.576-1.788l3.386.55 2.918-.46 3.784.4 1.335-1.778 3.667-2.108 1.058-2.767Z"/><path fill="#9B1566" d="m74.778 49.302 6.49-8.912 1.087-1.229 4.54.48-2.797-.68-1.265-.71-2.15-1.378-3.055-1.859-2.15-1.379 7.077 3.628 7.516 3.098.886.67 4.916 4.166 4.739 2.229 1.054.88 1.792 1.148 2.101.03 2.311-.14-.301 2.849.708-1.27.845 1.05 1.471 4.186.238 1.37 1.8 2.877 2.239 2.348 2.946 1.08 5.097 2.458 1.752 1.529 1.063 2.608-.886-.67-1.244-.899-4.05-3.308-7.379-.78-3.027-.32-3.064-3.587-4.34-2.378-.249.55-.029-1.54c-.053-.709-.192-2.17-.327-2.338-.135-.167-.58-1.149-.785-1.618l-.935-2.019-1.373-1.489-1.63-2.668L91.045 42l-2.02-.79-3.745-.779-2.729.48-1.315 1.588-1.626 2.708-2.462 3.387-1.416 2.537-.64 2.428c.01.513-.017 1.61-.2 1.898-.184.288.149.4.338.42l1.175-.26 1.585-2.327c.821-1.13 2.505-3.421 2.672-3.557.21-.17 1.267-2.938 1.456-2.917.152.016 2.156-1.692 3.14-2.548l-.918 1.439-1.706 3.467-1.766 4.036-2.043 3.047-4.762 1.608-3.827 3.627.072-2.488.26-2.468 1.027-.66.447 1.2 1.348-3.697 1.387-4.076Z"/><path fill="#fff" d="m76.242 22.77.218 1.56-2.987-.7-4.074.529 4.372.27 1.771 1.339.298.8-5.22 2.327 3.007.51 2.488 1.798 2.28 1.969 3.96 2.338 2.042.6 1.295-1.399 4.504-2.787 1.106-1.419.51-3.017-.856.87c-.781.748-2.384 2.28-2.552 2.417-.167.136-1.623.276-2.33.33l-1.474-.54-1.722.01-1.015-1.26-.657-1.029-2.009-2.708-2.955-2.808Z"/><path fill="#1C1D3B" d="m58.083 24.5-.407-1.58-.11-.779 1.047-.849 2.789-1.049.507.63-.567-.06-1.594.6-1.594.599-.1.949.407 1.578-.14 1.33-.669.888.178 1.939c-.14.31-.397.855-.463.923.04.169.147 1.052.202 1.545l1.792 1.149 3.574.57c-.328.093-1.024.275-1.175.26l-2.838-.3c-.378-.04-1.095-.5-1.284-.52-.19-.02-.846-1.05-.825-1.24l.14-1.328.499-1.1-.258-1.178-.029-1.539.588-.13.33-1.309Z"/><path fill="#B1B5FF" d="m138.405 31.835.097 2.698-3.188 1.198-13.828-4.917-.427-1.389-.218-1.558 1.167-1.989-.785-1.618 1.694-1.549-.407-1.578.539-1.48 1.734-1.927 1.815-2.688 3.695-.569 4.251 1.41 2.508 1.608 1.591 3.048.286 2.717.376 3.687-.341 3.228-.559 1.668Z"/><path fill="#7F84FF" d="m113.932 24.244 2.109-1.623.369-.166-.501-.258-.697-.075-2.108 1.623.171-1.623-.395-1.274 1.589-.036-.089-.83 1.174-1.107-.178-1.66.871.092.135 2.067 2.133-.184-.089-.83-.764-1.108-.96-.923-.416-1.07.914-.314 2.069.425 1.049 1.754 1.07 1.55.259-.793.455-.978 1.028 1.957-.761.534-.238.59 1.635 1.2-1.045-.11.067 1.033 1.22.13 1.173-1.107c.008.48.016 1.52-.018 1.845-.043.406.547 1.495.7 1.717.153.221-.06 2.25-.082 2.454-.021.203-.561 1.992-.583 2.195-.021.203.221 1.255.199 1.458-.017.163-.775.67-1.152.904l.047 1.236.067 1.034-1.177-.536.548 1.495.067 1.033-3.569.442-4.572-.076-2.243-.444.256-2.435-1.244-1.57-1.874-.609-.003-1.642.565-.35 1.173-1.107c.122-.603.371-1.849.388-2.011.017-.163.846-1.347 1.258-1.919Z"/><path fill="#7F84FF" d="M112.432 25.11c-.515-.122-1.581-.373-1.721-.387l.459.664.501.258.132.425.629-.96ZM111.696 27.085l-.522-.056-.217.388.522.055.217-.387Z"/><path fill="#fff" d="m135.49 29.032-1.534.03-.607.32.865.859 1.453.73-.278-.99.926.29-.318-.61-.507-.629Z"/><path fill="#B1B5FF" d="m137.105 47.822-4.352-.46 2.359 1.209-3.385-.55.089.97 5.157 1.888 1.003 3.178 1.511 3.806c.279-.226.841-.717.857-.869.016-.151.068-1.848.092-2.677l-.634-4.866-2.697-1.63Z"/><path fill="#B1B5FF" d="m146.239 66.644-1.45-4.376-2.5.12 1.694-1.549-.854-2.778-1.273-2.438.035-5.755c-.291-2.078-.863-6.31-.831-6.614.032-.304-1.099-4.084-1.459-6.105l-1.393-1.3.326 2.339 1.161 5.305.955 1.829c-.132 1.245.124 3.167.191 3.45.011.012.016.02.015.027-.002.016-.007.005-.015-.028-.253-.302-3.677-2.458-5.13-3.78l-4.432.3 2.382-2.628-5.638 2.668-8.256.278.957-1.818 1.396-2.348 4.424-2.028 1.545-1.948-3.965 1.309-4.403 1.838-3.626 1.728.427 1.389-.728 1.459-1.313-2.059-.436-3.117 2.282-1.679 1.734-1.928 4.702-1.039 1.783-.579 2.66-1.638.559-1.669-1.554.22.639-2.428 2.52-.31.198 1.749 1.981 1.17 1.014 1.258-1.344.05.069 1.16 3.216.34 4.243-.32 7.286 3.458.565 3.706-.043 4.027-.545 8.773s-.216 8.679.229 12.31Z"/><path fill="#B1B5FF" d="m136.304 67.894 1.052-8.144 1.135.12.098 2.698-.302 2.848.794 3.347.018 3.457-1.474-.54 2.01 2.708-.132 3.058 1.88 2.118 1.852.58-1.491-3.997c-.237-2.584-.74-7.833-.859-8.153-.12-.32.131-3.058.272-4.386l.874 2.587 1.067-1.038 2.003-2.668.915 2.208.802 5.076.957 10.85 4.825 6.846 7.023 9.572 3.689 6.725 2.562 8.333-1.949-3.277c-2.752-4.13-8.327-12.437-8.614-12.62-.286-.184.955 1.828 1.611 2.857l2.606 4.307 3.262 5.336-1.364.239-.238-1.369-1.743.2-1.993.749-2.419-.639-1.164-1.659.599-2.048-1.883 1.528-1.135-.12c-.262-.539-.819-1.661-.955-1.828-.169-.21-.435-3.118-.415-3.308.016-.152-1.073-3.12-1.62-4.586l-2.746-2.978-3.93-4.446 1.201 4.926-3.202-5.906-3.382-4.197 6.739 3.209-3.394-2.279-2.448-2.178 1.018-2.388-2.448-2.179.031-2.108.362-3.417.043-4.026Z"/><path fill="#D9D9D9" d="m81.869 16.647-1.512-.16.627-.51.945.1.865.86-.08.758-.845-1.048Z"/><path fill="#7F84FF" d="M63.438 67.677c-.538.263-1.686.743-1.972.559l1.075.69.656 1.029.817-.49 2.073-1.508 1.324.14-.837.679-2.053 1.319-.559 1.668-1.037 2.578-3.188 1.199 14.628.97 1.405-.62 3.973.42 1.703.18-1.164-1.658 2.21.81 2.279 1.968-.41 2.069-4.48-1.05-.101.95 4.251 1.408 1.602 1.13.815 3.157-.628.51-2.649-.28-1.823.959-3.365-.74-3.136-1.1-4.062-1.389-5.616-1.17-4.5-.86-.637-1.218 3.007.51.06-.57-1.493-.35-1.643-.75.12-1.138 3.854 1.559 8.123 2.778 5.745 1.76 4.919.52.986-.28.08-.76-1.453-.73-4.251-1.408-8.583-2.06-7.865-1.599-1.852-.58-1.485 1.38c.043.196.117.703.069 1.158-.049.456-.399.15-.568-.06l-1.135-.12.2-1.898.46-.72-1.205-1.279-1.634.98-1.525 1.758-1.892-.2-2.13-1.57-4.48-1.049-4.73-.5c-.454-.048-.873.42-1.026.66l-1.585 2.328 1.883-1.529 2.73-.48 5.635.98 4.002 1.96.407 1.578-.362 3.417-1.513-.16-8.752-2.269 1.783-.58 7.23.381c-.697-.65-2.162-1.995-2.448-2.178-.287-.184-2.855-.75-4.102-1.01l-1.256 1.02-1.972.558-.487-.819-1.554.22-1.545 1.948.567.06-1.694 1.549-4.463 2.407-2.322 2.058 4.492-.869-3.288 2.148-2.013.94-.579 1.858-.837.679-.487-.82-.467-1.009-1.752-1.529 8.162-6.623-4.733 3.147-3.687 2.297-3.147.82-.241 2.277.287 2.718-.322 3.038-.848 2.597-.72 3.188 2.041.599 1.084 2.418.157 2.128.895 2.399 2.83-1.429 2.052-1.319 1.657-4.815-1.176.259-1.513-.16-.298-.799-.158-2.128.459-.72 1.026-.659-.866-.86-1.932.18-1.852-.58-.685-2.567 1.385-.43.2-1.898.557 1.978 2.906 1.46 1.356-1.969 1.038-2.578 4.644-4.116 3.666-2.108 2.73-.479c1.051.303 3.19.951 3.325 1.12.135.167 4.144 2.421 6.131 3.527l-2.425 6.654-1.018 2.388-1.376 2.158 1.313 2.058 1.321 3.787.078 2.888-.362 3.417 2.838.3 3.652 3.458 4.271 1.219.261-2.468 5.117 2.269 2.35-.52.95-3.547 1.416-2.537 1.915-3.637 3.219-3.307 2.39-.899 2.26 2.158-.462 4.367 1.553-.22 1.273 2.438 2.239 2.348 2.342-2.248 2.766 2.788c1.666 1.136 5.132 3.576 5.673 4.247.541.672 4.393 1.872 6.252 2.389l7.138 3.058-.261 2.468-2.443 3.197-.461 4.366-.304 6.495 4.13 2.548 1.528 7.264 3.741 4.427 2.517 3.337c.307 1.312.924 4.282.931 5.665.007 1.383-1.505 1.569-2.262 1.489l12.596 2.099 1.964-2.288.301-2.847-2.308-3.507-2.155-6.755-.594-5.246 3.108-.439 7.957-1.078.29-13.599 1.041-6.224 1.138-3.527 3.107-.44.726 2.189 3.333 2.848 1.663.559 1.525-1.758 4.532-1.249c-.949-.676-2.842-2.066-2.826-2.218.016-.152-2.828-1.003-4.251-1.409l.639-2.428 2.709-.29 1.445-.999-1.632-2.668-5.01-10.511-8.233-16.227-3.302-4.956-1.828-4.417-.267-2.907-.934-2.019-4.18-3.897-2.09-1.948 2.646 3.926 1.981 1.17.866.859-1.196.45-1.533.03-.29.928.407 1.58.109.779-1.493-.35-1.543-1.699-1.562-1.509-1.015-1.259-1.473-.54 1.184 1.47.158 2.127-.19-.02-3.024-.895-.252 1.125 1.812.96.805 1.428-1.743.2-1.284-.52-1.494-.35-2.17-1.189-.676-.84-.995-1.448-1.324-.14-.229.36.994 1.448 1.563 1.51 1.622.939 2.528 1.419 1.792 1.149 3.474 1.519 2.987.7c1.178.316 3.568.991 3.704 1.16.135.167-.11.435-.25.549l-1.703-.18-2.141.35-3.136-1.1-3.981-2.149-3.604-2.108-4.428-3.348-2.698-1.629 1.015 1.26.367 1.957 3.096 1.48 1.373 1.488 2.439.45c1.088.563 3.303 1.693 3.454 1.71.152.015-.116.499-.269.739-.617-.194-1.928-.588-2.23-.62-.303-.032-1.361-.4-1.852-.58l-3.156-.91-2.718-1.438-1.702-.18 1.204 1.279 2.915 3.187 4.4 1.81 4.38 1.998 2.769-.86 2.451-1.468 4.839 1.28 2.109 1.758-2.708.29-3.736.949 3.675-.38 3.096 1.48 2.617 2.388 2.288 3.697 2.924 4.916.275 4.636-3.047-.13-5.676-.6-2.629-.47-2.09-1.949-3.683-1.349-.995-1.449-1.502-2.078-4.429-3.348-1.949-3.277.181-1.709 2.29.05 7.479-.169-3.595-.38-4.162-.44-2.419-.64-2.27-.24-5.146-3.807-1.155.07.854 2.778-.995-1.449-1.115-.31-.877 1.06-.619 2.237-1.674 1.359-.278-.99-1.064-2.607 1.285.52-1.124-2.039-2.15-1.379.958-1.818 1.854-3.068 2.027-6.504-2.68 1.828-2.262 1.489-3.388 3.097-2.62 1.259c-1.205-.064-3.687-.237-3.974-.42-.286-.184-.45-1.776-.495-2.548l-3.95-4.257-1.153-3.577-2.27-.24c-.291-.863-.946-2.634-1.233-2.818-.286-.184 1.633.237 2.63.47l.16-1.519c.026-.253-.034-.771-.488-.82-.567-.06-.885-.669-1.034-1.068l-.895-2.398-2.35.519-1.703-.18c-.542.902-1.671 2.78-1.855 3.067-.183.288-1.471 1.252-2.093 1.699l-.825-1.24c-.594.194-1.859.572-2.161.54-.303-.032-1.621.852-2.242 1.299l-1.376 2.158Z"/><path fill="#7F84FF" d="m190.733 202.839-1.485 1.378-19.607-13.59 2.692-3.747-2.256-5.805-3.764-13.259-2.161-12.13-.593-5.246-.923-3.936-2.855-3.758-1.101-5.875-3.517 2.508-3.128.629-4.552 1.438 3.93 4.447 2.586 4.496 3.422 3.818 1.752 1.528-.221 2.089-6.539 7.563-2.273 3.407-1.746 3.846-2.76 2.588-4.38-1.999-.576-1.789 2.961-4.486 2.204-4.565.622-5.885-2.049-2.329-4.638-3.177-4.985-5.326-6.109-7.365-17.118-49.8 20.803.472-2.534-6.794-2.084-9.243-1.143-1.848-4.618-3.368-3.873-1.37-6.957-4.766-4.438-5.076-9.45-11.94 1.009-4.117 2.184-4.376-1.072-4.337-1.769-4.986-7.51-10.392 2.71-.29 5.325 2.1 6.828 4.177 3.922 2.718 3.253 3.607-2.499.12a179 179 0 0 1 1.88 2.118c.135.168.161 1.489.158 2.128l2.706 3.358 1.034 1.069.078 2.888 4.652-2.388 7.281-1.918 3.604 2.109 3.405.36 3.598-3.267 4.529 2.398 1.619 17.256 1.149 7.224-1.009 4.116-1.104 10.442 10.388 22.981 2.189 2.808-2.621-9.572 8.883 11.881 2.038 4.246c.035 1.476.275 4.636.952 5.476.676.839 2.714 5.086 3.649 7.104l.862 4.506 2.276 5.616 6.567 19.314c.532 2.808 1.66 8.545 1.915 9.033.318.609 4.721 11.441 5.188 12.45.374.807 6.753 11.527 9.895 16.787l3.858 6.934-2.104 3.617-3.098 2.168-3.337.799Z"/><path fill="#B1B5FF" d="M134.785 51.802c-1.55-.42-4.654-1.221-4.67-1.07l-1.573.41-.668.89-2.331.329-3.156-.91-1.952.37 1.304.33 2.867 1.839c.651-.124 1.994-.404 2.161-.54.168-.136 1.259-.443 1.783-.58l2.041.6.958-1.818 2.697 1.63 2.947 1.079-2.408-2.559Z"/><path fill="#B1B5FF" fill-rule="evenodd" d="m162.617 110.606 1.336-1.778 1.294 2.231 2.266 3.904 2.067 5.785 1.459 6.105 3.15 8.204 2.623 7.763 4.623 8.743c.141 2.895.413 8.759.381 9.063-.032.303 5.972 12.277 8.978 18.225l4.337 6.026 5.908 9.262c-.001 1.216-.011 3.723-.043 4.027-.032.304-1.98 1.838-2.95 2.567l-2.999 1.219-2.677-1.819-3.024-3.967 3.881 3.098 3.993.23-1.224-1.089-2.987-.699-2.597-2.579-1.043-2.797c1.559.932 4.67 2.874 4.638 3.177-.032.304 1.5.287 2.27.241l1.614-.79-2.001-.979-3.462-3.437 1.421 2.837-3.563-2.488-3.193-4.177-2.717-1.439-2.328-3.317-1.482-2.268-1.402-3.028-1.295-11.271-1.508 5.216-1.115-.31-.221 2.088-.596-1.599-2.227-4.266 1.267-2.938-1.124-2.038-1.063-2.608-.347-2.148 1.333 1.868 3.15 8.204-1.448-8.024 2.663 7.385-.593-5.246-1.809-4.606 3.601 5.755-.903-4.127-3.122-6.664-1.341-3.597-1.422-2.838-1.611-2.858-.665-2.758.745 1.999 2.827 2.218-.975-1.638-1.201-4.926-.894-2.398c-.438-.687-1.347-2.101-1.482-2.269-.135-.168-1.568-2.661-2.268-3.887l-1.679-4.016c-.462.143-1.419.387-1.554.219s-1.589-1.255-2.299-1.778l.241-2.279.381-3.606.556 1.978 2.428 2.368 1.365-.239.14-1.329c.016-.152-.138-1.103-.218-1.559l-2.488-1.799-1.502-2.078-1.892-.2-4.718-2.419 1.932-.179 1.107-1.419 2.27.24.499-1.099 2.528 1.419Zm3.124 15.687c.988 1.512 2.994 4.617 3.113 4.936.119.32 1.084 2.418 1.551 3.428l1.39 4.946 1.152 3.577.118 2.508c.235.792.739 2.42.874 2.587.135.168.58 1.149.786 1.619l1.401 3.028c.375.679 1.154 2.118 1.273 2.438.119.32.933.226 1.324.14l.27-.74-1.293-2.248-1.711-1.908-.895-2.398-.375-3.687-1.918-5.386-.782-5.266-1.233-2.817-2.517-3.338-.366-1.958.18-1.709-.656-1.029-1.244-.899-1.365.239-.418.34 1.341 3.597Zm29.645 63.41.198 1.748-2.05-2.328-1.86-2.308-4.039-5.226-3.262-5.336-2.984-4.347-.533-5.815-.287-2.718 1.577 8.613 6.813 9.743 3.87 5.016 2.557 2.958Z" clip-rule="evenodd"/><path fill="#B1B5FF" d="m136.68 116.883.565 3.707.418-.34 1.385-.429 2.041.599.157 2.129.505 4.276-1.396 2.348 1.742-.2 1.353 1.679-1.195.45-.966.089-2.201.919.785 1.619 2.52-.309 1.602 1.129 1.84 2.498-.946-.1.278.989 1.224 1.089.806 1.429 1.393 1.299.636 1.219.468 1.009.536 2.169.794 3.347 1.76 3.257 1.8 2.878.946.1-.298-.799-1.909-3.657-1.76-3.258-.625-3.137 1.522 1.888 1.043 2.798 2.308 3.507 1.502 2.079.785 1.618-1.287 3.128-1.625 2.707-.428-1.389.112-2.867-1.284-.52-1.574.41-.616-1.409-.258-1.179-.447-1.199-1.035-1.07.631-4.156-2.42-.64-3.035-2.048-1.961-1.359-1.7-3.827-1.611-2.858-1.115-.31-.478.909-1.265-.709-.745-1.999 1.158-3.716-1.135-.12-.926-.29-1.244-.9-.894-2.398-.009-1.728.141-1.329.768-1.838 1.525-1.759-1.405.62-1.335 1.778.2-1.898.849-2.598 3.03-3.327Z"/><path fill="#B1B5FF" d="m148.173 131.344-3.217-.34 1.692 2.098 1.333 1.869 2.19.999 2.101.03 2.072-1.508 3.458-1.938 4.016-3.607-.789 2.028-.619 2.238-1.706 3.467 1.944-2.098 1.396-2.348.909-3.167.301-2.847-1.445.999-1.743.199-.957 1.819-1.545 1.948-3.168 1.009-2.113 1.888-1.614.789-1.413-1.109.27-.74 1.344-.049 1.087-1.229-.508-.63-3.276.23ZM136.368 23.942l-1.812-.96-.587.13-.25.55.129.59 1.305.33.467 1.008.974 1.639.837-.68-.108-.779-.677-.84-.278-.988ZM131.237 22.058l-1.075-.69-.418.34.467 1.009 2.149 1.378.061-.569-1.184-1.468ZM132.552 20.47l-1.702-.18-.189-.02-.23.36 1.244.899 1.164 1.658.329-1.309-.616-1.408ZM119.499 53.45l.539-1.479-2.081-.22-6.392-1.06-1.345.05.06-.57-1.034-1.068 1.484-1.379-1.304-.33c.173-.43.322-1.233.37-1.688.048-.456-.112-1.356-.198-1.749l-1.324-.14c-.123.563-.374 1.727-.39 1.878-.016.152-.911 1.376-1.356 1.969l.1-.95.491-2.827-.278-.99-.439.53-1.038 2.578-1.106 1.419.986-.28-1.964 2.288 1.812.96 2.54-.5-.121 1.139-.619 2.238 1.175-.26.161-1.518.696.65.855 2.777 1.47 4.186 3.044 3.778 5.217 1.319-3.156-.91-3.124-3.017-1.99-2.898-1.132-3.767-.008-1.729 2.648.28 4.292 1.03 2.459.26Z"/><path fill="#222461" d="M82.466 12.107c.053.882.153 2.691.135 2.865l-.023.217-1.514-.16.115-1.085 1.287-1.838Z"/><path fill="#B1B5FF" d="m108.025 37.073-.367-1.958-.636-1.22c-.492-.179-1.512-.543-1.663-.559-.151-.016-.541-.313-.717-.46l.749-1.648.845 1.05 2.259 2.158.616 1.408-.14 1.33c-.016.151.264 1.115.407 1.578.016.45.041 1.425.008 1.729l-.1.949c-.016.152-.398.15-.588.13-.036-.26-.067-.814.101-.95.167-.136-.269-.476-.508-.63l-.238-1.368-.028-1.539ZM50.608 93.197l2.425-6.654-1.1 6.794.418-.34.12-1.138 1.018-2.388 2.193-2.648-.522 4.936 1.703.18 2.718 1.44 5.065 4.566 3.594.38.198 1.748c-.927.926-2.818 2.774-2.97 2.758-.151-.016 1.69.306 2.629.47l-1.376 2.158-4.374 3.376-2.83 1.429-4.4-1.809-3.225-2.069-.516-2.358c-.295-.223-.953-.753-1.224-1.089-.27-.336-.032-.899.12-1.139l3.845-.169 1.267-2.938-2.007-6.355.525 4.087-.361 3.417-1.703-.18-1.184-1.469-.046-4.996Z"/><path fill="#B1B5FF" d="m105.938 25.91-1.224-1.09 2.717 1.44c.332.482 1.029 1.49 1.164 1.658.135.168.215.983.238 1.369l1.602 1.13c.501.692 1.498 2.115 1.482 2.267-.02.19.786 1.62 1.293 2.249.507.63 1.502 2.078 1.671 2.288.135.168.553 1.402.745 1.998-.003.64-.015 1.957-.031 2.108-.016.152-.406 1.43-.599 2.049l-1.763.39-1.207 2.367c-.309-.097-.96-.332-1.095-.5-.136-.168.05-1.082.16-1.518l.35-1.5.837-.678-1.691-2.099.181-1.708c.268.476.835 1.508.954 1.828.119.32 1.131.76 1.623.94l.12-1.14.648-.699-.298-.8-1.285-.519-1.034-1.069.648-.7-1.583-1.318 1.196-.45-1.543-1.699-3.523-2.868L105 27.538l.837-.68 2.239 2.349-1.124-2.038-1.014-1.26Z"/><path fill="#1C1D3B" d="m67.072 37.16-1.831-.77 1.892.2c.151.017.806.214 1.115.31l.837-.679.499-1.099 1.215-.64 1.703.18 3.067-.059 1.812.96 1.582 1.318.946.1 1.811.96-.33 1.309-1.255 1.019-.748 1.648.18-1.708 1.566-2.138-1.284-.52-1.325-.14-2.09-1.949-1.513-.16-3.216-.34-1.385.43-.688 1.079-1.046.85-1.514-.16Z"/><path fill="#B1B5FF" d="m100.44 47.212-1.453-.73-3.644-1.729-5.085-4.377-4.799-1.659-9.078-4.607-4.827-3.197-2.001-.98-1.144-1.848-1.553.22-2.58.878-2.75.67c-.594.193-1.85.495-2.12.16-.271-.337-.862-1.5-1.124-2.04l.1-.948 2.42.64 2 .979.837-.68-.656-1.029c.146-.176.514-.521.817-.49.303.032 1.09-.652 1.445-.998l.478-.91-3.316.61-2.142.349-1.562-1.509-.238-1.369 1.216-.64 1.155-.069 1.514.16.318.61-1.365.24-1.743.199.488.82.885.669 1.953-.37.877-1.059-.278-.989-1.035-1.07 1.364-.239 1.474.54 1.404-.62 3.776-1.328 5.18-1.948.837-.68 2.849-1.618 1.195-.449 1.514.16 2.29.05 1.892.2.717.46.656 1.03-.089-.97 1.075.69.966-.09.58-1.859-1.124-2.038-1.611-2.858 1.373 1.489 1.9 1.928.367 1.959 2.25.43 2.001.98 2.927 1.268 2.17 1.19 2.698 1.628 1.602 1.13 2.021.79 1.771 1.338.806 1.43 1.88 2.118 1.981 1.169-.499 1.099-1.912-.01.487.819 1.394 1.299.636 1.219-.12 1.139.656 1.03 2.07 2.138-.012 1.918-1.115-.31.499-1.099-1.522-1.889-1.204-1.279-.467-1.009c-.332-.483-.762-1.846-.746-1.998.016-.152-1.373-1.489-2.069-2.139l.14-1.328 2.041.6.189.02-1.055-.88-.994-1.449c-.528-.44-1.62-1.323-1.772-1.339-.189-.02-2.25-.43-2.439-.45-.152-.016-.893-.606-1.244-.9l-.427-1.388c-.787-.403-2.397-1.213-2.549-1.23-.151-.015-2.564-1.678-3.752-2.508l.467 1.01-.607.32c-.408-.364-1.258-1.132-1.394-1.3l-1.014-1.259-1.454-.73-1.493-.35-1.554.22 1.852.58 4.328 4.297 2.348 3.128 1.261 4.356.625 3.137.267 2.908-.482 4.556-.6 2.048-1.126 1.609-.648.7-.27.739.508.63.797-.3.648-.7 1.714-1.738.47-2.638.052-2.298-.275-4.636 1.023 2.987-.137-2.318.825 1.24.983 3.367c-.023.829-.037 2.53.098 2.697.135.168-.595 1.41-.978 2.009l-.788 2.028-.12 1.139 1.026-.66.668-.889.648-.699.338.42-.519 1.288-.917 1.44-1.884 1.528-.567-.06-.278-.99-.757-.08Z"/><path fill="#7F84FF" d="m87.023 18.532-.358-.23-1.345.05-.837.68-1.932.18-2.48-.07.697.649 1.473.54c-.51.01-1.571.025-1.722.01-.152-.017-.906-.48-1.265-.71l-1.034-1.07.31-1.118.896-1.25 1.236-.829 1.244.9 1.393 1.299 1.683.37 1.553-.22 1.285.52-.06.57-.737-.27Z"/><path fill="#fff" d="m81.768 17.787-.737-.27-.608.32c.176.146.566.443.717.46.151.015.667.326.906.479l.229-.36-.507-.63Z"/><path fill="#7F84FF" d="m87.5 15.708.717.46.338.42.966-.09.6-2.049-2.566-4.686-1.035-1.07-.845-1.048c.686 1.352 2.054 4.094 2.038 4.246-.02.19.765 1.809.745 1.998-.016.152.026.963.049 1.35l-1.007.469Z"/><path fill="#222461" d="m85.252 11.822.441-4.176.636 1.219.826 1.239.765 1.808.577 1.789.028 1.539-1.006.47.089.968-.866-.859-1.095-.5-2.101-.03-.737-.27 1.216-.639 2.08.22.44-.53-.866-.859-.427-1.389Z"/><path fill="#40449E" d="M189.282 203.836c.616 1.409 15.284 14.67 16.15 15.529l-52.292-37.394-20.189-8.085-32.976-6.557c-13.386-1.863-40.574-5.634-42.24-5.81-1.664-.176-15.01-3.378-21.475-4.957l-13.665 2.586c-1.233 1.405-3.756 4.402-3.988 5.145-.232.744 1.023 11.434 1.68 16.686l-10.882 8.832-2.93-10.292-3.347-9.952 3.288-2.148c2.429-3.07 7.617-9.445 8.94-10.38 1.324-.935 6.849-4.459 9.446-6.104l33.496 5.269 55.273 7.379 13.501 2.579 13.957 5.507 5.665 2.518 21.886 15.559c6.695 4.227 20.209 12.963 20.702 14.09Z"/><path fill="url(#b)" d="M-37.841-82.195h223v262h-223z" opacity=".8" style="mix-blend-mode:hard-light"/></g><defs><linearGradient id="b" x1="136.276" x2="-48.491" y1="112.927" y2="34.64" gradientUnits="userSpaceOnUse"><stop stop-color="#E7465F"/><stop offset=".281" stop-color="#9951D0"/><stop offset=".563" stop-color="#584EB9"/><stop offset="1" stop-color="#292A67"/></linearGradient></defs></svg>