<svg xmlns="http://www.w3.org/2000/svg" width="170" height="188" fill="none" viewBox="0 0 170 188"><mask id="a" width="170" height="203" x="0" y="0" maskUnits="userSpaceOnUse" style="mask-type:alpha"><path fill="#C4C6F3" d="m159.356 170.926-5.58.558v2.79l2.232 1.674 5.022 3.348 3.348-1.674 3.348-3.348-1.116-3.348h-7.254Z"/><path fill="#46498E" d="m151.547 173.154 2.232-1.674.558 1.116 5.022 2.233 5.58 5.022-1.674 3.348-3.348 1.674-4.464-1.116-3.906-1.116-1.674-2.232-.558-2.232 2.232-2.232v-2.791Z"/><path fill="#171941" d="M81.166 193.04h7.18l3.916.326 14.685 1.305 16.643 1.958 7.832 1.632 12.728.979 8.484-2.284 3.264-1.632 2.284-1.958-1.632-6.2-.652-1.958-1.958-3.916-.979-.979-.327-1.306.653-2.284-.326-4.895-1.306-2.285-3.138-1.631h-1.43c-.218.108-.718.261-.979 0-.262-.261-.544-1.414-.653-1.958v-3.59l-.979-2.284-.979-1.306-1.632-4.242.653-3.59c-.327-1.088-1.044-3.328-1.306-3.59-.261-.261-1.196-2.937-1.631-4.242l-1.958-2.284-.979-2.611-3.264-2.937-2.61-.979-6.527-.326-13.054.652-3.589.327-1.958 1.305-4.895 2.284-3.264 2.611 1.632 2.611.653 3.263-.327 8.485-1.305 2.284-1.305 1.958.326 1.632h1.632l-1.632 1.958h-2.284l-1.306-.326-1.305-.653-1.632-.979-1.958 1.632-2.937 1.631c-.109 1.088-.261 3.329 0 3.59.261.261-1.414 1.849-2.284 2.611l-1.306 1.958-.652 2.61-.98 3.264v5.874l-1.631 2.284-1.305 2.937-.653 1.632 4.242 1.632Z"/><path fill="#D9D9D9" d="M108.526 143.752c-2.611-.109-7.897-.326-8.159-.326l-.326.326 1.305.326 6.527.653 15.664-.326 2.611-.653h-17.622Z"/><path fill="#D7D8EE" d="m85.718 186.514 1.631-.979.98 1.632-.327.979-.979.326v3.264h-4.242l-4.57.326-1.63-1.632.652-2.61 2.284-2.285 2.937.979h3.264Z"/><path fill="#9397EB" d="M80.504 178.677c0-.261.436-3.808.653-5.548h2.937l1.958 2.937.327 3.59 1.958-2.937.326.326v5.548c0 .261-.653 2.066-.979 2.937l-1.632.979h-3.59l-2.937-.979.653-3.264-.326-2.284c.217-.326.652-1.044.652-1.305Z"/><path fill="#2D307A" d="M88.3 166.27c.544 0 1.763.065 2.285.327l-1.305 3.916.978 3.589 1.306-2.61 2.284-.979.653 1.958-1.306 3.916-1.305-.653-1.632 1.632-1.957-.979-1.959 2.937-.326-3.264-1.958-2.61-2.61-.327.326-1.958 1.958-1.958.979-4.242h2.284l1.305 1.305Z"/><path fill="#AAADF1" d="M84.714 164.965c-.217 1.305-.718 3.981-.979 4.242l-1.631 1.958h4.242l3.59 2.611-.653-3.263 1.305-3.916-2.284-.327-1.632-1.305h-1.958Z"/><path fill="#D4D5FE" d="m83.42 179.655-2.937-.979-.653 1.305.326 2.284h.653l2.61.653 2.285 1.632.98-.979-.98-1.958-2.284-1.958Z"/><path fill="#383DAB" d="M94.517 163.661h-.652v.652l-2.285 2.285h1.306l.979-.653 2.61-3.59-1.958 1.306Z"/><path fill="#4B51C2" d="m93.565 164.312-2.61 2.284-2.285-.326-1.632-1.305H85.08l.98-1.958 1.957-.979.327-1.632 3.263-2.611 1.632 3.59.326 2.937Z"/><path fill="#383DAB" d="M94.497 167.575h2.284l-2.61 2.937-.653.326-1.958.653-1.306 2.284-.326-1.305-.653-1.958 1.306-3.59 2.284-.652 1.632 1.305Z"/><path fill="#9397EB" d="m94.184 170.18 2.61-2.284.654-.979 2.61-1.632v4.895c0 .522-.435 2.611-.652 3.59l-.653 3.263-.653 1.958-2.937-.326-1.958-2.284.98-3.59v-2.611Z"/><path fill="#383C98" d="m98.426 167.905.98-2.284.326.326.652 3.59-.652 4.243-1.632 4.242-.326-.979v-1.632l-.327-1.631v-3.917l.98-1.958Z"/><path fill="#9397EB" d="m105.933 135.919 1.632-1.306.652.653c-.544.435-1.697 1.305-1.958 1.305-.261 0-.326.871-.326 1.306l-1.632 1.958-.979 1.305-.979 1.632h-1.958c-.261 0-.762 1.305-.98 1.958l1.959 2.284v1.305l.326 3.264v4.242l-.979 1.958-.653 2.285v2.61c0 .261-.217 1.632-.326 2.285l-1.305.979c-.436.326-1.371 1.044-1.632 1.305-.261.261-1.85.326-2.61.326l-.98-1.305c.435-.435 1.306-1.371 1.306-1.632 0-.261.435-.761.652-.979l1.306-1.305c.562-.469 1.657-1.293 2.117-1.345-.433-.226-1.487-.872-2.117-1.266v-1.958c.326-.435.979-1.37.979-1.631 0-.262.87-.762 1.305-.979v-7.833l.326-1.631c-.217-.544-.718-1.697-.979-1.958-.326-.327-.978-1.632-1.304-1.632-.262 0 .108-.87.326-1.305l.653-2.285 2.61-.652 3.264-.653 2.284-1.305Z"/><path fill="#40427D" d="m155.226 185.517-1.306-3.263v2.937l.979 2.937v2.284l-1.631 4.243 1.958-.653 1.305-1.958-.979-3.916.653-1.305-.979-1.306Z"/><path fill="#1C1E3A" d="m94.3 157.387 1.107 1.107 1.108 1.107 1.107 2.214v2.215H94.3l-2.214-1.107-1.107-2.215v-1.107l3.321-2.214Z"/><path fill="#9D9FD6" d="m151.272 181.615 1.305-2.611.98 1.632.326 3.263.326 2.284.979 1.958v2.285l-.652 1.631-.979 2.611-1.632.653-1.632 1.958-1.632.979-1.305-.327-.653-2.61-.326-3.916 1.958-1.306 1.958-3.916.979-4.568Z"/><path fill="#C7C9FE" d="m154.591 181.939-1.632-3.263.979 3.589.979 2.611 1.305 2.285-.652 1.305.979 3.59-1.306 1.958-2.937 1.305-2.937 2.611 3.264-.327 3.589-.652 1.306-1.958 2.61.652 2.937.979 1.306-1.305h4.242l.979-.653v-1.631l-1.305-.653-2.937-.979-2.285-.979-2.61-.326-2.285-.653-.979-.979v-1.305l-.979-2.285-1.631-2.937Z"/><path fill="#CED0FE" d="m151.98 169.539-.979-.652.326 1.631-1.305 1.632-.653 1.958 1.306.653.652 1.305.653 3.59 1.632-1.632v-6.853l-1.632-1.632Z"/><path fill="#2D2E52" d="M151.321 175.741c-.261 0-1.196-1.087-1.631-1.631l-4.243-.653 4.569 2.611 1.958 3.916-.326-2.285c0-.652-.065-1.958-.327-1.958Z"/><path fill="#46498E" d="m148.046 171.498-1.958 1.632 1.958.652 2.611.979-1.306-.979.653-1.631 1.305-1.632-.652-1.958-3.264-.979.979 1.632-.326 2.284Z"/><path fill="#C7C9FE" d="m149.979 176.071-3.264-1.958-.652 1.632-.327 3.916 1.306 11.422.326-.327.979-.979 1.306-2.284.979-3.263.979-4.243-1.632-3.916Z"/><path fill="#9194E1" d="m138.89 175.74-1.632-.327-.326 1.632v3.59c0 .261.652 2.066.979 2.937l1.631 1.958 7.18 5.221-.653-8.158-.326-6.201.653-2.284-2.611-.979.326 1.632h-2.284l-2.937.979Z"/><path fill="#AAADF1" d="m90.25 161.701-1.959-1.305 3.264-2.611 1.957 4.569-.978.979-1.632.326-.653-1.958Z"/><path fill="#BABDFF" d="M142.525 159.094c-.326-.326-2.611-.326-2.937-.653l2.937 6.527-.326 5.874-.327 3.916h1.958v-1.631l2.285.326 1.958-1.958.326-1.958-.979-1.632-.979-1.305-.979-3.264c-.87-1.305-2.676-3.981-2.937-4.242ZM94.176 183.571l3.59-1.958 1.631.327 3.264.979c1.74.217 5.352.652 5.874.652.522 0 10.225.218 15.012.327h5.874l6.2-.653 1.958.326.979 1.306 4.242 3.589c.871.653 2.742 2.024 3.264 2.285.653.326.653 2.61.653 3.589 0 .979.652 2.611.652 4.243 0 1.631-2.937 1.305-3.59 1.305-.522 0-4.351.87-6.2 1.306l-11.748.979c-4.569-.327-13.902-.979-14.685-.979H99.071l-11.095-2.285-1.958-2.284.652-3.264.327-1.958v-2.937l.979-.326.326-.979 2.284-.326 1.306-1.306 2.284-1.958Z"/><path fill="#3A3FA0" d="m98.1 179.002.653-.326 1.958.652 1.305.653 5.874.979H136.934c.327 0 .653 1.305.653 1.958 0 .522-1.088.435-1.632.327l-7.506.652h-8.484l-11.748-.326-8.159-1.306-1.958-.652-.653-.653v-.979l.653-.979Z"/><path fill="#C4C6F3" d="m90.269 177.362-1.632-.653v5.875l-.979 2.937.653 1.631 2.61-.326 3.59-3.59 3.264-1.631v-.653l-.327-.653.327-1.305-2.61-.326-1.959-2.285-1.305-.653-1.632 1.632Z"/><path fill="#383C98" d="m93.556 179.981 1.631-1.305 2.611.326-.326 1.305.652 1.306-2.61.979-2.611 2.284c-.326-.217-.979-.718-.979-.979s.217-1.196.326-1.632l1.306-2.284Z"/><path fill="#4C51BE" d="m101.744 142.778.652-1.305h.327l3.59.652h3.589l4.243.327 5.874-.327h10.769l6.2-.326c.218.326.653 1.044.653 1.305 0 .261.218.762.326.979l-.326 2.285c-.109.544-.392 1.697-.653 1.958-.261.261.327 1.631.653 2.284-.109 1.088-.326 3.329-.326 3.59 0 .326.326 3.916.652 4.242.261.261-.544 2.502-.979 3.59l-.326 5.221v4.569c0 .653-.653 2.937-.653 3.263 0 .261-.652 4.025-.979 5.874h-27.412l-5.874-.979-2.937-1.305.326-1.305c.109-.87.326-2.676.326-2.937 0-.261.218-1.414.327-1.958l.326-2.285v-10.442l.979-1.632.326-1.958v-4.895l.327-3.59-.653-.653-.653-1.305-.326-1.632.326-.979 1.306-.326Z"/><path fill="#BFC2FF" d="m106.279 137.231 1.306-1.305h3.589l9.464.326h6.201l6.526-.326 1.306 1.958 1.958 1.958.326 1.958c-.544.109-1.697.326-1.958.326h-5.221c-3.046.109-9.203.261-9.464 0-.261-.261-4.243.109-6.201.327l-6.853-.327-4.568-.652 1.305-.979 1.632-1.632.652-1.632Z"/><path fill="#A9ADF8" d="m113.471 126.141 2.611-88.111 2.61-.98H122.608l1.958.327 2.937.653.979 88.111-1.631.652h-5.548l-7.832-.652Z"/><path fill="#9297F9" fill-rule="evenodd" d="m124.539 37.364 2.937.653 1.306-.653-.326-1.305-.327-1.632v-.979l-.326-1.958.653-.652 1.305.652V29.86l.653-1.306 1.958.327.979-.98.326-1.631v-1.305l.653-1.632h1.631v-.98l-1.305-.326-3.263-1.305-.653-.652v-.98l.653-1.305.326-1.631.653-1.959V11.91c0-.261-.653-.979-.979-1.305l-1.632-3.264h1.632l4.242-.652 5.221-1.306 3.264-1.958-.327-1.305-1.305-.979-2.611-.326-12.727 1.631c-.217-.108-.979-.718-.979-.979 0-.26-.217-.761-.326-.979h-1.306V2.12l-.979 1.632-3.916-1.632-3.916-.979-4.242.653-2.937 2.284.326 1.958 2.285.326 2.284.327 2.611 1.305 1.631-.653 2.611-.652-3.59 2.937 2.611.326-.979 4.569-4.569 1.631v1.306l.327.979-1.632 1.631H108.549c.326.436 1.044 1.306 1.305 1.306.261 0 .979.87 1.306 1.305-.109.435-.392 1.306-.653 1.306-.245 0-.123 1.1-.046 1.79.025.229.046.412.046.494 0 .261 1.087.761 1.631.979h1.632l.979.653-.326.979-.653 1.305.653.979.652-.653.979-.326v2.61l-.326 3.59v.98l.326.652 2.611-.979H122.581l1.958.326Zm2.611-30.023h1.632l1.958 3.264.326 1.958v1.631l-.652 2.611-1.306.326c-.652-.761-1.958-2.35-1.958-2.61 0-.261-.435-2.067-.652-2.937l-.653-1.958V7.994l.158-.94 1.147.287Z" clip-rule="evenodd"/><path fill="#2D2E52" d="m142.475 165.296-2.937-6.526-1.305 1.305v3.916l-.653 5.221 1.306 6.201 2.937-.653.652-9.464Z"/><path fill="#8388F5" d="m136.982 137.557-3.589-1.631.979 1.958 1.958 1.305v1.632l1.305 2.611.326 2.284 1.306.653.979 1.305.652 2.611-.326.326-1.632.653h-1.305l-.326 2.284.326 1.632v2.937l.326 1.958h.327l.979-1.632h.979l2.61.326 1.632 2.937V158.117c-.326-.762-1.044-2.415-1.305-2.937-.261-.522-.109-1.741 0-2.285l.653-4.895c-.436-1.088-1.306-3.328-1.306-3.589 0-.262-1.305-1.415-1.958-1.958l-2.611-.653.653-.326-.653-2.611-.979-1.306Z"/><path fill="#2D2E52" d="m139.542 146.36-1.631-.653-.327.653-.652 1.305v1.632l.979 1.631 1.305.327 1.632-.653v-1.958l-1.306-2.284Z"/><path fill="#4C51BE" d="m115.076 16.818 3.263-2.611-4.569 1.632-.326 1.305v.98l-1.305 1.63-1.632-.326-1.958.653 1.305 1.305.979.98-.652 1.631v1.958l1.305.98-.653-1.306v-1.306l1.306-1.957-2.285-1.632h2.285l2.937-1.632v-2.284Z"/><path fill="#D8459E" d="m125.196 8.978.327-1.958V8.65l-.327.98-.326.326h-5.548l4.243-.327 1.631-.652Z"/><path fill="#4C51BE" d="m126.22 1.8-.261-.653-.392-.653h-.979l.979-.326.392.326.261.653V1.8ZM111.832 127.434l1.306-.979.326-.326c1.305.109 3.981.326 4.242.326.327 0 3.916.327 4.243.327.261 0 2.828.108 4.242 0l1.632-.327.652-.326.327.653.326.652.326.653v1.632l.653.979.326.979 1.632.979 1.305 1.631-.326 1.632-5.221.326h-8.811l-11.096-.326v-2.611l1.305-.979.327-.652.979-.653.979-.653.979-1.631-.653-.327v-.979Z"/><path fill="#9297F9" d="m114.45 132.014-3.916-.979-.653.326-.652.98c1.414.217 4.307.652 4.568.652h5.548l5.222-.326-5.222-.326-4.895-.327ZM126.873 130.049l2.285-.326.652.652-.652.327c-.544.108-1.697.326-1.958.326h-8.485l-3.916-1.305h1.305l3.264.326h7.505Z"/><path fill="#4C51BE" d="m120.005 7.357 1.632-1.306-1.959.653-.652.326 1.305-.326-1.305.98.979-.327Z"/><path fill="#2F3381" d="m113.453 180.311.327-9.463h-.653l.326 9.463Z"/><path fill="#2F3381" d="m113.463 170.19-7.18-.327 7.18 1.306 21.538-.979h-21.538ZM121.647 169.856v-10.524l-.326.081-.327 5.222.653 5.221Z"/><path fill="#2F3381" d="m136.931 159.754-28.718-.653h16.643l12.075.653ZM107.241 159.094l.326-9.137-.979 9.137h.653ZM109.536 148l-8.159-.652V148l2.611.653 5.548.653h19.253c.262 0 5.766-.435 8.159-.653v-1.305l-9.015.652h-18.397Z"/><path fill="#353999" d="m127.485 38.02 1.305-.652-.979-.979-1.958-.326-1.632-.327-1.631.327-.653-.653h-2.611l-3.59.98v.978l.327.653 2.61-.98h4.569c.261 0 2.937.654 4.243.98Z"/><path fill="#4C51BE" d="M133.715 26.278v-1.305l-.653 1.631-.652 1.306-1.958-.327-.653 2.285.653-1.306 1.958.327.979-.98.326-1.631Z"/><path fill="#5357B5" d="m94.315 158.492 3.321-2.215 1.107 5.536-2.214 1.107-2.214-1.107V158.492Z"/><path fill="#B1B4FB" d="m140.779 154.06 1.107-3.322-3.321 4.429v2.214l4.428 1.107-1.107-2.214-1.107-2.214Z"/><path fill="#8083D8" d="m139.672 147.424-1.107-1.108 1.107 4.429 1.107-1.107-1.107-2.214Z"/><path fill="#4B51C2" d="m43.64 185.364-10.597 5.489-9.273-.784-7.715-1.02-6.858-2.117 3.975-4.704 7.948-2.352 1.325-3.92 13.247-6.272 6.624 8.624 1.325 7.056Z"/><path fill="#CED0FE" d="m42.97 176.328-1.707 3.609 3.022-1.543 2.147 4.016 2.76 2.416 1.224-3.201 2.057-1.252 5.43-.436-2.082-4.874-4.817-1.165-5.298-1.281-2.735 3.711Z"/><path fill="#46498E" d="m44.97 188.216 2.111 4.908 3.114-4.071.209-7.366-1.293 2.408-2.691-1.622-2.147-4.017-3.02 1.019-2.099 8.236 2.372.516 3.444-.011Z"/><path fill="#AAADF1" d="m30.277 178.151-8.017-2.822 13.361-5.645 6.83 8.467-2.821 3.528-6.68.706-2.673-4.234Z"/><path fill="#383C98" d="m2.621 180.628 1.827-2.476 2.375 2.117-.034.978.695 2.476-1.723 3.675-3.834 2.516c-.348-.413-1.042-1.362-1.042-1.858 0-.495.231-2.269.347-3.095l1.39-4.333Z"/><path fill="#C4C6F3" d="m6.038 179.13-1.59-.978-.146 10.882-1.042 5.571.694 3.095 2.779-.619 3.82-6.809 3.473-3.095v-1.238l-.347-1.238.347-2.476-2.778-.619-2.084-4.333-1.39-1.238-1.736 3.095Z"/><path fill="#383C98" d="m9.543 184.082 1.737-2.477 2.778.619-.347 2.477.694 2.476-2.778 1.857-2.778 4.333c-.348-.413-1.042-1.362-1.042-1.857 0-.496.231-2.27.347-3.095l1.39-4.333Z"/><path fill="#2D307A" d="m66.208 171.801 6.533 7.409 2.913 9.013-5.419 1.652-9.965-1.139H49.646l-1.253-9.526 17.815-7.409Z"/><path fill="#9397EB" d="m63.833 167.566 6.532 6.351 2.376 5.292-5.345 2.117-9.502 3.176-9.501-5.293 4.75-6.35 10.69-5.293Z"/></mask><g mask="url(#a)"><path fill="#C4C6F3" d="m159.356 170.926-5.58.558v2.79l2.232 1.674 5.022 3.348 3.348-1.674 3.348-3.348-1.116-3.348h-7.254Z"/><path fill="#46498E" d="m151.547 173.154 2.232-1.674.558 1.116 5.022 2.233 5.58 5.022-1.674 3.348-3.348 1.674-4.464-1.116-3.906-1.116-1.674-2.232-.558-2.232 2.232-2.232v-2.791Z"/><path fill="#171941" d="M81.166 193.04h7.18l3.916.326 14.685 1.305 16.643 1.958 7.832 1.632 12.728.979 8.484-2.284 3.264-1.632 2.284-1.958-1.632-6.2-.652-1.958-1.958-3.916-.979-.979-.327-1.306.653-2.284-.326-4.895-1.306-2.285-3.138-1.631h-1.43c-.218.108-.718.261-.979 0-.262-.261-.544-1.414-.653-1.958v-3.59l-.979-2.284-.979-1.306-1.632-4.242.653-3.59c-.327-1.088-1.044-3.328-1.306-3.59-.261-.261-1.196-2.937-1.631-4.242l-1.958-2.284-.979-2.611-3.264-2.937-2.61-.979-6.527-.326-13.054.652-3.589.327-1.958 1.305-4.895 2.284-3.264 2.611 1.632 2.611.653 3.263-.327 8.485-1.305 2.284-1.305 1.958.326 1.632h1.632l-1.632 1.958h-2.284l-1.306-.326-1.305-.653-1.632-.979-1.958 1.632-2.937 1.631c-.109 1.088-.261 3.329 0 3.59.261.261-1.414 1.849-2.284 2.611l-1.306 1.958-.652 2.61-.98 3.264v5.874l-1.631 2.284-1.305 2.937-.653 1.632 4.242 1.632Z"/><path fill="#D9D9D9" d="M108.526 143.752c-2.611-.109-7.897-.326-8.159-.326l-.326.326 1.305.326 6.527.653 15.664-.326 2.611-.653h-17.622Z"/><path fill="#D7D8EE" d="m85.718 186.514 1.631-.979.98 1.632-.327.979-.979.326v3.264h-4.242l-4.57.326-1.63-1.632.652-2.61 2.284-2.285 2.937.979h3.264Z"/><path fill="#9397EB" d="M80.504 178.677c0-.261.436-3.808.653-5.548h2.937l1.958 2.937.327 3.59 1.958-2.937.326.326v5.548c0 .261-.653 2.066-.979 2.937l-1.632.979h-3.59l-2.937-.979.653-3.264-.326-2.284c.217-.326.652-1.044.652-1.305Z"/><path fill="#2D307A" d="M88.3 166.27c.544 0 1.763.065 2.285.327l-1.305 3.916.978 3.589 1.306-2.61 2.284-.979.653 1.958-1.306 3.916-1.305-.653-1.632 1.632-1.957-.979-1.959 2.937-.326-3.264-1.958-2.61-2.61-.327.326-1.958 1.958-1.958.979-4.242h2.284l1.305 1.305Z"/><path fill="#AAADF1" d="M84.714 164.965c-.217 1.305-.718 3.981-.979 4.242l-1.631 1.958h4.242l3.59 2.611-.653-3.263 1.305-3.916-2.284-.327-1.632-1.305h-1.958Z"/><path fill="#D4D5FE" d="m83.42 179.655-2.937-.979-.653 1.305.326 2.284h.653l2.61.653 2.285 1.632.98-.979-.98-1.958-2.284-1.958Z"/><path fill="#383DAB" d="M94.517 163.661h-.652v.652l-2.285 2.285h1.306l.979-.653 2.61-3.59-1.958 1.306Z"/><path fill="#4B51C2" d="m93.565 164.312-2.61 2.284-2.285-.326-1.632-1.305H85.08l.98-1.958 1.957-.979.327-1.632 3.263-2.611 1.632 3.59.326 2.937Z"/><path fill="#383DAB" d="M94.497 167.575h2.284l-2.61 2.937-.653.326-1.958.653-1.306 2.284-.326-1.305-.653-1.958 1.306-3.59 2.284-.652 1.632 1.305Z"/><path fill="#9397EB" d="m94.184 170.18 2.61-2.284.654-.979 2.61-1.632v4.895c0 .522-.435 2.611-.652 3.59l-.653 3.263-.653 1.958-2.937-.326-1.958-2.284.98-3.59v-2.611Z"/><path fill="#383C98" d="m98.426 167.905.98-2.284.326.326.652 3.59-.652 4.243-1.632 4.242-.326-.979v-1.632l-.327-1.631v-3.917l.98-1.958Z"/><path fill="#9397EB" d="m105.933 135.919 1.632-1.306.652.653c-.544.435-1.697 1.305-1.958 1.305-.261 0-.326.871-.326 1.306l-1.632 1.958-.979 1.305-.979 1.632h-1.958c-.261 0-.762 1.305-.98 1.958l1.959 2.284v1.305l.326 3.264v4.242l-.979 1.958-.653 2.285v2.61c0 .261-.217 1.632-.326 2.285l-1.305.979c-.436.326-1.371 1.044-1.632 1.305-.261.261-1.85.326-2.61.326l-.98-1.305c.435-.435 1.306-1.371 1.306-1.632 0-.261.435-.761.652-.979l1.306-1.305c.562-.469 1.657-1.293 2.117-1.345-.433-.226-1.487-.872-2.117-1.266v-1.958c.326-.435.979-1.37.979-1.631 0-.262.87-.762 1.305-.979v-7.833l.326-1.631c-.217-.544-.718-1.697-.979-1.958-.326-.327-.978-1.632-1.304-1.632-.262 0 .108-.87.326-1.305l.653-2.285 2.61-.652 3.264-.653 2.284-1.305Z"/><path fill="#40427D" d="m155.226 185.517-1.306-3.263v2.937l.979 2.937v2.284l-1.631 4.243 1.958-.653 1.305-1.958-.979-3.916.653-1.305-.979-1.306Z"/><path fill="#1C1E3A" d="m94.3 157.387 1.107 1.107 1.108 1.107 1.107 2.214v2.215H94.3l-2.214-1.107-1.107-2.215v-1.107l3.321-2.214Z"/><path fill="#9D9FD6" d="m151.272 181.615 1.305-2.611.98 1.632.326 3.263.326 2.284.979 1.958v2.285l-.652 1.631-.979 2.611-1.632.653-1.632 1.958-1.632.979-1.305-.327-.653-2.61-.326-3.916 1.958-1.306 1.958-3.916.979-4.568Z"/><path fill="#C7C9FE" d="m154.591 181.939-1.632-3.263.979 3.589.979 2.611 1.305 2.285-.652 1.305.979 3.59-1.306 1.958-2.937 1.305-2.937 2.611 3.264-.327 3.589-.652 1.306-1.958 2.61.652 2.937.979 1.306-1.305h4.242l.979-.653v-1.631l-1.305-.653-2.937-.979-2.285-.979-2.61-.326-2.285-.653-.979-.979v-1.305l-.979-2.285-1.631-2.937Z"/><path fill="#CED0FE" d="m151.98 169.539-.979-.652.326 1.631-1.305 1.632-.653 1.958 1.306.653.652 1.305.653 3.59 1.632-1.632v-6.853l-1.632-1.632Z"/><path fill="#2D2E52" d="M151.321 175.741c-.261 0-1.196-1.087-1.631-1.631l-4.243-.653 4.569 2.611 1.958 3.916-.326-2.285c0-.652-.065-1.958-.327-1.958Z"/><path fill="#46498E" d="m148.046 171.498-1.958 1.632 1.958.652 2.611.979-1.306-.979.653-1.631 1.305-1.632-.652-1.958-3.264-.979.979 1.632-.326 2.284Z"/><path fill="#C7C9FE" d="m149.979 176.071-3.264-1.958-.652 1.632-.327 3.916 1.306 11.422.326-.327.979-.979 1.306-2.284.979-3.263.979-4.243-1.632-3.916Z"/><path fill="#9194E1" d="m138.89 175.74-1.632-.327-.326 1.632v3.59c0 .261.652 2.066.979 2.937l1.631 1.958 7.18 5.221-.653-8.158-.326-6.201.653-2.284-2.611-.979.326 1.632h-2.284l-2.937.979Z"/><path fill="#AAADF1" d="m90.25 161.701-1.959-1.305 3.264-2.611 1.957 4.569-.978.979-1.632.326-.653-1.958Z"/><path fill="#BABDFF" d="M142.525 159.094c-.326-.326-2.611-.326-2.937-.653l2.937 6.527-.326 5.874-.327 3.916h1.958v-1.631l2.285.326 1.958-1.958.326-1.958-.979-1.632-.979-1.305-.979-3.264c-.87-1.305-2.676-3.981-2.937-4.242ZM94.176 183.571l3.59-1.958 1.631.327 3.264.979c1.74.217 5.352.652 5.874.652.522 0 10.225.218 15.012.327h5.874l6.2-.653 1.958.326.979 1.306 4.242 3.589c.871.653 2.742 2.024 3.264 2.285.653.326.653 2.61.653 3.589 0 .979.652 2.611.652 4.243 0 1.631-2.937 1.305-3.59 1.305-.522 0-4.351.87-6.2 1.306l-11.748.979c-4.569-.327-13.902-.979-14.685-.979H99.071l-11.095-2.285-1.958-2.284.652-3.264.327-1.958v-2.937l.979-.326.326-.979 2.284-.326 1.306-1.306 2.284-1.958Z"/><path fill="#3A3FA0" d="m98.1 179.002.653-.326 1.958.652 1.305.653 5.874.979H136.934c.327 0 .653 1.305.653 1.958 0 .522-1.088.435-1.632.327l-7.506.652h-8.484l-11.748-.326-8.159-1.306-1.958-.652-.653-.653v-.979l.653-.979Z"/><path fill="#C4C6F3" d="m90.269 177.362-1.632-.653v5.875l-.979 2.937.653 1.631 2.61-.326 3.59-3.59 3.264-1.631v-.653l-.327-.653.327-1.305-2.61-.326-1.959-2.285-1.305-.653-1.632 1.632Z"/><path fill="#383C98" d="m93.556 179.981 1.631-1.305 2.611.326-.326 1.305.652 1.306-2.61.979-2.611 2.284c-.326-.217-.979-.718-.979-.979s.217-1.196.326-1.632l1.306-2.284Z"/><path fill="#7F84FF" d="m101.744 142.778.652-1.305h.327l3.59.652h3.589l4.243.327 5.874-.327h10.769l6.2-.326c.218.326.653 1.044.653 1.305 0 .261.218.762.326.979l-.326 2.285c-.109.544-.392 1.697-.653 1.958-.261.261.327 1.631.653 2.284-.109 1.088-.326 3.329-.326 3.59 0 .326.326 3.916.652 4.242.261.261-.544 2.502-.979 3.59l-.326 5.221v4.569c0 .653-.653 2.937-.653 3.263 0 .261-.652 4.025-.979 5.874h-27.412l-5.874-.979-2.937-1.305.326-1.305c.109-.87.326-2.676.326-2.937 0-.261.218-1.414.327-1.958l.326-2.285v-10.442l.979-1.632.326-1.958v-4.895l.327-3.59-.653-.653-.653-1.305-.326-1.632.326-.979 1.306-.326Z"/><path fill="#BFC2FF" d="m106.279 137.231 1.306-1.305h3.589l9.464.326h6.201l6.526-.326 1.306 1.958 1.958 1.958.326 1.958c-.544.109-1.697.326-1.958.326h-5.221c-3.046.109-9.203.261-9.464 0-.261-.261-4.243.109-6.201.327l-6.853-.327-4.568-.652 1.305-.979 1.632-1.632.652-1.632Z"/><path fill="#A9ADF8" d="m113.471 126.141 2.611-88.111 2.61-.98H122.608l1.958.327 2.937.653.979 88.111-1.631.652h-5.548l-7.832-.652Z"/><path fill="#B1B5FF" fill-rule="evenodd" d="m124.539 37.364 2.937.653 1.306-.653-.326-1.305-.327-1.632v-.979l-.326-1.958.653-.652 1.305.652V29.86l.653-1.306 1.958.327.979-.98.326-1.631v-1.305l.653-1.632h1.631v-.98l-1.305-.326-3.263-1.305-.653-.652v-.98l.653-1.305.326-1.631.653-1.959V11.91c0-.261-.653-.979-.979-1.305l-1.632-3.264h1.632l4.242-.652 5.221-1.306 3.264-1.958-.327-1.305-1.305-.979-2.611-.326-12.727 1.631c-.217-.108-.979-.718-.979-.979 0-.26-.217-.761-.326-.979h-1.306V2.12l-.979 1.632-3.916-1.632-3.916-.979-4.242.653-2.937 2.284.326 1.958 2.285.326 2.284.327 2.611 1.305 1.631-.653 2.611-.652-3.59 2.937 2.611.326-.979 4.569-4.569 1.631v1.306l.327.979-1.632 1.631H108.549c.326.436 1.044 1.306 1.305 1.306.261 0 .979.87 1.306 1.305-.109.435-.392 1.306-.653 1.306-.245 0-.123 1.1-.046 1.79.025.229.046.412.046.494 0 .261 1.087.761 1.631.979h1.632l.979.653-.326.979-.653 1.305.653.979.652-.653.979-.326v2.61l-.326 3.59v.98l.326.652 2.611-.979H122.581l1.958.326Zm2.611-30.023h1.632l1.958 3.264.326 1.958v1.631l-.652 2.611-1.306.326c-.652-.761-1.958-2.35-1.958-2.61 0-.261-.435-2.067-.652-2.937l-.653-1.958V7.994l.158-.94 1.147.287Z" clip-rule="evenodd"/><path fill="#2D2E52" d="m142.475 165.296-2.937-6.526-1.305 1.305v3.916l-.653 5.221 1.306 6.201 2.937-.653.652-9.464Z"/><path fill="#8388F5" d="m136.982 137.557-3.589-1.631.979 1.958 1.958 1.305v1.632l1.305 2.611.326 2.284 1.306.653.979 1.305.652 2.611-.326.326-1.632.653h-1.305l-.326 2.284.326 1.632v2.937l.326 1.958h.327l.979-1.632h.979l2.61.326 1.632 2.937V158.117c-.326-.762-1.044-2.415-1.305-2.937-.261-.522-.109-1.741 0-2.285l.653-4.895c-.436-1.088-1.306-3.328-1.306-3.589 0-.262-1.305-1.415-1.958-1.958l-2.611-.653.653-.326-.653-2.611-.979-1.306Z"/><path fill="#2D2E52" d="m139.542 146.36-1.631-.653-.327.653-.652 1.305v1.632l.979 1.631 1.305.327 1.632-.653v-1.958l-1.306-2.284Z"/><path fill="#7F84FF" d="m115.076 16.818 3.263-2.611-4.569 1.632-.326 1.305v.98l-1.305 1.63-1.632-.326-1.958.653 1.305 1.305.979.98-.652 1.631v1.958l1.305.98-.653-1.306v-1.306l1.306-1.957-2.285-1.632h2.285l2.937-1.632v-2.284Z"/><path fill="#FF009A" d="m125.196 8.978.327-1.958V8.65l-.327.98-.326.326h-5.548l4.243-.327 1.631-.652Z"/><path fill="#7F84FF" d="m126.22 1.8-.261-.653-.392-.653h-.979l.979-.326.392.326.261.653V1.8ZM111.832 127.434l1.306-.979.326-.326c1.305.109 3.981.326 4.242.326.327 0 3.916.327 4.243.327.261 0 2.828.108 4.242 0l1.632-.327.652-.326.327.653.326.652.326.653v1.632l.653.979.326.979 1.632.979 1.305 1.631-.326 1.632-5.221.326h-8.811l-11.096-.326v-2.611l1.305-.979.327-.652.979-.653.979-.653.979-1.631-.653-.327v-.979Z"/><path fill="#B1B5FF" d="m114.45 132.014-3.916-.979-.653.326-.652.98c1.414.217 4.307.652 4.568.652h5.548l5.222-.326-5.222-.326-4.895-.327ZM126.873 130.049l2.285-.326.652.652-.652.327c-.544.108-1.697.326-1.958.326h-8.485l-3.916-1.305h1.305l3.264.326h7.505Z"/><path fill="#7F84FF" d="m120.005 7.357 1.632-1.306-1.959.653-.652.326 1.305-.326-1.305.98.979-.327Z"/><path fill="#2F3381" d="m113.453 180.311.327-9.463h-.653l.326 9.463Z"/><path fill="#2F3381" d="m113.463 170.19-7.18-.327 7.18 1.306 21.538-.979h-21.538ZM121.647 169.856v-10.524l-.326.081-.327 5.222.653 5.221Z"/><path fill="#2F3381" d="m136.931 159.754-28.718-.653h16.643l12.075.653ZM107.241 159.094l.326-9.137-.979 9.137h.653ZM109.536 148l-8.159-.652V148l2.611.653 5.548.653h19.253c.262 0 5.766-.435 8.159-.653v-1.305l-9.015.652h-18.397Z"/><path fill="#353999" d="m127.485 38.02 1.305-.652-.979-.979-1.958-.326-1.632-.327-1.631.327-.653-.653h-2.611l-3.59.98v.978l.327.653 2.61-.98h4.569c.261 0 2.937.654 4.243.98Z"/><path fill="#7F84FF" d="M133.715 26.278v-1.305l-.653 1.631-.652 1.306-1.958-.327-.653 2.285.653-1.306 1.958.327.979-.98.326-1.631Z"/><path fill="#5357B5" d="m94.315 158.492 3.321-2.215 1.107 5.536-2.214 1.107-2.214-1.107V158.492Z"/><path fill="#B1B4FB" d="m140.779 154.06 1.107-3.322-3.321 4.429v2.214l4.428 1.107-1.107-2.214-1.107-2.214Z"/><path fill="#8083D8" d="m139.672 147.424-1.107-1.108 1.107 4.429 1.107-1.107-1.107-2.214Z"/><path fill="#4B51C2" d="m43.64 185.364-10.597 5.489-9.273-.784-7.715-1.02-6.858-2.117 3.975-4.704 7.948-2.352 1.325-3.92 13.247-6.272 6.624 8.624 1.325 7.056Z"/><path fill="#CED0FE" d="m42.97 176.328-1.707 3.609 3.022-1.543 2.147 4.016 2.76 2.416 1.224-3.201 2.057-1.252 5.43-.436-2.082-4.874-4.817-1.165-5.298-1.281-2.735 3.711Z"/><path fill="#46498E" d="m44.97 188.216 2.111 4.908 3.114-4.071.209-7.366-1.293 2.408-2.691-1.622-2.147-4.017-3.02 1.019-2.099 8.236 2.372.516 3.444-.011Z"/><path fill="#AAADF1" d="m30.277 178.151-8.017-2.822 13.361-5.645 6.83 8.467-2.821 3.528-6.68.706-2.673-4.234Z"/><path fill="#383C98" d="m2.621 180.628 1.827-2.476 2.375 2.117-.034.978.695 2.476-1.723 3.675-3.834 2.516c-.348-.413-1.042-1.362-1.042-1.858 0-.495.231-2.269.347-3.095l1.39-4.333Z"/><path fill="#C4C6F3" d="m6.038 179.13-1.59-.978-.146 10.882-1.042 5.571.694 3.095 2.779-.619 3.82-6.809 3.473-3.095v-1.238l-.347-1.238.347-2.476-2.778-.619-2.084-4.333-1.39-1.238-1.736 3.095Z"/><path fill="#383C98" d="m9.543 184.082 1.737-2.477 2.778.619-.347 2.477.694 2.476-2.778 1.857-2.778 4.333c-.348-.413-1.042-1.362-1.042-1.857 0-.496.231-2.27.347-3.095l1.39-4.333Z"/><path fill="#2D307A" d="m66.208 171.801 6.533 7.409 2.913 9.013-5.419 1.652-9.965-1.139H49.646l-1.253-9.526 17.815-7.409Z"/><path fill="#9397EB" d="m63.833 167.566 6.532 6.351 2.376 5.292-5.345 2.117-9.502 3.176-9.501-5.293 4.75-6.35 10.69-5.293Z"/><path fill="url(#b)" d="M-6.224-13.121h175.421v201.999H-6.224z" opacity=".8" style="mix-blend-mode:hard-light"/></g><defs><linearGradient id="b" x1="130.743" x2="-13.701" y1="137.317" y2="74.872" gradientUnits="userSpaceOnUse"><stop stop-color="#E7465F"/><stop offset=".281" stop-color="#9951D0"/><stop offset=".563" stop-color="#584EB9"/><stop offset="1" stop-color="#292A67"/></linearGradient></defs></svg>