<svg xmlns="http://www.w3.org/2000/svg" width="223" height="188" fill="none" viewBox="0 0 223 188"><mask id="a" width="326" height="206" x="0" y="1" maskUnits="userSpaceOnUse" style="mask-type:alpha"><path fill="#2C307F" d="M207.142 199.345c-13.688-2.338-41.167-7.102-41.576-7.45L.885 206.187l59.95-10.46-20.954-6.403-15.715-13.387-4.469-5.334.007-6.477 29.46-1.824 109.964 2.822 83.192-2.041 83.35 8.012-5.841 16.741-112.687 11.509Z"/><path fill="#BDC0FA" d="M207.249 192.607c-13.688-2.338-41.167-7.102-41.576-7.45l-96.7 4.756-27.938-6.402-15.523-11.468-5.812-7.91 29.57-8.569 109.965 2.822 83.192-2.041 83.35 8.012-5.841 16.741-112.687 11.509Z"/><path fill="#9297F9" d="m112.173 54.812.652-.712-1.068 106.96-10.811-2.119.022-2.153 6.126-6.544 2.917-46.779 2.162-48.653Z"/><path fill="#4C51BE" d="m111.771 160.916 1.069-106.959 19.95 3.645.384 103.528-21.403-.214ZM134.933 162.148c-.432.139-1.294.446-1.295.561l4.379.474 1.547.016 4.525-1.247-2.321-.023-3.74.106-3.095.113Z"/><path fill="#D9DAFD" d="m148.01 160.134-.524.856 2.314.597 1.938-.411-.763-1.012-2.965-.03Z"/><path fill="#9297F9" d="m155.195 161.935-3.859-.9 6.934 2.797.902.009.006-.574-3.983-1.332Z"/><path fill="#9297F9" d="m149.799 161.443-1.285-.443 2.034 2.891.802-2.863-1.551.415Z"/><path fill="#9297F9" d="M147.623 160.843c-2.887.784-9.978 2.484-10.082 2.483 2.234.118 8.12.368 8.12.368s1.952-1.846 2.863-2.699l-.901-.152Z"/><path fill="#4C51BE" d="m133.677 162.709 4.894.624 8.636.373 8.509.085 3.611.036.004-.431-4.241-1.478 7.994.08 3.345.751 1.149 1.16-2.068.554-6.708.22-13.8.293-2.192-.022-10.047-1.105.914-1.14Z"/><path fill="#2F3279" d="m246.916 172.887.027-2.727-28.639 1.293-.288 3.012 28.9-1.578Z"/><path fill="#464BB0" d="m183.349 170.094.279-2.151 34.652 3.505-.03 3.015-34.901-4.369Z"/><path fill="#4C51BE" d="M191.237 128.974 182.319 1.957l26.998 8.167 7.148 58.94 3.138 60.194 7.369 23.908 21.528 13.568-.037 3.733-30.062 1.71.034-3.446-21.516-14.716-5.682-25.041Z"/><path fill="#3C4098" d="m207.898 155.13.666-2.147 2.047 1.6-2.063-.021 1.411.732 2.304 1.746-1.935.125c.684.294 2.079.939 2.18 1.17.101.231 1.933.115 2.837.028l.249.864-1.294.418 5.017 1.199 1.54.733-.779.567 6.567.927-.526 1 .516.005 2.714-.691.637.868 5.157.051.527-1.143 3.61.036-.41 2.293-3.61-.036-.131.286c-.947.134-2.867.402-2.97.401-.103-.001-2.189-.309-3.219-.463l-1.812.7-1.545-.302.009-.862-1.928-.593-3.997-.04.015-1.58-1.031-.01-5.02-.912.271-1.289-3.857-1.187.013-1.292-2.18-1.171.272-1.433-.252-.577Z"/><path fill="#767AC4" d="m210.343 152.867-1.806.125 1.918 1.599-1.934-.019 3.715 2.478-1.807.125 1.409 1.019.899.297.774.007 1.806-.125.25.864-1.294.418 5.017 1.198 1.54.734-.779.566 6.567.927-.526 1 .515.005 2.715-.691.636.868 5.158.052.527-1.144 3.61.036.39-.283-2.825-1.177 2.588-.979-3.212-1.181 1.816-.987-1.159-.155c-.602-.006-1.831-.047-1.933-.163-.102-.116-.725-.533-1.024-.728l1.041-.995-2.189-.309-.008.862-1.669-.735-.632-1.298c-.47-.34-1.434-1.02-1.537-1.021-.103-.001-1.327-.587-1.926-.88l-2.308-1.316-1.419.13 1.149 1.16-1.295.561-1.923-1.168-2.18-1.17-3.099.4c.601.054 1.855.19 2.06.307.205.117 1.196.73 1.666 1.022l-1.037.564-2.574-.456c-.517.042-1.575.099-1.677-.017-.102-.116-1.584-.542-2.313-.741l-1.8-.592.119 1.006Z"/><path fill="#9297F9" d="m181.05 3.379 1.43-1.134 8.792 126.728 6.195 25.189c6.742 4.902 21.002 14.569 21.002 14.569l-.035 3.445-35.293-3.798-.018-62.747L181.05 3.379ZM75.852 129.839 86.527 16.371 77.89 29.207 67.708 131.911l-7.28 18.737-24.61 11.097-.029 2.872 4.752 1.914.033-3.302 27.323-11.501 7.955-21.889Z"/><path fill="#4C51BE" d="m89.065 17.258-2.7-.745L75.82 129.84l-7.956 21.889-27.322 11.501-.032 3.159 45.4-.983 3.155-148.147Z"/><path fill="#2C307F" d="m90.772 104.852-3.62.969-.697 31.007 2.837.029 2.733-2.557-1.417-.158.279-27.853 1.42-.129-1.535-1.308Z"/><path fill="#797ED6" d="m95.938 105.475-5.037.812-.278 27.852 5.032-.38 23.859-.336 30.693-.268 32.878.328.047-30.439-6.576-.066-19.724-.484-20.375.084-19.349.668-14.454 1.148-6.716 1.081Z"/><path fill="#575BA3" d="m96.258 137.501-6.568-.784 2.087-2.42 10.573.106 25.406-.321 20.117-.086 25.4.254 9.68-.909-.05 5.025-10.061.331-20.243-.203-31.847-.318-24.494-.675Z"/><path fill="#9297F9" d="m132.773 163.851.914-1.139c1.675.16 5.049.51 5.151.626.127.145 3.725 1.329 3.982 1.475.205.117-6.612-.592-10.047-.962Z"/><path fill="#353986" d="m157.259 162.664-1.027-.441 1.15.442 2.584.026 2.32.023.903.009.385.147.385.148-.133.429-.519.282-.903.134-1.289-.012-1.934-.02.005-.473-1.804-.693-.123-.001ZM148.521 161.002c-.91.805-2.99 2.583-2.992 2.698l4.899.049-1.907-2.747ZM151.344 161.028l7.319 2.944-8.25-.082.532-1.717.399-1.145Z"/></mask><g mask="url(#a)"><path fill="#2C307F" d="M207.142 199.345c-13.688-2.338-41.167-7.102-41.576-7.45L.885 206.187l59.95-10.46-20.954-6.403-15.715-13.387-4.469-5.334.007-6.477 29.46-1.824 109.964 2.822 83.192-2.041 83.35 8.012-5.841 16.741-112.687 11.509Z"/><path fill="#BDC0FA" d="M207.249 192.607c-13.688-2.338-41.167-7.102-41.576-7.45l-96.7 4.756-27.938-6.402-15.523-11.468-5.812-7.91 29.57-8.569 109.965 2.822 83.192-2.041 83.35 8.012-5.841 16.741-112.687 11.509Z"/><path fill="#B1B5FF" d="m112.173 54.812.652-.712-1.068 106.96-10.811-2.119.022-2.153 6.126-6.544 2.917-46.779 2.162-48.653Z"/><path fill="#7F84FF" d="m111.771 160.916 1.069-106.959 19.95 3.645.384 103.528-21.403-.214ZM134.933 162.148c-.432.139-1.294.446-1.295.561l4.379.474 1.547.016 4.525-1.247-2.321-.023-3.74.106-3.095.113Z"/><path fill="#D9DAFD" d="m148.01 160.134-.524.856 2.314.597 1.938-.411-.763-1.012-2.965-.03Z"/><path fill="#B1B5FF" d="m155.195 161.935-3.859-.9 6.934 2.797.902.009.006-.574-3.983-1.332Z"/><path fill="#B1B5FF" d="m149.799 161.443-1.285-.443 2.034 2.891.802-2.863-1.551.415Z"/><path fill="#B1B5FF" d="M147.623 160.843c-2.887.784-9.978 2.484-10.082 2.483 2.234.118 8.12.368 8.12.368s1.952-1.846 2.863-2.699l-.901-.152Z"/><path fill="#7F84FF" d="m133.677 162.709 4.894.624 8.636.373 8.509.085 3.611.036.004-.431-4.241-1.478 7.994.08 3.345.751 1.149 1.16-2.068.554-6.708.22-13.8.293-2.192-.022-10.047-1.105.914-1.14Z"/><path fill="#2F3279" d="m246.916 172.887.027-2.727-28.639 1.293-.288 3.012 28.9-1.578Z"/><path fill="#464BB0" d="m183.349 170.094.279-2.151 34.652 3.505-.03 3.015-34.901-4.369Z"/><path fill="#7F84FF" d="M191.237 128.974 182.319 1.957l26.998 8.167 7.148 58.94 3.138 60.194 7.369 23.908 21.528 13.568-.037 3.733-30.062 1.71.034-3.446-21.516-14.716-5.682-25.041Z"/><path fill="#3C4098" d="m207.898 155.13.666-2.147 2.047 1.6-2.063-.021 1.411.732 2.304 1.746-1.935.125c.684.294 2.079.939 2.18 1.17.101.231 1.933.115 2.837.028l.249.864-1.294.418 5.017 1.199 1.54.733-.779.567 6.567.927-.526 1 .516.005 2.714-.691.637.868 5.157.051.527-1.143 3.61.036-.41 2.293-3.61-.036-.131.286c-.947.134-2.867.402-2.97.401-.103-.001-2.189-.309-3.219-.463l-1.812.7-1.545-.302.009-.862-1.928-.593-3.997-.04.015-1.58-1.031-.01-5.02-.912.271-1.289-3.857-1.187.013-1.292-2.18-1.171.272-1.433-.252-.577Z"/><path fill="#767AC4" d="m210.343 152.867-1.806.125 1.918 1.599-1.934-.019 3.715 2.478-1.807.125 1.409 1.019.899.297.774.007 1.806-.125.25.864-1.294.418 5.017 1.198 1.54.734-.779.566 6.567.927-.526 1 .515.005 2.715-.691.636.868 5.158.052.527-1.144 3.61.036.39-.283-2.825-1.177 2.588-.979-3.212-1.181 1.816-.987-1.159-.155c-.602-.006-1.831-.047-1.933-.163-.102-.116-.725-.533-1.024-.728l1.041-.995-2.189-.309-.008.862-1.669-.735-.632-1.298c-.47-.34-1.434-1.02-1.537-1.021-.103-.001-1.327-.587-1.926-.88l-2.308-1.316-1.419.13 1.149 1.16-1.295.561-1.923-1.168-2.18-1.17-3.099.4c.601.054 1.855.19 2.06.307.205.117 1.196.73 1.666 1.022l-1.037.564-2.574-.456c-.517.042-1.575.099-1.677-.017-.102-.116-1.584-.542-2.313-.741l-1.8-.592.119 1.006Z"/><path fill="#B1B5FF" d="m181.05 3.379 1.43-1.134 8.792 126.728 6.195 25.189c6.742 4.902 21.002 14.569 21.002 14.569l-.035 3.445-35.293-3.798-.018-62.747L181.05 3.379ZM75.852 129.839 86.527 16.371 77.89 29.207 67.708 131.911l-7.28 18.737-24.61 11.097-.029 2.872 4.752 1.914.033-3.302 27.323-11.501 7.955-21.889Z"/><path fill="#7F84FF" d="m89.065 17.258-2.7-.745L75.82 129.84l-7.956 21.889-27.322 11.501-.032 3.159 45.4-.983 3.155-148.147Z"/><path fill="#2C307F" d="m90.772 104.852-3.62.969-.697 31.007 2.837.029 2.733-2.557-1.417-.158.279-27.853 1.42-.129-1.535-1.308Z"/><path fill="#797ED6" d="m95.938 105.475-5.037.812-.278 27.852 5.032-.38 23.859-.336 30.693-.268 32.878.328.047-30.439-6.576-.066-19.724-.484-20.375.084-19.349.668-14.454 1.148-6.716 1.081Z"/><path fill="#575BA3" d="m96.258 137.501-6.568-.784 2.087-2.42 10.573.106 25.406-.321 20.117-.086 25.4.254 9.68-.909-.05 5.025-10.061.331-20.243-.203-31.847-.318-24.494-.675Z"/><path fill="#B1B5FF" d="m132.773 163.851.914-1.139c1.675.16 5.049.51 5.151.626.127.145 3.725 1.329 3.982 1.475.205.117-6.612-.592-10.047-.962Z"/><path fill="#353986" d="m157.259 162.664-1.027-.441 1.15.442 2.584.026 2.32.023.903.009.385.147.385.148-.133.429-.519.282-.903.134-1.289-.012-1.934-.02.005-.473-1.804-.693-.123-.001ZM148.521 161.002c-.91.805-2.99 2.583-2.992 2.698l4.899.049-1.907-2.747ZM151.344 161.028l7.319 2.944-8.25-.082.532-1.717.399-1.145Z"/><path fill="url(#b)" d="M-.115-58.832h223v262h-223z" opacity=".8" style="mix-blend-mode:hard-light"/></g><defs><linearGradient id="b" x1="174.002" x2="-10.765" y1="136.291" y2="58.003" gradientUnits="userSpaceOnUse"><stop stop-color="#E7465F"/><stop offset=".281" stop-color="#9951D0"/><stop offset=".563" stop-color="#584EB9"/><stop offset="1" stop-color="#292A67"/></linearGradient></defs></svg>