<svg xmlns="http://www.w3.org/2000/svg" width="217" height="176" fill="none" viewBox="0 0 217 176"><mask id="a" width="419" height="207" x="1" y="2" maskUnits="userSpaceOnUse" style="mask-type:alpha"><path fill="#9297F9" d="m174.514 38.297.084 13.215-22.672-2.217-25.973-1.724.857-13.693-2.832.018.436-5.667.906-6.141 1.386-4.729 2.333-4.262 4.222-4.275 3.755-3.328 3.295-1.436 5.187-.977 5.661-.508 5.67.908 5.21 2.8 4.747 4.217 3.803 4.224 2.868 5.646 1.936 7.54 1.001 8.96-1.88 1.429Z"/><path fill="#BDC0FA" d="m108.536 52.871.997 8.489 10.856-.069 16.484-5.767 22.659.329 18.455 7.434 13.225 1.333.917-4.254-6.171-5.624-11.352-3.704-24.087-2.208-24.552-1.26-8.962 1-6.59 2.873-1.879 1.428Z"/><path fill="#9297F9" d="m62.055 89.504-.113-17.934 113.78 4.001L319.66 71.36l10.897 6.538.107 16.99-3.77.968-1.7 29.744-16.511 1.52.105 16.518-113.267 2.603-87.791.554-22.65 1.087-.044-7.079-.093-14.63-9.47-4.66-.157-25.013-13.261-6.995Z"/><path fill="#9B1566" d="m88.174 120.963-13.215.084 10.416 5.127-.015-2.36 3.304-.021 53.336-.337-.009-1.416-53.817-1.077ZM203.16 91.921l-31.626.2.009 1.416 31.626-.2-.009-1.416Z"/><path fill="#B6B9FF" d="m76.378 113.483.335-21.713 126.509 1.561-.804 22.187-126.04-2.035ZM305.987 141.296l-139.202 6.543-6.679-11.285 5.117-11.831 29.727-1.604 110.939 2.604.098 15.573Z"/><path fill="#D1D3F6" d="m86.47 146.457 118.943-.751-6.059 12.309-37.7 9.677-95.224 19.479-44.764 12.082-9.94-4.185L1.21 173.897l57.825-12.035 27.436-15.405Z"/><path fill="#4C51BE" d="m163.8 134.642 3.884 16.966-30.184 3.966-32.58-1.682 7.89-21.288 19.388 5.541-.081-12.742-.074-11.798-6.897-45.736-8.986-2.775-6.635-4.206.917-4.253 16.021-4.35 25.96-.163 23.626 4.098 15.158 8.4-4.218 4.746-10.847 1.484-12.342 63.792Z"/><path fill="#52547F" d="M159.513 166.29c-42.331 12.224-128.903 37.721-136.535 41.923l-10.354-25.892L35.1 171.796l73.688-18.4 26.203-7.245 27.449-5.365 68.225-3.262 118.173 3.262 58.919 20.161 4.707 11.77 6.954 25.441-116.614-30.884-83.718-5.135-59.573 4.151Z"/><path fill="#9B1566" d="m320.436 121.384-117.992 1.689 106.228 4.049 16.039-1.518-4.275-4.22ZM124.614 61.742s.185 4.404.511 6.132l-9.93-2.769-5.688-3.74.914-4.725 5.649-2.395 10.372-1.954 25.96-.164 23.627 4.099 9.941 4.656 5.216 3.743-1.401 2.369-2.817 2.377-5.186.977-5.661.508.448-3.779-2.384-3.76-7.1-3.26-7.564-1.84-5.67-.907-8.499-.419-6.605.514-6.13.983-5.658.98-2.345 2.374Z"/><path fill="#D8459E" d="m127.267 31.514-.457 2.363 2.342-2.847 1.883-.956 6.599-1.457 6.136-.039 8.5.419 8.977 1.359 10.88 3.707 3.794 2.808-2.856-3.758-10.883-4.18-9.449-1.355-8.028-.422-5.664.036-5.661.508-2.826.962-2.352 1.43-.935 1.422Z"/><path fill="#BFC2FE" d="m138.094 21.065 1.446 4.71-.048-7.551 1.844-7.092 4.218-4.746-1.413.48-3.286 2.853-1.865 3.788-.911 5.198.015 2.36ZM158.973 22.029l-1.485 5.517.874-9.918-.974-6.037-2.874-5.264.965.635 2.502 3.243 1.15 4.045.147 5.38-.305 2.399ZM172.539 22.729l.49 2.83.489 2.827-.925 2.84-2.429-10.842-.971-4.242-1.431-2.35-2.856-3.758h.001l3.794 2.807 1.909 3.292.964 3.298.965 3.298Z"/><path fill="#D8459E" d="m141.328 11.134 4.218-4.746-4.693 4.277-1.384 5.201-.439 5.195.502 4.716.412-9.442 1.384-5.2ZM157.35 12.342l-2.838-6.01 3.51 5.622 1.011 5.53-.189 5.35-1.318 4.69.835-9.652-1.011-5.53ZM168.806 15.587l-3.898-5.548 4.508 5.069 1.783 5.33.891 5.605.499 5.188-2-10.313-1.783-5.331Z"/><ellipse cx="3.213" cy="5.714" fill="#9B1566" rx="3.213" ry="5.714" transform="matrix(.99999 -.00517 .02629 .99965 128.519 73.512)"/><ellipse cx="2.879" cy="5.667" fill="#D8459E" rx="2.879" ry="5.667" transform="matrix(.99999 -.00517 .02628 .99965 129.365 73.531)"/><path fill="#9297F9" d="m137.43 139.531-24.59-6.925-4.176 11.354 4.188-9.466 43.964 10.106-19.386-5.069Z"/><path fill="#9B1566" d="m75.247 88.952-13.216.083L75.767 96.5l-.03-4.72 53.335-.336-.009-1.416-53.816-1.076Z"/></mask><g mask="url(#a)"><path fill="#B1B5FF" d="m174.514 38.297.084 13.215-22.672-2.217-25.973-1.724.857-13.693-2.832.018.436-5.667.906-6.141 1.386-4.729 2.333-4.262 4.222-4.275 3.755-3.328 3.295-1.436 5.187-.977 5.661-.508 5.67.908 5.21 2.8 4.747 4.217 3.803 4.224 2.868 5.646 1.936 7.54 1.001 8.96-1.88 1.429Z"/><path fill="#BDC0FA" d="m108.536 52.871.997 8.489 10.856-.069 16.484-5.767 22.659.329 18.455 7.434 13.225 1.333.917-4.254-6.171-5.624-11.352-3.704-24.087-2.208-24.552-1.26-8.962 1-6.59 2.873-1.879 1.428Z"/><path fill="#B1B5FF" d="m62.055 89.504-.113-17.934 113.78 4.001L319.66 71.36l10.897 6.538.107 16.99-3.77.968-1.7 29.744-16.511 1.52.105 16.518-113.267 2.603-87.791.554-22.65 1.087-.044-7.079-.093-14.63-9.47-4.66-.157-25.013-13.261-6.995Z"/><path fill="#9B1566" d="m88.174 120.963-13.215.084 10.416 5.127-.015-2.36 3.304-.021 53.336-.337-.009-1.416-53.817-1.077ZM203.16 91.921l-31.626.2.009 1.416 31.626-.2-.009-1.416Z"/><path fill="#B6B9FF" d="m76.378 113.483.335-21.713 126.509 1.561-.804 22.187-126.04-2.035ZM305.987 141.296l-139.202 6.543-6.679-11.285 5.117-11.831 29.727-1.604 110.939 2.604.098 15.573Z"/><path fill="#D1D3F6" d="m86.47 146.457 118.943-.751-6.059 12.309-37.7 9.677-95.224 19.479-44.764 12.082-9.94-4.185L1.21 173.897l57.825-12.035 27.436-15.405Z"/><path fill="#7F84FF" d="m163.8 134.642 3.884 16.966-30.184 3.966-32.58-1.682 7.89-21.288 19.388 5.541-.081-12.742-.074-11.798-6.897-45.736-8.986-2.775-6.635-4.206.917-4.253 16.021-4.35 25.96-.163 23.626 4.098 15.158 8.4-4.218 4.746-10.847 1.484-12.342 63.792Z"/><path fill="#52547F" d="M159.513 166.29c-42.331 12.224-128.903 37.721-136.535 41.923l-10.354-25.892L35.1 171.796l73.688-18.4 26.203-7.245 27.449-5.365 68.225-3.262 118.173 3.262 58.919 20.161 4.707 11.77 6.954 25.441-116.614-30.884-83.718-5.135-59.573 4.151Z"/><path fill="#9B1566" d="m320.436 121.384-117.992 1.689 106.228 4.049 16.039-1.518-4.275-4.22ZM124.614 61.742s.185 4.404.511 6.132l-9.93-2.769-5.688-3.74.914-4.725 5.649-2.395 10.372-1.954 25.96-.164 23.627 4.099 9.941 4.656 5.216 3.743-1.401 2.369-2.817 2.377-5.186.977-5.661.508.448-3.779-2.384-3.76-7.1-3.26-7.564-1.84-5.67-.907-8.499-.419-6.605.514-6.13.983-5.658.98-2.345 2.374Z"/><path fill="#FF009A" d="m127.267 31.514-.457 2.363 2.342-2.847 1.883-.956 6.599-1.457 6.136-.039 8.5.419 8.977 1.359 10.88 3.707 3.794 2.808-2.856-3.758-10.883-4.18-9.449-1.355-8.028-.422-5.664.036-5.661.508-2.826.962-2.352 1.43-.935 1.422Z"/><path fill="#BFC2FE" d="m138.094 21.065 1.446 4.71-.048-7.551 1.844-7.092 4.218-4.746-1.413.48-3.286 2.853-1.865 3.788-.911 5.198.015 2.36ZM158.973 22.029l-1.485 5.517.874-9.918-.974-6.037-2.874-5.264.965.635 2.502 3.243 1.15 4.045.147 5.38-.305 2.399ZM172.539 22.729l.49 2.83.489 2.827-.925 2.84-2.429-10.842-.971-4.242-1.431-2.35-2.856-3.758h.001l3.794 2.807 1.909 3.292.964 3.298.965 3.298Z"/><path fill="#FF009A" d="m141.328 11.134 4.218-4.746-4.693 4.277-1.384 5.201-.439 5.195.502 4.716.412-9.442 1.384-5.2ZM157.35 12.342l-2.838-6.01 3.51 5.622 1.011 5.53-.189 5.35-1.318 4.69.835-9.652-1.011-5.53ZM168.806 15.587l-3.898-5.548 4.508 5.069 1.783 5.33.891 5.605.499 5.188-2-10.313-1.783-5.331Z"/><ellipse cx="3.213" cy="5.714" fill="#9B1566" rx="3.213" ry="5.714" transform="matrix(.99999 -.00517 .02629 .99965 128.519 73.512)"/><ellipse cx="2.879" cy="5.667" fill="#FF009A" rx="2.879" ry="5.667" transform="matrix(.99999 -.00517 .02628 .99965 129.365 73.531)"/><path fill="#B1B5FF" d="m137.43 139.531-24.59-6.925-4.176 11.354 4.188-9.466 43.964 10.106-19.386-5.069Z"/><path fill="#9B1566" d="m75.247 88.952-13.216.083L75.767 96.5l-.03-4.72 53.335-.336-.009-1.416-53.816-1.076Z"/><path fill="url(#b)" d="M0-70h216.398v254.243H0z" opacity=".8" style="mix-blend-mode:hard-light"/></g><defs><linearGradient id="b" x1="168.963" x2="-10.335" y1="119.346" y2="43.376" gradientUnits="userSpaceOnUse"><stop stop-color="#E7465F"/><stop offset=".281" stop-color="#9951D0"/><stop offset=".563" stop-color="#584EB9"/><stop offset="1" stop-color="#292A67"/></linearGradient></defs></svg>