<svg width="48" height="48" viewBox="0 0 48 48" fill="none" xmlns="http://www.w3.org/2000/svg">
<rect x="48" width="48" height="48" rx="24" transform="rotate(90 48 0)" fill="white" fill-opacity="0.2"/>
<path d="M25 18C25 17.4477 24.5523 17 24 17C23.4477 17 23 17.4477 23 18H25ZM23.2929 30.7071C23.6834 31.0976 24.3166 31.0976 24.7071 30.7071L31.0711 24.3431C31.4616 23.9526 31.4616 23.3195 31.0711 22.9289C30.6805 22.5384 30.0474 22.5384 29.6569 22.9289L24 28.5858L18.3431 22.9289C17.9526 22.5384 17.3195 22.5384 16.9289 22.9289C16.5384 23.3195 16.5384 23.9526 16.9289 24.3431L23.2929 30.7071ZM23 18V30H25V18H23Z" fill="white"/>
</svg>
