<svg width="236" height="61" viewBox="0 0 236 61" fill="none" xmlns="http://www.w3.org/2000/svg">
<g clip-path="url(#clip0_1206_7517)">
<path fill-rule="evenodd" clip-rule="evenodd" d="M44.1177 41.9728H39.8028V39.1694H37.1805H26.1191V22.482H30.7678V35.4266H37.1805V22.482H41.8291V35.4266H44.1177V41.9728ZM47.3033 22.482V39.1694H51.7613L58.6269 29.3953V39.1694H63.2755V22.482H58.8415L51.952 32.2799V22.482H47.3033ZM79.6843 38.1334V39.9561H75.3694V38.1133C73.8356 38.0053 72.4927 37.7375 71.3406 37.3099C69.8149 36.7378 68.6547 35.9034 67.8601 34.8068C67.0813 33.6943 66.692 32.3514 66.692 30.778C66.692 29.1887 67.0813 27.8458 67.8601 26.7492C68.6547 25.6367 69.8228 24.7944 71.3644 24.2223C72.5106 23.7969 73.8455 23.5296 75.3694 23.4205V21.6953H79.6843V23.4114C81.2542 23.5161 82.613 23.7943 83.7608 24.2461C85.2706 24.8182 86.4148 25.6605 87.1936 26.773C87.9723 27.8696 88.3617 29.2046 88.3617 30.778C88.3617 32.3355 87.9803 33.6705 87.2174 34.783C86.4705 35.8796 85.358 36.7219 83.88 37.3099C82.6994 37.7669 81.3008 38.0414 79.6843 38.1334ZM75.3694 27.1182C74.8265 27.1816 74.3418 27.2731 73.9152 27.3929C73.0093 27.6471 72.3418 28.0524 71.9127 28.6086C71.4836 29.149 71.2691 29.8721 71.2691 30.778C71.2691 31.668 71.4995 32.3911 71.9604 32.9474C72.4372 33.5036 73.1285 33.9089 74.0344 34.1632C74.4395 34.2749 74.8845 34.3621 75.3694 34.4247V27.1182ZM79.6843 27.1056V34.4496C80.2664 34.3821 80.7829 34.2787 81.2338 34.1393C82.1079 33.8691 82.7516 33.4559 83.1648 32.8997C83.578 32.3434 83.7846 31.6283 83.7846 30.7542C83.7846 29.8642 83.57 29.149 83.1409 28.6086C82.7118 28.0683 82.0682 27.671 81.21 27.4167C80.7654 27.2767 80.2568 27.173 79.6843 27.1056ZM91.767 22.482V39.1694H96.4871V34.8068H99.3955C100.921 34.8068 102.232 34.5605 103.329 34.0678C104.441 33.5592 105.3 32.8441 105.904 31.9223C106.507 31.0005 106.809 29.9119 106.809 28.6563C106.809 27.3849 106.507 26.2883 105.904 25.3665C105.3 24.4289 104.441 23.7137 103.329 23.221C102.232 22.7283 100.921 22.482 99.3955 22.482H91.767ZM96.4871 31.0879H99.1094C100.095 31.0879 100.826 30.8734 101.303 30.4443C101.795 30.0152 102.042 29.4192 102.042 28.6563C102.042 27.8776 101.795 27.2737 101.303 26.8446C100.826 26.4155 100.095 26.2009 99.1094 26.2009H96.4871V31.0879ZM114.64 38.8595C115.768 39.2886 117 39.5031 118.335 39.5031C119.686 39.5031 120.917 39.2886 122.03 38.8595C123.158 38.4304 124.136 37.8264 124.962 37.0477C125.789 36.2689 126.432 35.3551 126.893 34.3062C127.37 33.2414 127.608 32.0812 127.608 30.8257C127.608 29.5702 127.37 28.4179 126.893 27.369C126.432 26.3201 125.789 25.4063 124.962 24.6275C124.136 23.8329 123.158 23.221 122.03 22.7919C120.917 22.3628 119.686 22.1483 118.335 22.1483C117 22.1483 115.768 22.3628 114.64 22.7919C113.511 23.221 112.526 23.8329 111.684 24.6275C110.857 25.4063 110.214 26.3201 109.753 27.369C109.292 28.4179 109.061 29.5702 109.061 30.8257C109.061 32.0812 109.292 33.2334 109.753 34.2824C110.214 35.3313 110.857 36.2531 111.684 37.0477C112.526 37.8264 113.511 38.4304 114.64 38.8595ZM120.099 35.2598C119.559 35.4823 118.971 35.5935 118.335 35.5935C117.699 35.5935 117.103 35.4823 116.547 35.2598C116.007 35.0373 115.53 34.7194 115.117 34.3062C114.719 33.8771 114.401 33.3685 114.163 32.7805C113.941 32.1925 113.829 31.5409 113.829 30.8257C113.829 30.0946 113.941 29.443 114.163 28.8709C114.401 28.2828 114.719 27.7822 115.117 27.369C115.53 26.9399 116.007 26.6141 116.547 26.3916C117.103 26.1691 117.699 26.0579 118.335 26.0579C118.971 26.0579 119.559 26.1691 120.099 26.3916C120.655 26.6141 121.132 26.9399 121.529 27.369C121.943 27.7822 122.26 28.2828 122.483 28.8709C122.721 29.443 122.84 30.0946 122.84 30.8257C122.84 31.5409 122.721 32.1925 122.483 32.7805C122.26 33.3685 121.943 33.8771 121.529 34.3062C121.132 34.7194 120.655 35.0373 120.099 35.2598ZM139.191 22.482H131.086V39.1694H139.644C141.789 39.1694 143.426 38.7403 144.555 37.8821C145.699 37.0238 146.271 35.8637 146.271 34.4015C146.271 32.9712 145.739 31.8905 144.674 31.1594C144.262 30.8662 143.787 30.6305 143.248 30.4524C143.501 30.3241 143.738 30.1784 143.959 30.0152C144.992 29.2364 145.508 28.1716 145.508 26.8207C145.508 25.4381 144.952 24.3732 143.84 23.6263C142.743 22.8634 141.193 22.482 139.191 22.482ZM139.453 35.7842H135.734V32.3514H139.453C140.137 32.3514 140.645 32.4944 140.979 32.7805C141.329 33.0507 141.503 33.4718 141.503 34.044C141.503 34.6161 141.329 35.0532 140.979 35.3551C140.645 35.6412 140.137 35.7842 139.453 35.7842ZM138.738 29.1569H135.734V25.8672H138.738C139.405 25.8672 139.906 26.0102 140.24 26.2963C140.574 26.5664 140.74 26.9717 140.74 27.5121C140.74 28.0524 140.574 28.4656 140.24 28.7517C139.906 29.0219 139.405 29.1569 138.738 29.1569ZM160.125 22.482H155.476L148.11 39.1694H152.926L154.227 35.9273H161.303L162.604 39.1694H167.515L160.125 22.482ZM159.906 32.4467L157.765 27.111L155.624 32.4467H159.906ZM178.794 34.9737V39.1694H183.443V22.482H175.933C174.424 22.482 173.105 22.7363 171.976 23.2449C170.864 23.7534 169.998 24.4845 169.378 25.4381C168.774 26.3757 168.472 27.5041 168.472 28.8232C168.472 30.0946 168.758 31.1912 169.33 32.113C169.918 33.0348 170.752 33.742 171.833 34.2347C171.858 34.2462 171.884 34.2576 171.909 34.2688L168.52 39.1694H173.478L176.231 34.9737H178.794ZM178.794 31.3263V26.2009H176.029C175.107 26.2009 174.408 26.4155 173.931 26.8446C173.47 27.2578 173.24 27.8935 173.24 28.7517C173.24 29.594 173.47 30.2377 173.931 30.6827C174.408 31.1118 175.091 31.3263 175.981 31.3263H178.794Z" fill="white"/>
<mask id="mask0_1206_7517" style="mask-type:alpha" maskUnits="userSpaceOnUse" x="24" y="43" width="210" height="18">
<path d="M26.8347 60.6142C26.5169 60.6142 26.1752 60.5904 25.8097 60.5427C25.46 60.495 25.0865 60.4235 24.6892 60.3281L24.9514 56.4662C25.1739 56.5139 25.3885 56.5377 25.5951 56.5377C26.2467 56.5377 26.7394 56.2834 27.0731 55.7749C27.4069 55.2504 27.6373 54.5193 27.7645 53.5817C27.9075 52.644 27.9949 51.5474 28.0267 50.2919L28.2651 43.6408H41.7103V60.3281H37.0617V46.3346L38.0868 47.3835H31.3403L32.2939 46.2869L32.1747 50.1012C32.127 51.7222 32.0158 53.1843 31.8409 54.4875C31.6661 55.7749 31.388 56.8794 31.0066 57.8012C30.6252 58.7071 30.0927 59.4063 29.4094 59.899C28.7419 60.3758 27.8837 60.6142 26.8347 60.6142ZM44.5647 60.3281L51.931 43.6408H56.5796L63.9697 60.3281H59.0589L53.2898 45.9532H55.1492L49.3802 60.3281H44.5647ZM48.5935 57.086L49.8093 53.6055H57.9623L59.1781 57.086H48.5935ZM66.8356 60.3281V43.6408H80.7815V47.2881H71.4842V49.982H75.7991C77.8334 49.982 79.3829 50.4111 80.4477 51.2693C81.5284 52.1275 82.0688 53.3671 82.0688 54.9882C82.0688 56.6569 81.4649 57.9681 80.257 58.9216C79.0492 59.8593 77.3566 60.3281 75.1793 60.3281H66.8356ZM71.4842 56.943H74.8694C75.6481 56.943 76.2441 56.784 76.6573 56.4662C77.0864 56.1483 77.301 55.6954 77.301 55.1074C77.301 53.9313 76.4904 53.3433 74.8694 53.3433H71.4842V56.943ZM93.6596 60.6619C92.3246 60.6619 91.0929 60.4473 89.9646 60.0182C88.8362 59.5891 87.8508 58.9852 87.0085 58.2064C86.1821 57.4118 85.5384 56.49 85.0775 55.4411C84.6167 54.3922 84.3862 53.24 84.3862 51.9844C84.3862 50.7289 84.6167 49.5767 85.0775 48.5278C85.5384 47.4789 86.1821 46.565 87.0085 45.7863C87.8508 44.9916 88.8362 44.3798 89.9646 43.9507C91.0929 43.5216 92.3246 43.307 93.6596 43.307C95.0105 43.307 96.2422 43.5216 97.3547 43.9507C98.4831 44.3798 99.4605 44.9916 100.287 45.7863C101.113 46.565 101.757 47.4789 102.218 48.5278C102.695 49.5767 102.933 50.7289 102.933 51.9844C102.933 53.24 102.695 54.4001 102.218 55.4649C101.757 56.5139 101.113 57.4277 100.287 58.2064C99.4605 58.9852 98.4831 59.5891 97.3547 60.0182C96.2422 60.4473 95.0105 60.6619 93.6596 60.6619ZM93.6596 56.7523C94.2953 56.7523 94.8834 56.641 95.4237 56.4185C95.98 56.196 96.4567 55.8782 96.8541 55.4649C97.2673 55.0358 97.5851 54.5273 97.8076 53.9392C98.046 53.3512 98.1652 52.6996 98.1652 51.9844C98.1652 51.2534 98.046 50.6018 97.8076 50.0296C97.5851 49.4416 97.2673 48.941 96.8541 48.5278C96.4567 48.0987 95.98 47.7729 95.4237 47.5504C94.8834 47.3279 94.2953 47.2166 93.6596 47.2166C93.0239 47.2166 92.4279 47.3279 91.8717 47.5504C91.3313 47.7729 90.8546 48.0987 90.4413 48.5278C90.044 48.941 89.7262 49.4416 89.4878 50.0296C89.2653 50.6018 89.154 51.2534 89.154 51.9844C89.154 52.6996 89.2653 53.3512 89.4878 53.9392C89.7262 54.5273 90.044 55.0358 90.4413 55.4649C90.8546 55.8782 91.3313 56.196 91.8717 56.4185C92.4279 56.641 93.0239 56.7523 93.6596 56.7523ZM106.41 60.3281V43.6408H114.039C115.565 43.6408 116.876 43.8871 117.972 44.3798C119.085 44.8724 119.943 45.5876 120.547 46.5253C121.151 47.4471 121.453 48.5437 121.453 49.8151C121.453 51.0706 121.151 52.1593 120.547 53.081C119.943 54.0028 119.085 54.718 117.972 55.2266C116.876 55.7192 115.565 55.9656 114.039 55.9656H109.033L111.131 53.9154V60.3281H106.41ZM111.131 54.416L109.033 52.2467H113.753C114.738 52.2467 115.469 52.0321 115.946 51.603C116.439 51.1739 116.685 50.5779 116.685 49.8151C116.685 49.0363 116.439 48.4324 115.946 48.0033C115.469 47.5742 114.738 47.3597 113.753 47.3597H109.033L111.131 45.1903V54.416ZM122.038 60.3281L129.404 43.6408H134.053L141.443 60.3281H136.532L130.763 45.9532H132.623L126.854 60.3281H122.038ZM126.067 57.086L127.283 53.6055H135.436L136.651 57.086H126.067ZM147.166 60.3281V46.3346L148.215 47.3835H142.041V43.6408H156.916V47.3835H150.766L151.815 46.3346V60.3281H147.166ZM168.013 60.6619C166.678 60.6619 165.447 60.4473 164.318 60.0182C163.19 59.5891 162.205 58.9852 161.362 58.2064C160.536 57.4118 159.892 56.49 159.431 55.4411C158.97 54.3922 158.74 53.24 158.74 51.9844C158.74 50.7289 158.97 49.5767 159.431 48.5278C159.892 47.4789 160.536 46.565 161.362 45.7863C162.205 44.9916 163.19 44.3798 164.318 43.9507C165.447 43.5216 166.678 43.307 168.013 43.307C169.364 43.307 170.596 43.5216 171.708 43.9507C172.837 44.3798 173.814 44.9916 174.641 45.7863C175.467 46.565 176.111 47.4789 176.572 48.5278C177.048 49.5767 177.287 50.7289 177.287 51.9844C177.287 53.24 177.048 54.4001 176.572 55.4649C176.111 56.5139 175.467 57.4277 174.641 58.2064C173.814 58.9852 172.837 59.5891 171.708 60.0182C170.596 60.4473 169.364 60.6619 168.013 60.6619ZM168.013 56.7523C168.649 56.7523 169.237 56.641 169.777 56.4185C170.334 56.196 170.81 55.8782 171.208 55.4649C171.621 55.0358 171.939 54.5273 172.161 53.9392C172.4 53.3512 172.519 52.6996 172.519 51.9844C172.519 51.2534 172.4 50.6018 172.161 50.0296C171.939 49.4416 171.621 48.941 171.208 48.5278C170.81 48.0987 170.334 47.7729 169.777 47.5504C169.237 47.3279 168.649 47.2166 168.013 47.2166C167.378 47.2166 166.782 47.3279 166.225 47.5504C165.685 47.7729 165.208 48.0987 164.795 48.5278C164.398 48.941 164.08 49.4416 163.842 50.0296C163.619 50.6018 163.508 51.2534 163.508 51.9844C163.508 52.6996 163.619 53.3512 163.842 53.9392C164.08 54.5273 164.398 55.0358 164.795 55.4649C165.208 55.8782 165.685 56.196 166.225 56.4185C166.782 56.641 167.378 56.7523 168.013 56.7523ZM180.764 60.3281V43.6408H188.393C189.918 43.6408 191.229 43.8871 192.326 44.3798C193.439 44.8724 194.297 45.5876 194.901 46.5253C195.505 47.4471 195.807 48.5437 195.807 49.8151C195.807 51.0706 195.505 52.1593 194.901 53.081C194.297 54.0028 193.439 54.718 192.326 55.2266C191.229 55.7192 189.918 55.9656 188.393 55.9656H183.386L185.484 53.9154V60.3281H180.764ZM185.484 54.416L183.386 52.2467H188.107C189.092 52.2467 189.823 52.0321 190.3 51.603C190.792 51.1739 191.039 50.5779 191.039 49.8151C191.039 49.0363 190.792 48.4324 190.3 48.0033C189.823 47.5742 189.092 47.3597 188.107 47.3597H183.386L185.484 45.1903V54.416ZM198.899 60.3281V43.6408H203.547V53.4386L210.437 43.6408H214.871V60.3281H210.222V50.5541L203.356 60.3281H198.899ZM228.729 60.3281V55.155L229.849 56.1324H225.63C224.136 56.1324 222.848 55.8861 221.768 55.3934C220.687 54.9008 219.853 54.1935 219.265 53.2718C218.692 52.35 218.406 51.2534 218.406 49.982C218.406 48.6629 218.708 47.5345 219.312 46.5968C219.932 45.6432 220.798 44.9122 221.911 44.4036C223.039 43.895 224.358 43.6408 225.868 43.6408H233.377V60.3281H228.729ZM218.454 60.3281L222.626 54.2968H227.37L223.413 60.3281H218.454ZM228.729 53.6532V46.1915L229.849 47.3597H225.963C225.042 47.3597 224.342 47.5742 223.866 48.0033C223.405 48.4165 223.174 49.0522 223.174 49.9104C223.174 50.7528 223.405 51.3964 223.866 51.8414C224.342 52.2705 225.026 52.4851 225.916 52.4851H229.849L228.729 53.6532Z" fill="black"/>
</mask>
<g mask="url(#mask0_1206_7517)">
<path fill-rule="evenodd" clip-rule="evenodd" d="M25.804 60.5404C26.1696 60.588 26.5113 60.6119 26.8291 60.6119C27.878 60.6119 28.7362 60.3735 29.4037 59.8967C30.0871 59.404 30.6195 58.7047 31.001 57.7989C31.3824 56.8771 31.6605 55.7725 31.8353 54.4852C32.0101 53.182 32.1214 51.7199 32.1691 50.0988L32.254 47.3812H37.0561V60.3258H41.7047V43.6384H28.2595L28.0211 50.2895C27.9893 51.5451 27.9019 52.6417 27.7588 53.5793C27.6317 54.517 27.4013 55.2481 27.0675 55.7725C26.7338 56.2811 26.2411 56.5354 25.5895 56.5354C25.3829 56.5354 25.1683 56.5115 24.9458 56.4639L24.6836 60.3258C25.0809 60.4212 25.4544 60.4927 25.804 60.5404ZM51.9253 43.6384L44.5591 60.3258H49.3746L50.6757 57.0837H57.7521L59.0532 60.3258H63.9641L56.574 43.6384H51.9253ZM56.3553 53.6032L54.2139 48.2675L52.0725 53.6032H56.3553ZM66.83 43.6384V60.3258H75.1737C77.351 60.3258 79.0436 59.857 80.2514 58.9193C81.4593 57.9657 82.0632 56.6546 82.0632 54.9858C82.0632 53.3648 81.5228 52.1252 80.4421 51.2669C79.3773 50.4087 77.8278 49.9796 75.7935 49.9796H71.4786V47.2858H80.7759V43.6384H66.83ZM74.8638 56.9406H71.4786V53.3409H74.8638C76.4848 53.3409 77.2954 53.929 77.2954 55.105C77.2954 55.6931 77.0808 56.146 76.6517 56.4639C76.2385 56.7817 75.6425 56.9406 74.8638 56.9406ZM89.9589 60.0159C91.0873 60.445 92.319 60.6595 93.654 60.6595C95.0049 60.6595 96.2366 60.445 97.3491 60.0159C98.4774 59.5868 99.4548 58.9829 100.281 58.2041C101.108 57.4254 101.751 56.5115 102.212 55.4626C102.689 54.3978 102.927 53.2376 102.927 51.9821C102.927 50.7266 102.689 49.5744 102.212 48.5254C101.751 47.4765 101.108 46.5627 100.281 45.784C99.4548 44.9893 98.4774 44.3774 97.3491 43.9483C96.2366 43.5192 95.0049 43.3047 93.654 43.3047C92.319 43.3047 91.0873 43.5192 89.9589 43.9483C88.8306 44.3774 87.8452 44.9893 87.0029 45.784C86.1765 46.5627 85.5328 47.4765 85.0719 48.5254C84.611 49.5744 84.3806 50.7266 84.3806 51.9821C84.3806 53.2376 84.611 54.3899 85.0719 55.4388C85.5328 56.4877 86.1765 57.4095 87.0029 58.2041C87.8452 58.9829 88.8306 59.5868 89.9589 60.0159ZM95.4181 56.4162C94.8777 56.6387 94.2897 56.7499 93.654 56.7499C93.0183 56.7499 92.4223 56.6387 91.8661 56.4162C91.3257 56.1937 90.8489 55.8758 90.4357 55.4626C90.0384 55.0335 89.7206 54.525 89.4822 53.9369C89.2597 53.3489 89.1484 52.6973 89.1484 51.9821C89.1484 51.2511 89.2597 50.5995 89.4822 50.0273C89.7206 49.4393 90.0384 48.9387 90.4357 48.5254C90.8489 48.0963 91.3257 47.7705 91.8661 47.548C92.4223 47.3255 93.0183 47.2143 93.654 47.2143C94.2897 47.2143 94.8777 47.3255 95.4181 47.548C95.9743 47.7705 96.4511 48.0963 96.8484 48.5254C97.2617 48.9387 97.5795 49.4393 97.802 50.0273C98.0404 50.5995 98.1596 51.2511 98.1596 51.9821C98.1596 52.6973 98.0404 53.3489 97.802 53.9369C97.5795 54.525 97.2617 55.0335 96.8484 55.4626C96.4511 55.8758 95.9743 56.1937 95.4181 56.4162ZM114.033 43.6384H106.405V60.3258H111.125V55.9632H114.033C115.559 55.9632 116.87 55.7169 117.967 55.2242C119.079 54.7157 119.937 54.0005 120.541 53.0787C121.145 52.1569 121.447 51.0683 121.447 49.8128C121.447 48.5413 121.145 47.4447 120.541 46.523C119.937 45.5853 119.079 44.8701 117.967 44.3774C116.87 43.8848 115.559 43.6384 114.033 43.6384ZM111.125 52.2443H113.747C114.733 52.2443 115.464 52.0298 115.94 51.6007C116.433 51.1716 116.679 50.5756 116.679 49.8128C116.679 49.034 116.433 48.4301 115.94 48.001C115.464 47.5719 114.733 47.3573 113.747 47.3573H111.125V52.2443ZM134.047 43.6384H129.399L122.032 60.3258H126.848L128.149 57.0837H135.225L136.527 60.3258H141.437L134.047 43.6384ZM133.829 53.6032L131.687 48.2674L129.546 53.6032H133.829ZM147.16 47.3812V60.3258H151.809V47.3812H156.91V43.6384H142.035V47.3812H147.16ZM164.313 60.0159C165.441 60.445 166.673 60.6595 168.008 60.6595C169.359 60.6595 170.59 60.445 171.703 60.0159C172.831 59.5868 173.809 58.9829 174.635 58.2041C175.461 57.4254 176.105 56.5115 176.566 55.4626C177.043 54.3978 177.281 53.2376 177.281 51.9821C177.281 50.7266 177.043 49.5744 176.566 48.5254C176.105 47.4765 175.461 46.5627 174.635 45.784C173.809 44.9893 172.831 44.3774 171.703 43.9483C170.59 43.5192 169.359 43.3047 168.008 43.3047C166.673 43.3047 165.441 43.5192 164.313 43.9483C163.184 44.3774 162.199 44.9893 161.357 45.784C160.53 46.5627 159.887 47.4765 159.426 48.5254C158.965 49.5744 158.734 50.7266 158.734 51.9821C158.734 53.2376 158.965 54.3899 159.426 55.4388C159.887 56.4877 160.53 57.4095 161.357 58.2041C162.199 58.9829 163.184 59.5868 164.313 60.0159ZM169.772 56.4162C169.231 56.6387 168.643 56.7499 168.008 56.7499C167.372 56.7499 166.776 56.6387 166.22 56.4162C165.679 56.1937 165.203 55.8758 164.789 55.4626C164.392 55.0335 164.074 54.525 163.836 53.9369C163.613 53.3489 163.502 52.6973 163.502 51.9821C163.502 51.2511 163.613 50.5995 163.836 50.0273C164.074 49.4393 164.392 48.9387 164.789 48.5254C165.203 48.0963 165.679 47.7705 166.22 47.548C166.776 47.3255 167.372 47.2143 168.008 47.2143C168.643 47.2143 169.231 47.3255 169.772 47.548C170.328 47.7705 170.805 48.0963 171.202 48.5254C171.615 48.9387 171.933 49.4393 172.156 50.0273C172.394 50.5995 172.513 51.2511 172.513 51.9821C172.513 52.6973 172.394 53.3489 172.156 53.9369C171.933 54.525 171.615 55.0335 171.202 55.4626C170.805 55.8758 170.328 56.1937 169.772 56.4162ZM188.387 43.6384H180.758V60.3258H185.479V55.9632H188.387C189.913 55.9632 191.224 55.7169 192.32 55.2242C193.433 54.7157 194.291 54.0005 194.895 53.0787C195.499 52.1569 195.801 51.0683 195.801 49.8128C195.801 48.5413 195.499 47.4447 194.895 46.523C194.291 45.5853 193.433 44.8701 192.32 44.3774C191.224 43.8848 189.913 43.6384 188.387 43.6384ZM185.479 52.2443H188.101C189.086 52.2443 189.817 52.0298 190.294 51.6007C190.787 51.1716 191.033 50.5756 191.033 49.8128C191.033 49.034 190.787 48.4301 190.294 48.001C189.817 47.5719 189.086 47.3573 188.101 47.3573H185.479V52.2443ZM203.542 43.6384H198.893V60.3258H203.351L210.217 50.5518V60.3258H214.865V43.6384H210.431L203.542 53.4363V43.6384ZM228.723 56.1301V60.3258H233.372V43.6384H225.862C224.353 43.6384 223.034 43.8927 221.905 44.4013C220.793 44.9099 219.926 45.6409 219.307 46.5945C218.703 47.5322 218.401 48.6605 218.401 49.9796C218.401 51.2511 218.687 52.3477 219.259 53.2694C219.847 54.1912 220.681 54.8984 221.762 55.3911C221.787 55.4026 221.813 55.414 221.838 55.4252L218.448 60.3258H223.407L226.16 56.1301H228.723ZM228.723 52.4827V47.3573H225.958C225.036 47.3573 224.337 47.5719 223.86 48.001C223.399 48.4142 223.169 49.0499 223.169 49.9081C223.169 50.7504 223.399 51.3941 223.86 51.8391C224.337 52.2682 225.02 52.4827 225.91 52.4827H228.723Z" fill="white"/>
</g>
<path d="M26.0215 1.08594V17.9735H30.4363V4.91756H37.201V17.9735H41.6158V1.08594H26.0215Z" fill="white"/>
<path d="M68.1351 14.4107H64.8728V11.0617H68.1351C69.1762 11.0617 70.2174 11.4892 70.2174 12.7718C70.148 13.9832 69.1762 14.4107 68.1351 14.4107ZM68.5516 7.42767H64.8728V4.86247H73.1326V1.08594H60.5V17.9735H68.6904C71.9526 17.9735 74.4514 16.2633 74.4514 12.7006C74.5208 9.1378 72.0221 7.42767 68.5516 7.42767Z" fill="white"/>
<path d="M52.1805 14.2846C49.2303 14.2846 47.6147 12.1881 47.6147 9.53244C47.6147 7.4359 48.8089 4.78029 52.1102 4.78029C54.1472 4.78029 55.4818 6.03821 55.9735 6.59729L58.6427 3.94168C57.0271 2.0548 54.6389 0.796875 51.8995 0.796875C47.0528 0.796875 43.2598 4.36099 43.2598 9.53244C43.2598 14.3545 47.0528 18.268 51.8995 18.268C54.7794 18.268 57.3783 16.8703 58.9237 14.7039L56.2545 12.0483C55.4116 13.3062 54.0067 14.2846 52.1805 14.2846Z" fill="white"/>
<path d="M11.0122 1.26562L6.70312 5.57466H13.8289V17.7836L18.1379 13.6359V5.7985C18.1379 3.29506 16.1085 1.26562 13.605 1.26562H11.0122Z" fill="white"/>
<path d="M8.43511 17.8828L12.7441 13.5738L5.72095 13.5738L5.72095 1.36486L1.41191 5.69997L1.41191 13.3499C1.41191 15.8534 3.44135 17.8828 5.94479 17.8828L8.43511 17.8828Z" fill="white"/>
<path d="M10.0576 46.833L8.54691 48.3437L10.0576 46.833ZM4.5264 52.3642L6.03705 50.8536H6.03705L4.5264 52.3642ZM10.0576 57.8953L8.54691 59.406L10.0576 60.9166L11.5682 59.406L10.0576 57.8953ZM10.0836 57.8693L11.5943 56.3586L10.0836 54.848L8.57299 56.3586L10.0836 57.8693ZM10.1097 57.8953L8.59907 59.406L10.1097 60.9166L11.6204 59.406L10.1097 57.8953ZM15.6409 52.3642L17.1515 53.8748L15.6409 52.3642ZM15.6409 46.833L17.1515 45.3224L17.1515 45.3224L15.6409 46.833ZM10.1097 46.833L8.59907 45.3224L8.59907 45.3224L10.1097 46.833ZM10.0836 46.8591L8.57299 48.3698L10.0836 49.8804L11.5943 48.3698L10.0836 46.8591ZM6.03704 48.3437C6.73012 47.6506 7.85383 47.6506 8.54691 48.3437L11.5682 45.3224C9.2065 42.9607 5.37744 42.9607 3.01575 45.3224L6.03704 48.3437ZM6.03705 50.8536C5.34396 50.1605 5.34396 49.0368 6.03704 48.3437L3.01575 45.3224C0.654058 47.6841 0.654068 51.5132 3.01576 53.8748L6.03705 50.8536ZM11.5682 56.3847L6.03705 50.8536L3.01576 53.8748L8.54691 59.406L11.5682 56.3847ZM8.57299 56.3586L8.54691 56.3847L11.5682 59.406L11.5943 59.3799L8.57299 56.3586ZM8.57299 59.3799L8.59907 59.406L11.6204 56.3847L11.5943 56.3586L8.57299 59.3799ZM11.6204 59.406L17.1515 53.8748L14.1302 50.8536L8.59907 56.3847L11.6204 59.406ZM17.1515 53.8748C19.5132 51.5132 19.5132 47.6841 17.1515 45.3224L14.1302 48.3437C14.8233 49.0368 14.8233 50.1605 14.1302 50.8536L17.1515 53.8748ZM17.1515 45.3224C14.7898 42.9607 10.9608 42.9607 8.59907 45.3224L11.6204 48.3437C12.3134 47.6506 13.4371 47.6506 14.1302 48.3437L17.1515 45.3224ZM8.59907 45.3224L8.57299 45.3485L11.5943 48.3698L11.6204 48.3437L8.59907 45.3224ZM8.54691 48.3437L8.57299 48.3698L11.5943 45.3485L11.5682 45.3224L8.54691 48.3437Z" fill="white"/>
<path fill-rule="evenodd" clip-rule="evenodd" d="M10.9863 23.9001C10.9917 23.8895 11.0026 23.8828 11.0144 23.8828H15.6522C15.7286 23.8828 15.7986 23.9256 15.8334 23.9937L18.1792 28.5847L19.3354 30.8475C19.3651 30.9057 19.3651 30.9745 19.3354 31.0327L18.1792 33.2955L15.8218 37.9093C15.787 37.9773 15.717 38.0202 15.6406 38.0202H11.04C11.0196 38.0202 11.0009 38.0087 10.9916 37.9905C10.9836 37.975 10.9836 37.9565 10.9916 37.941L14.5214 31.0327C14.5511 30.9745 14.5511 30.9057 14.5214 30.8475L10.9863 23.9288C10.9817 23.9198 10.9817 23.9091 10.9863 23.9001ZM3.74305 23.9937C3.77782 23.9256 3.8478 23.8828 3.92423 23.8828H8.56201C8.57389 23.8828 8.58477 23.8895 8.59018 23.9001C8.5948 23.9091 8.5948 23.9198 8.59018 23.9288L5.05502 30.8475C5.02531 30.9057 5.02531 30.9745 5.05502 31.0327L8.58488 37.941C8.59283 37.9565 8.59283 37.975 8.58488 37.9905C8.57558 38.0087 8.55686 38.0202 8.53642 38.0202H3.93587C3.85945 38.0202 3.78946 37.9773 3.75469 37.9093L1.39723 33.2955L0.241031 31.0327C0.211323 30.9745 0.211323 30.9057 0.241031 30.8475L1.39723 28.5847L3.74305 23.9937Z" fill="white"/>
</g>
<defs>
<clipPath id="clip0_1206_7517">
<rect width="234.667" height="60" fill="white" transform="translate(0.666016 0.335938)"/>
</clipPath>
</defs>
</svg>
