<svg xmlns="http://www.w3.org/2000/svg" width="643" height="567" fill="none" viewBox="0 0 643 567"><g filter="url(#a)"><path fill="url(#b)" fill-rule="evenodd" d="M398.301 0h-9.983a15.878 15.878 0 0 0-15.877 15.877v11.635a22.374 22.374 0 0 1-6.552 15.82 22.37 22.37 0 0 0-6.553 15.82v6.958a36.864 36.864 0 0 0 10.797 26.066l7.573 7.573a13.78 13.78 0 0 1 4.036 9.743v.979c0 3.027-1.203 5.93-3.344 8.071-4.457 4.458-11.684 4.458-16.142 0l-15.12-15.12a20.412 20.412 0 0 0-14.433-5.979 20.412 20.412 0 0 1-14.434-5.978L296.875 70.07a8.221 8.221 0 0 0-11.626 11.626l10.442 10.441a18.12 18.12 0 0 1 5.306 12.81v3.389a9.935 9.935 0 0 1-16.96 7.025l-1.195-1.196a11.63 11.63 0 0 0-8.221-3.405h-10.925a7.926 7.926 0 0 0-5.605 2.322l-3.702 3.702c-3.627 3.627-9.829 1.058-9.829-4.071a5.758 5.758 0 0 0-5.758-5.758h-5.303a11.06 11.06 0 0 0-7.82 3.24l-32.488 32.487a7.922 7.922 0 0 0-2.32 5.602 7.921 7.921 0 0 1-7.922 7.921h-3.281c-6.187 0-11.203-5.015-11.203-11.202v-18.179c0-6.42-5.205-11.625-11.625-11.625-6.421 0-11.626 5.205-11.626 11.625v2.74c0 3.253 1.293 6.374 3.593 8.675l.42.419a10.838 10.838 0 0 1 3.174 7.662v13.267c0 4.759-5.753 7.141-9.118 3.777a5.34 5.34 0 0 0-7.553 0l-15.626 15.627c-5.861 5.86-5.861 15.363 0 21.224l2.907 2.907a5.081 5.081 0 0 1-3.593 8.675h-7.175c-3.25 0-6.368-1.291-8.666-3.59l-10.678-10.678a4.933 4.933 0 0 0-6.975 6.975l7.129 7.13a7.773 7.773 0 0 1 2.277 5.496v3.587a4.185 4.185 0 0 1-7.145 2.959l-18.22-18.22a6.278 6.278 0 0 1 0-8.878 6.278 6.278 0 0 0 0-8.878l-25.516-25.516a8.455 8.455 0 0 1 5.978-14.434h3.79c4.67 0 9.148 1.855 12.45 5.157l12.997 12.998a22.452 22.452 0 0 0 31.754 0l8.149-8.149a16.841 16.841 0 0 0 0-23.816l-27.273-27.273a20.67 20.67 0 0 0-14.614-6.053 20.667 20.667 0 0 1-14.614-6.053l-7.95-7.95a17.86 17.86 0 0 0-25.26 0L17.65 98.816c-6.596 6.596-6.596 17.29 0 23.886 6.596 6.595 6.596 17.289 0 23.885l-.912.911a18.178 18.178 0 0 0-5.324 12.854v3.908a19.846 19.846 0 0 0 5.813 14.033 19.846 19.846 0 0 1 5.813 14.033v5.719a9.721 9.721 0 0 0 2.848 6.875l.64.64a8.818 8.818 0 0 1 0 12.471 8.818 8.818 0 0 0 0 12.471l2.325 2.326c4.727 4.727 4.727 12.393 0 17.121L10.78 268.022c-4.32 4.32-4.32 11.323 0 15.642 4.32 4.319 4.32 11.322 0 15.642l-1.985 1.985a7.657 7.657 0 0 0-2.242 5.413c0 2.03-.807 3.977-2.242 5.412l-1.035 1.035A11.186 11.186 0 0 0 0 321.06v14.416a34.64 34.64 0 0 0 10.146 24.494l7.563 7.563a8.817 8.817 0 0 0 6.236 2.583 8.818 8.818 0 0 1 8.818 8.818v4.933a13.75 13.75 0 0 0 4.028 9.723l5.31 5.311a9.512 9.512 0 0 1 0 13.452l-.772.772a6.875 6.875 0 0 0 4.862 11.737h9.4a6.341 6.341 0 0 1 6.342 6.341v.74a5.6 5.6 0 0 0 5.601 5.601 5.602 5.602 0 0 1 5.601 5.602v.211a5.813 5.813 0 0 0 5.813 5.813h4.5a10.31 10.31 0 0 1 7.293 3.021l3.217 3.216a6.13 6.13 0 0 1 1.794 4.333v.633a5.496 5.496 0 0 1-5.495 5.496 5.496 5.496 0 0 0-5.496 5.495v7.081a5.813 5.813 0 0 1-5.813 5.813 5.813 5.813 0 0 0-5.813 5.813v4.68a5.783 5.783 0 0 1-5.782 5.783 5.78 5.78 0 0 0-3.908 1.52l-5.951 5.455-4.228 4.228a8.668 8.668 0 0 0 0 12.259l.6.6a7.821 7.821 0 0 0 11.06 0 7.82 7.82 0 0 1 5.53-2.291h10.078a32.145 32.145 0 0 1 22.732 9.417l4.605 4.604a33.68 33.68 0 0 0 23.815 9.865h5.884a13.35 13.35 0 0 1 9.441 3.91 13.347 13.347 0 0 0 9.44 3.91h5.978c2.105 0 4.129.841 5.618 2.33a7.924 7.924 0 0 0 5.597 2.321c2.098 0 4.109.833 5.593 2.316l4.553 4.553a4.932 4.932 0 0 0 6.975-6.975l-6.658-6.658a6.277 6.277 0 0 1 0-8.878 6.279 6.279 0 0 0 0-8.878l-1.374-1.374a8.22 8.22 0 0 1 0-11.625l11.786-11.787a13.518 13.518 0 0 0 0-19.124l-2.151-2.152a9.444 9.444 0 0 0-6.676-2.765h-.496a8.244 8.244 0 0 1-5.829-2.415l-1.707-1.707a5.83 5.83 0 0 1 0-8.243l.74-.74a4.783 4.783 0 0 0 0-6.764 4.783 4.783 0 0 1 0-6.764l3.804-3.805a5.68 5.68 0 0 1 8.033 0l1.902 1.902a2.99 2.99 0 1 0 4.228-4.227l-.635-.634a3.887 3.887 0 0 1 0-5.496l13.177-13.176a5.53 5.53 0 0 1 3.91-1.62h3.522c1.109 0 2.008.899 2.008 2.008s.899 2.008 2.008 2.008h10.886a15.82 15.82 0 0 1 11.186 4.633l2.186 2.186a13.524 13.524 0 0 0 9.562 3.961h.371c3.349 0 6.561-1.33 8.93-3.699a12.63 12.63 0 0 1 8.93-3.699h4.133c4.019 0 7.874 1.597 10.716 4.439a15.158 15.158 0 0 0 10.717 4.439h2.975c2.467 0 4.832-.98 6.577-2.724l.657-.658a8.37 8.37 0 0 0 0-11.837l-2.959-2.959a4.186 4.186 0 0 1 0-5.919l.74-.74a3.138 3.138 0 0 0 0-4.439 3.137 3.137 0 0 1 0-4.438l1.213-1.213a3.435 3.435 0 0 1 2.43-1.007c3.063 0 4.597-3.703 2.431-5.868l-1.007-1.007a4.028 4.028 0 0 1 0-5.696l.441-.44a4.65 4.65 0 0 1 3.288-1.362h12.955a20.204 20.204 0 0 0 14.288-5.919 20.211 20.211 0 0 1 14.289-5.918h5.866c4.689 0 9.187-1.863 12.503-5.179l2.026-2.027a10.763 10.763 0 0 1 7.61-3.152h1.566a9.195 9.195 0 0 1 9.195 9.195 9.195 9.195 0 0 0 9.195 9.195h1.567a10.76 10.76 0 0 1 7.609 3.152l2.312 2.311a14.54 14.54 0 0 0 20.567 0l7.895-7.894a4.633 4.633 0 0 1 6.552 0l.634.634a3.736 3.736 0 0 1 0 5.285 3.737 3.737 0 0 0 0 5.284l32.129 32.129a3.138 3.138 0 0 0 4.439 0 3.138 3.138 0 0 1 4.439 0l6.447 6.447a5.083 5.083 0 0 0 7.187 0 5.08 5.08 0 0 1 7.186 0l19.705 19.704a30.872 30.872 0 0 0 43.661 0l9.983-9.983a20.92 20.92 0 0 1 29.589 0l3.627 3.628a13.606 13.606 0 0 0 9.618 3.983c7.512 0 13.601-6.089 13.601-13.601V36.862C643 16.504 626.496 0 606.138 0H501.237c-6.109 0-11.06 4.952-11.06 11.06a11.06 11.06 0 0 0 3.239 7.821l8.631 8.631a31.637 31.637 0 0 1 9.267 22.372v20.877c0 3.28 1.303 6.425 3.622 8.744l10.52 10.52c3.907 3.908 1.14 10.589-4.386 10.589a6.2 6.2 0 0 1-4.386-1.817L504.567 86.68a36.863 36.863 0 0 1-10.797-26.066v-4.339a36.863 36.863 0 0 0-10.797-26.065L470.34 17.576a14.629 14.629 0 0 0-10.32-4.26 14.453 14.453 0 0 0-10.198 4.21l-2.425 2.425c-4.274 4.274-4.274 11.204 0 15.478l11.411 11.411c2.684 2.683.783 7.272-3.012 7.272a4.26 4.26 0 0 1-3.012-1.248l-8.468-8.468a26.007 26.007 0 0 1-7.617-18.39V4.016a4.016 4.016 0 1 0-8.032 0v18.158c0 3.532-1.403 6.919-3.901 9.416l-1.067 1.067c-4.611 4.612-4.611 12.088 0 16.699 4.612 4.611 4.612 12.087 0 16.698l-1.814 1.815a14.376 14.376 0 0 0-4.21 10.163v2.404c0 11.144 9.034 20.178 20.178 20.178h6.669a14.798 14.798 0 0 1 14.794 14.794v12.842c0 1.794.713 3.515 1.981 4.783l2.458 2.458a3.288 3.288 0 0 1-4.65 4.65l-6.494-6.493a12.475 12.475 0 0 1-3.652-8.819v-4.399a12.63 12.63 0 0 0-3.699-8.93l-.86-.859a9.692 9.692 0 0 0-13.712 0l-3.097 3.097a11.485 11.485 0 0 0 0 16.238l.721.721a12.758 12.758 0 0 1 0 18.042l-15.697 15.697a18.085 18.085 0 0 1-12.788 5.297h-13.118a4.967 4.967 0 0 1 0-9.934h5.196c2.696 0 5.281-1.071 7.187-2.977l15.624-15.624a6.875 6.875 0 0 0 0-9.723 6.876 6.876 0 0 1 0-9.724 6.875 6.875 0 0 0 0-9.723l-4.405-4.405a13.105 13.105 0 0 1-3.839-9.267V74.699c0-2.355.936-4.613 2.601-6.278a8.878 8.878 0 0 0 0-12.555l-5.355-5.354a12.246 12.246 0 0 1 0-17.32l5.891-5.89c2.999-3 4.684-7.068 4.684-11.31C414.293 7.16 407.133 0 398.301 0ZM87.253 498.041a8.508 8.508 0 0 1-6.017 2.493 8.51 8.51 0 0 0-5.926 2.403l-3.573 3.468a3.91 3.91 0 0 1-2.724 1.104h-.472a3.438 3.438 0 0 0-2.43 5.869l4.484 4.484a8.675 8.675 0 0 0 6.134 2.541h1.052a6.132 6.132 0 0 0 4.338-1.797 6.135 6.135 0 0 1 4.337-1.796h2.327c2.297 0 4.5-.913 6.124-2.537l1.486-1.486a5.073 5.073 0 0 0 0-7.174l-.961-.96a1.794 1.794 0 0 1 1.269-3.062h4.483a6.279 6.279 0 0 0 4.439-1.839l1.565-1.564a2.093 2.093 0 0 0-1.48-3.573H94.864a10.104 10.104 0 0 0-7.144 2.96z" clip-rule="evenodd" style="fill:url(#b)"/></g><defs><radialGradient id="b" cx="0" cy="0" r="1" gradientTransform="rotate(-45 651.795 105.458) scale(426.29)" gradientUnits="userSpaceOnUse"><stop stop-color="#FFA848"/><stop offset=".336" stop-color="#FF5030"/><stop offset=".706" stop-color="#7F20D0"/><stop offset="1" stop-color="#0E0F50"/></radialGradient><filter id="a" width="669.809" height="593.785" x=".596" y=".271" color-interpolation-filters="sRGB" filterUnits="userSpaceOnUse"><feFlood flood-opacity="0" result="BackgroundImageFix"/><feColorMatrix in="SourceAlpha" result="hardAlpha" values="0 0 0 0 0 0 0 0 0 0 0 0 0 0 0 0 0 0 127 0"/><feOffset dy="1.676"/><feGaussianBlur stdDeviation="6.702"/><feComposite in2="hardAlpha" operator="out"/><feColorMatrix values="0 0 0 0 0 0 0 0 0 0 0 0 0 0 0 0 0 0 0.1 0"/><feBlend in2="BackgroundImageFix" result="effect1_dropShadow_1129_4978"/><feBlend in="SourceGraphic" in2="effect1_dropShadow_1129_4978" result="shape"/></filter></defs></svg>