<svg xmlns="http://www.w3.org/2000/svg" width="1278" height="1127" fill="none" viewBox="0 0 1278 1127"><g filter="url(#a)"><path fill="url(#b)" fill-rule="evenodd" d="M791.743 0h-19.844a31.56 31.56 0 0 0-31.56 31.56v23.13a44.471 44.471 0 0 1-13.025 31.445 44.47 44.47 0 0 0-13.025 31.446v13.833a73.274 73.274 0 0 0 21.462 51.813l15.054 15.055a27.388 27.388 0 0 1 8.022 19.366v1.946a22.69 22.69 0 0 1-6.646 16.044c-8.86 8.861-23.226 8.861-32.087 0l-30.056-30.055a40.571 40.571 0 0 0-28.691-11.885 40.574 40.574 0 0 1-28.691-11.884l-42.527-42.528c-6.382-6.381-16.728-6.381-23.11 0-6.381 6.382-6.381 16.728 0 23.11l20.756 20.755a36.011 36.011 0 0 1 10.547 25.463v6.737c0 5.237-2.081 10.26-5.784 13.963-7.712 7.713-20.216 7.713-27.928 0l-2.377-2.376a23.11 23.11 0 0 0-16.341-6.769h-21.716c-4.179 0-8.187 1.66-11.142 4.615l-7.36 7.36c-7.21 7.21-19.538 2.103-19.538-8.093 0-6.321-5.124-11.445-11.445-11.445h-10.54a21.986 21.986 0 0 0-15.547 6.44l-64.579 64.579a15.746 15.746 0 0 0-4.612 11.134c0 8.697-7.05 15.747-15.746 15.747h-6.523c-12.299 0-22.269-9.971-22.269-22.269v-36.135c0-12.763-10.346-23.109-23.109-23.109-12.763 0-23.109 10.346-23.109 23.109v5.445a24.387 24.387 0 0 0 7.142 17.244l.834.834a21.538 21.538 0 0 1 6.309 15.231v26.372c0 9.459-11.435 14.195-18.123 7.507-4.146-4.146-10.868-4.146-15.014 0l-31.063 31.063c-11.65 11.65-11.65 30.539 0 42.189l5.779 5.779a10.1 10.1 0 0 1 2.959 7.143c0 5.579-4.523 10.101-10.102 10.101h-14.261a24.362 24.362 0 0 1-17.227-7.135l-21.226-21.226c-3.828-3.829-10.036-3.829-13.865 0-3.829 3.829-3.829 10.037 0 13.866l14.172 14.172a15.446 15.446 0 0 1 4.525 10.924v7.131a8.319 8.319 0 0 1-14.201 5.882l-36.219-36.219c-4.873-4.873-4.873-12.774 0-17.647 4.873-4.873 4.873-12.774 0-17.647L88.355 322.39c-6.564-6.564-6.564-17.205 0-23.769a16.81 16.81 0 0 1 11.884-4.922h7.534a34.995 34.995 0 0 1 24.746 10.25l25.838 25.837a44.632 44.632 0 0 0 63.12 0l16.198-16.199a33.472 33.472 0 0 0 0-47.34l-54.213-54.213a41.082 41.082 0 0 0-29.05-12.033 41.08 41.08 0 0 1-29.049-12.033l-15.804-15.804a35.507 35.507 0 0 0-50.21 0l-24.265 24.265c-13.111 13.112-13.111 34.369 0 47.48 13.111 13.111 13.111 34.368 0 47.479l-1.812 1.811a36.136 36.136 0 0 0-10.583 25.551v7.768a39.448 39.448 0 0 0 11.555 27.895 39.452 39.452 0 0 1 11.554 27.896v11.368a19.325 19.325 0 0 0 5.661 13.666l1.272 1.272c6.846 6.846 6.846 17.945 0 24.79-6.846 6.846-6.846 17.945 0 24.79l4.622 4.622c9.398 9.398 9.398 24.636 0 34.034l-35.925 35.925c-8.586 8.586-8.586 22.506 0 31.092 8.586 8.586 8.586 22.507 0 31.093l-3.946 3.947a15.214 15.214 0 0 0-4.457 10.759c0 4.035-1.603 7.905-4.457 10.759l-2.056 2.056A22.236 22.236 0 0 0 0 638.205v28.654a68.86 68.86 0 0 0 20.167 48.691l15.034 15.034a17.53 17.53 0 0 0 12.395 5.134c9.681 0 17.53 7.848 17.53 17.529v9.804c0 7.25 2.879 14.202 8.005 19.328l10.557 10.558c7.384 7.383 7.384 19.355 0 26.739l-1.535 1.535a13.667 13.667 0 0 0-4.003 9.664c0 7.548 6.119 13.667 13.667 13.667h18.686c6.962 0 12.606 5.643 12.606 12.605v1.47c0 6.15 4.985 11.135 11.134 11.135 6.15 0 11.135 4.985 11.135 11.134v.421c0 6.381 5.173 11.554 11.554 11.554h8.946a20.5 20.5 0 0 1 14.496 6.005l6.394 6.394a12.183 12.183 0 0 1 3.568 8.613v1.257c0 6.034-4.891 10.925-10.925 10.925-6.033 0-10.924 4.891-10.924 10.924v14.076c0 6.381-5.173 11.554-11.555 11.554-6.381 0-11.554 5.174-11.554 11.555v9.306c0 6.35-5.147 11.49-11.495 11.49a11.51 11.51 0 0 0-7.768 3.02l-11.83 10.85-8.403 8.4c-6.73 6.73-6.73 17.64 0 24.37l1.192 1.19c6.071 6.07 15.914 6.07 21.985 0a15.568 15.568 0 0 1 10.993-4.55h20.032a63.887 63.887 0 0 1 45.188 18.72l9.153 9.15a66.93 66.93 0 0 0 47.34 19.61h11.696c7.039 0 13.789 2.8 18.766 7.77a26.533 26.533 0 0 0 18.766 7.78h11.883c4.185 0 8.207 1.67 11.166 4.63a15.784 15.784 0 0 0 11.126 4.61c4.17 0 8.17 1.66 11.118 4.6l9.051 9.05a9.802 9.802 0 0 0 13.865 0c3.829-3.82 3.829-10.03 0-13.86l-13.235-13.24c-4.873-4.87-4.873-12.77 0-17.64 4.873-4.88 4.873-12.78 0-17.65l-2.731-2.73c-6.382-6.38-6.382-16.73 0-23.11l23.429-23.43a26.883 26.883 0 0 0 0-38.016l-4.277-4.277a18.766 18.766 0 0 0-13.27-5.497h-.985a16.39 16.39 0 0 1-11.588-4.799l-3.393-3.394c-4.525-4.525-4.525-11.862 0-16.387l1.47-1.47a9.508 9.508 0 0 0 0-13.446c-3.713-3.712-3.713-9.732 0-13.445l7.563-7.563c4.409-4.409 11.558-4.409 15.967 0l3.781 3.781a5.942 5.942 0 1 0 8.404-8.403l-1.261-1.261a7.725 7.725 0 0 1 0-10.924l26.192-26.192a10.993 10.993 0 0 1 7.774-3.22h7.001a3.991 3.991 0 0 1 3.991 3.992 3.991 3.991 0 0 0 3.992 3.991h21.639c8.34 0 16.338 3.313 22.235 9.211l4.345 4.345a26.884 26.884 0 0 0 19.008 7.873h.736a25.106 25.106 0 0 0 17.752-7.353 25.103 25.103 0 0 1 17.751-7.353h8.216c7.99 0 15.652 3.174 21.302 8.824a30.126 30.126 0 0 0 21.302 8.823h5.914c4.903 0 9.606-1.948 13.073-5.415l1.308-1.308c6.497-6.497 6.497-17.032 0-23.529l-5.883-5.882a8.32 8.32 0 0 1 0-11.765l1.471-1.471a6.24 6.24 0 0 0 0-8.823 6.239 6.239 0 0 1 0-8.824l2.41-2.41a6.833 6.833 0 0 1 4.832-2.002c6.088 0 9.137-7.36 4.832-11.665l-2.001-2.001a8.005 8.005 0 0 1 0-11.322l.875-.876a9.247 9.247 0 0 1 6.536-2.707h25.752a40.168 40.168 0 0 0 28.403-11.765 40.166 40.166 0 0 1 28.403-11.765h11.661a35.147 35.147 0 0 0 24.852-10.294l4.029-4.029a21.395 21.395 0 0 1 15.126-6.265h3.114c10.094 0 18.277 8.183 18.277 18.277 0 10.095 8.184 18.278 18.278 18.278h3.114a21.387 21.387 0 0 1 15.126 6.265l4.595 4.595a28.91 28.91 0 0 0 40.885 0l15.692-15.692a9.21 9.21 0 0 1 13.025 0l1.261 1.26a7.43 7.43 0 0 1 0 10.505 7.427 7.427 0 0 0 0 10.504l63.866 63.866a6.24 6.24 0 0 0 8.823 0 6.24 6.24 0 0 1 8.825 0l12.81 12.815a10.107 10.107 0 0 0 14.29 0c3.94-3.945 10.34-3.945 14.29 0l39.16 39.168a61.377 61.377 0 0 0 43.4 17.975c16.28 0 31.89-6.466 43.39-17.975l19.85-19.844a41.593 41.593 0 0 1 29.41-12.181c11.03 0 21.61 4.381 29.4 12.181l7.22 7.211a27.02 27.02 0 0 0 19.11 7.919c14.94 0 27.04-12.105 27.04-27.037V73.275C1278.157 32.806 1245.347 0 1204.887 0h-208.53c-12.14 0-21.98 9.843-21.98 21.986 0 5.83 2.31 11.423 6.44 15.546l17.15 17.157a62.867 62.867 0 0 1 18.42 44.471v41.5c0 6.519 2.59 12.771 7.2 17.38l20.92 20.913c7.76 7.767 2.26 21.048-8.72 21.048a12.33 12.33 0 0 1-8.72-3.611l-24.09-24.087a73.282 73.282 0 0 1-21.46-51.813v-8.626a73.274 73.274 0 0 0-21.462-51.813l-25.113-25.113c-5.422-5.421-12.845-8.467-20.513-8.467-7.577 0-14.914 3.01-20.272 8.368l-4.82 4.82c-8.496 8.496-8.496 22.27 0 30.766l22.683 22.684c5.334 5.334 1.556 14.455-5.988 14.455a8.469 8.469 0 0 1-5.987-2.481l-16.832-16.832a51.696 51.696 0 0 1-15.142-36.555V7.983a7.983 7.983 0 1 0-15.966 0v36.095c0 7.02-2.789 13.753-7.754 18.717l-2.12 2.121c-9.167 9.166-9.167 24.028 0 33.194 9.166 9.166 9.166 24.027 0 33.193l-3.607 3.607a28.57 28.57 0 0 0-8.368 20.203v4.779c0 22.151 17.957 40.109 40.109 40.109h13.256a29.408 29.408 0 0 1 29.408 29.408v25.527c0 3.566 1.417 6.986 3.938 9.507l4.886 4.886a6.538 6.538 0 0 1-9.244 9.244l-12.907-12.908a24.79 24.79 0 0 1-7.261-17.529v-8.745a25.103 25.103 0 0 0-7.353-17.751l-1.708-1.708a19.27 19.27 0 0 0-27.257 0l-6.157 6.157a22.827 22.827 0 0 0 0 32.278l1.434 1.434a25.36 25.36 0 0 1 0 35.863l-31.203 31.203a35.95 35.95 0 0 1-25.42 10.53h-26.076c-5.453 0-9.874-4.421-9.874-9.874 0-5.454 4.421-9.874 9.874-9.874h10.329a20.204 20.204 0 0 0 14.286-5.918l31.057-31.057c5.338-5.338 5.338-13.991 0-19.328-5.337-5.337-5.337-13.991 0-19.328 5.338-5.337 5.338-13.991 0-19.328l-8.756-8.757a26.046 26.046 0 0 1-7.63-18.42v-47.026a17.65 17.65 0 0 1 5.168-12.479c6.892-6.891 6.892-18.065 0-24.956l-10.643-10.644a24.346 24.346 0 0 1 0-34.429l11.71-11.71a31.79 31.79 0 0 0 9.311-22.479C823.533 14.233 809.3 0 791.743 0ZM173.442 990.01a16.919 16.919 0 0 1-11.961 4.95c-4.398 0-8.624 1.72-11.781 4.78l-7.102 6.89a7.766 7.766 0 0 1-5.413 2.2h-.939a6.829 6.829 0 0 0-4.832 11.66l8.914 8.92a17.26 17.26 0 0 0 12.193 5.05h2.093a12.22 12.22 0 0 0 8.622-3.57 12.178 12.178 0 0 1 8.622-3.57h4.626c4.565 0 8.944-1.82 12.172-5.05l2.954-2.95a10.083 10.083 0 0 0 0-14.26l-1.91-1.91a3.568 3.568 0 0 1 2.521-6.09h8.914c3.309 0 6.483-1.31 8.823-3.65l3.11-3.11a4.158 4.158 0 0 0-2.941-7.1h-21.555a20.068 20.068 0 0 0-14.202 5.88z" clip-rule="evenodd" style="fill:url(#b)"/></g><defs><radialGradient id="b" cx="0" cy="0" r="1" gradientTransform="rotate(-45 1295.634 209.626) scale(847.381)" gradientUnits="userSpaceOnUse"><stop stop-color="#FFA848"/><stop offset=".336" stop-color="#FF5030"/><stop offset=".706" stop-color="#7F20D0"/><stop offset="1" stop-color="#0E0F50"/></radialGradient><filter id="a" width="1331.45" height="1180.33" x=".197" y=".685" color-interpolation-filters="sRGB" filterUnits="userSpaceOnUse"><feFlood flood-opacity="0" result="BackgroundImageFix"/><feColorMatrix in="SourceAlpha" result="hardAlpha" values="0 0 0 0 0 0 0 0 0 0 0 0 0 0 0 0 0 0 127 0"/><feOffset dy="3.331"/><feGaussianBlur stdDeviation="13.323"/><feComposite in2="hardAlpha" operator="out"/><feColorMatrix values="0 0 0 0 0 0 0 0 0 0 0 0 0 0 0 0 0 0 0.1 0"/><feBlend in2="BackgroundImageFix" result="effect1_dropShadow_1129_4059"/><feBlend in="SourceGraphic" in2="effect1_dropShadow_1129_4059" result="shape"/></filter></defs></svg>