<svg xmlns="http://www.w3.org/2000/svg" width="1919" height="1692" fill="none" viewBox="0 0 1919 1692"><g filter="url(#a)"><path fill="url(#b)" fill-rule="evenodd" d="M1188.557 0h-29.78a47.4 47.4 0 0 0-33.51 13.877 47.393 47.393 0 0 0-13.87 33.501v34.721a66.765 66.765 0 0 1-19.56 47.206 66.757 66.757 0 0 0-19.55 47.207v20.766c0 29.174 11.59 57.153 32.22 77.782l22.6 22.6a41.113 41.113 0 0 1 12.04 29.072v2.922c0 9.034-3.59 17.697-9.98 24.085-13.3 13.302-34.86 13.302-48.16 0l-45.12-45.119a60.93 60.93 0 0 0-43.07-17.841 60.92 60.92 0 0 1-43.076-17.84l-63.842-63.843c-9.58-9.58-25.112-9.58-34.692 0-9.58 9.58-9.58 25.112 0 34.692l31.158 31.158a54.059 54.059 0 0 1 15.834 38.225v10.112a29.649 29.649 0 0 1-8.683 20.963c-11.578 11.577-30.348 11.577-41.926 0l-3.568-3.568a34.691 34.691 0 0 0-24.53-10.161h-32.601a23.653 23.653 0 0 0-16.726 6.928l-11.049 11.049c-10.823 10.823-29.33 3.157-29.33-12.149 0-9.489-7.692-17.182-17.181-17.182h-15.824a33.01 33.01 0 0 0-23.338 9.667l-96.945 96.946a23.636 23.636 0 0 0-6.924 16.715c0 13.055-10.583 23.639-23.639 23.639h-9.791c-18.463 0-33.43-14.967-33.43-33.43v-54.245c0-19.16-15.532-34.692-34.692-34.692s-34.692 15.532-34.692 34.692v8.173c0 9.71 3.857 19.022 10.723 25.887l1.252 1.252a32.338 32.338 0 0 1 9.471 22.865v39.59c0 14.199-17.167 21.309-27.207 11.269-6.224-6.223-16.315-6.223-22.539 0l-46.631 46.632c-17.489 17.489-17.489 45.844 0 63.333l8.675 8.676a15.165 15.165 0 0 1 4.442 10.723c0 8.375-6.789 15.164-15.164 15.164h-21.409c-9.7 0-19.002-3.853-25.861-10.712l-31.864-31.864c-5.748-5.748-15.067-5.748-20.815 0-5.748 5.748-5.748 15.067 0 20.815l21.275 21.276a23.188 23.188 0 0 1 6.793 16.399v10.705c0 6.897-5.591 12.488-12.488 12.488a12.492 12.492 0 0 1-8.831-3.658l-54.371-54.372c-7.316-7.315-7.316-19.176 0-26.491 7.315-7.316 7.315-19.177 0-26.492l-76.143-76.143c-9.853-9.853-9.853-25.828 0-35.681a25.233 25.233 0 0 1 17.841-7.389h11.31a52.538 52.538 0 0 1 37.149 15.387l38.786 38.787a67.005 67.005 0 0 0 94.756 0l24.318-24.318a50.252 50.252 0 0 0 0-71.067l-81.386-81.385a61.67 61.67 0 0 0-43.609-18.063 61.674 61.674 0 0 1-43.609-18.064l-23.725-23.725a53.298 53.298 0 0 0-75.374 0l-36.427 36.427c-19.682 19.682-19.682 51.594 0 71.276 19.682 19.682 19.682 51.593 0 71.275l-2.72 2.72a54.245 54.245 0 0 0-15.887 38.357v11.661c0 15.706 6.24 30.77 17.346 41.876a59.221 59.221 0 0 1 17.345 41.877v17.065a29.015 29.015 0 0 0 8.499 20.517l1.909 1.909c10.276 10.276 10.276 26.938 0 37.214-10.277 10.277-10.277 26.939 0 37.215l6.938 6.939c14.109 14.108 14.109 36.982 0 51.091l-53.93 53.93c-12.889 12.889-12.889 33.787 0 46.676 12.89 12.889 12.89 33.787 0 46.676l-5.924 5.925a22.84 22.84 0 0 0-6.69 16.151 22.844 22.844 0 0 1-6.69 16.152l-3.087 3.086A33.382 33.382 0 0 0 0 958.071v43.019c0 27.41 10.89 53.7 30.276 73.09l22.57 22.57a26.337 26.337 0 0 0 18.606 7.71c14.534 0 26.315 11.78 26.315 26.31v14.72c0 10.88 4.323 21.32 12.019 29.01l15.848 15.85c11.085 11.09 11.085 29.06 0 40.14l-2.304 2.31a20.51 20.51 0 0 0-6.009 14.51c0 11.33 9.185 20.51 20.516 20.51h28.052c10.451 0 18.923 8.47 18.923 18.93v2.2c0 9.23 7.483 16.72 16.715 16.72 9.231 0 16.715 7.48 16.715 16.71v.63c0 9.58 7.766 17.35 17.346 17.35h13.429c8.162 0 15.99 3.24 21.761 9.01l9.599 9.6a18.288 18.288 0 0 1 5.356 12.93v1.89c0 9.06-7.342 16.4-16.4 16.4-9.057 0-16.399 7.34-16.399 16.4v21.13c0 9.58-7.766 17.35-17.346 17.35s-17.346 7.76-17.346 17.34v13.97c0 9.53-7.726 17.25-17.256 17.25-4.318 0-8.478 1.62-11.661 4.54l-17.759 16.28-12.615 12.61c-10.103 10.11-10.103 26.49 0 36.59l1.789 1.79c9.114 9.11 23.891 9.11 33.005 0a23.33 23.33 0 0 1 16.503-6.84h30.07a95.942 95.942 0 0 1 67.837 28.1l13.74 13.74a100.5 100.5 0 0 0 71.067 29.44h17.558c10.567 0 20.7 4.2 28.172 11.67a39.846 39.846 0 0 0 28.171 11.67h17.838a23.7 23.7 0 0 1 16.764 6.95 23.664 23.664 0 0 0 16.702 6.92c6.26 0 12.264 2.49 16.69 6.92l13.587 13.58c5.747 5.75 15.067 5.75 20.815 0 5.747-5.75 5.747-15.06 0-20.81l-19.869-19.87c-7.316-7.32-7.316-19.18 0-26.49 7.315-7.32 7.315-19.18 0-26.5l-4.1-4.1c-9.58-9.58-9.58-25.11 0-34.69l35.172-35.17a40.356 40.356 0 0 0 0-57.07l-6.421-6.42a28.186 28.186 0 0 0-19.921-8.25h-1.479a24.579 24.579 0 0 1-17.395-7.21l-5.094-5.09c-6.793-6.79-6.793-17.81 0-24.6l2.207-2.21c5.574-5.57 5.574-14.61 0-20.18-5.573-5.58-5.573-14.61 0-20.19l11.354-11.35c6.619-6.62 17.35-6.62 23.969 0l5.676 5.68a8.928 8.928 0 0 0 12.616 0 8.927 8.927 0 0 0 0-12.62l-1.893-1.89c-4.528-4.53-4.528-11.87 0-16.4l39.32-39.32a16.52 16.52 0 0 1 11.669-4.83h10.51a5.99 5.99 0 0 1 5.992 5.99 5.99 5.99 0 0 0 5.993 5.99h32.484a47.18 47.18 0 0 1 33.38 13.83l6.522 6.52a40.346 40.346 0 0 0 28.535 11.82h1.104c9.996 0 19.581-3.97 26.649-11.04a37.68 37.68 0 0 1 26.649-11.04h12.333a45.232 45.232 0 0 1 31.978 13.25 45.236 45.236 0 0 0 31.979 13.25h8.878c7.361 0 14.42-2.93 19.625-8.13l1.963-1.97c9.754-9.75 9.754-25.57 0-35.32l-8.83-8.83c-4.877-4.88-4.877-12.78 0-17.66l2.207-2.21c3.658-3.66 3.658-9.59.001-13.24a9.37 9.37 0 0 1 0-13.25l3.618-3.62a10.27 10.27 0 0 1 7.254-3c9.139 0 13.716-11.05 7.253-17.52l-3.004-3c-4.694-4.69-4.694-12.3 0-17l1.314-1.31a13.882 13.882 0 0 1 9.812-4.06h38.658c15.99 0 31.33-6.36 42.64-17.67a60.327 60.327 0 0 1 42.64-17.66h17.5c14 0 27.42-5.56 37.31-15.45l6.05-6.05c6.02-6.02 14.19-9.4 22.71-9.4h4.67c15.15 0 27.44 12.28 27.44 27.43 0 15.16 12.28 27.44 27.44 27.44h4.67c8.52 0 16.69 3.38 22.71 9.41l6.9 6.9a43.42 43.42 0 0 0 30.68 12.71c11.51 0 22.55-4.58 30.69-12.71l23.56-23.56c5.4-5.4 14.15-5.4 19.55 0l1.9 1.89c4.35 4.35 4.35 11.41 0 15.77-4.36 4.35-4.36 11.41 0 15.77l95.87 95.87a9.367 9.367 0 0 0 13.25 0c3.65-3.65 9.58-3.65 13.24 0l19.24 19.24c5.92 5.92 15.52 5.92 21.45 0 5.92-5.92 15.52-5.92 21.44 0l58.8 58.8a92.12 92.12 0 0 0 65.15 26.98c24.43 0 47.86-9.7 65.14-26.98l29.79-29.79a62.437 62.437 0 0 1 44.15-18.29c16.56 0 32.44 6.58 44.15 18.29l10.82 10.83a40.593 40.593 0 0 0 28.7 11.88c22.42 0 40.59-18.17 40.59-40.58V110c0-60.751-49.25-110-110-110h-313.04c-18.22 0-33 14.777-33 33.005 0 8.753 3.48 17.148 9.67 23.338l25.75 25.756a94.402 94.402 0 0 1 27.66 66.76v62.299c0 9.786 3.88 19.172 10.8 26.092l31.4 31.393c11.66 11.66 3.4 31.598-13.09 31.598-4.91 0-9.62-1.95-13.09-5.422l-36.16-36.159a109.997 109.997 0 0 1-32.22-77.781V167.93c0-29.173-11.59-57.152-32.22-77.781l-37.7-37.7c-8.13-8.139-19.28-12.711-30.79-12.711-11.37 0-22.39 4.519-30.43 12.562l-7.24 7.236c-12.75 12.754-12.75 33.432 0 46.186l34.05 34.052c8.01 8.008 2.34 21.7-8.98 21.7-3.38 0-6.61-1.339-8.99-3.723l-25.27-25.269a77.58 77.58 0 0 1-22.73-54.876V11.984c0-6.618-5.37-11.984-11.99-11.984s-11.98 5.366-11.98 11.984v54.185a39.748 39.748 0 0 1-11.64 28.099l-3.18 3.184c-13.76 13.76-13.76 36.07 0 49.83 13.76 13.76 13.76 36.07 0 49.83l-5.42 5.414a42.903 42.903 0 0 0-12.56 30.329v7.174c0 33.254 26.96 60.212 60.21 60.212h19.9a44.145 44.145 0 0 1 44.15 44.147v38.321c0 5.353 2.13 10.487 5.91 14.273l7.33 7.334a9.797 9.797 0 0 1 0 13.876 9.804 9.804 0 0 1-13.87 0l-19.38-19.376a37.211 37.211 0 0 1-10.9-26.315v-13.128c0-9.995-3.97-19.581-11.04-26.648l-2.56-2.564a28.95 28.95 0 0 0-20.46-8.475 28.95 28.95 0 0 0-20.46 8.475l-9.24 9.243a34.25 34.25 0 0 0 0 48.455l2.15 2.153a38.067 38.067 0 0 1 0 53.838l-46.84 46.842a53.968 53.968 0 0 1-38.16 15.806h-39.15c-8.18 0-14.82-6.636-14.82-14.822 0-8.187 6.64-14.823 14.82-14.823h15.51c8.04 0 15.76-3.196 21.45-8.883l46.62-46.624c8.01-8.012 8.01-21.003 0-29.015s-8.01-21.002 0-29.015c8.01-8.012 8.01-21.002 0-29.014l-13.15-13.146a39.12 39.12 0 0 1-11.45-27.653v-70.595c0-7.026 2.79-13.765 7.76-18.733 10.34-10.345 10.34-27.119 0-37.465l-15.98-15.977a36.56 36.56 0 0 1 0-51.685l17.58-17.579a47.725 47.725 0 0 0 13.98-33.746c0-26.356-21.37-47.723-47.73-47.723ZM260.371 1486.2a25.395 25.395 0 0 1-17.956 7.43 25.396 25.396 0 0 0-17.685 7.18l-10.662 10.34a11.642 11.642 0 0 1-8.127 3.3h-1.41c-5.665 0-10.258 4.59-10.258 10.26 0 2.72 1.081 5.33 3.005 7.25l13.382 13.38a25.87 25.87 0 0 0 18.305 7.59h3.14c4.855 0 9.511-1.93 12.944-5.37a18.316 18.316 0 0 1 12.944-5.36h6.944c6.853 0 13.427-2.72 18.273-7.57l4.434-4.43c5.912-5.91 5.912-15.5 0-21.41l-2.866-2.87a5.348 5.348 0 0 1 3.784-9.13h13.38c4.969 0 9.733-1.98 13.246-5.49l4.669-4.67a6.24 6.24 0 0 0 1.829-4.41c0-3.45-2.795-6.25-6.244-6.25h-32.359a30.167 30.167 0 0 0-21.319 8.83z" clip-rule="evenodd" style="fill:url(#b)"/></g><defs><radialGradient id="b" cx="0" cy="0" r="1" gradientTransform="scale(1272.09) rotate(-45 1.529 .247)" gradientUnits="userSpaceOnUse"><stop stop-color="#FFA848"/><stop offset=".336" stop-color="#FF5030"/><stop offset=".706" stop-color="#7F20D0"/><stop offset="1" stop-color="#0E0F50"/></radialGradient><filter id="a" width="1998.76" height="1771.91" x=".843" y="0" color-interpolation-filters="sRGB" filterUnits="userSpaceOnUse"><feFlood flood-opacity="0" result="BackgroundImageFix"/><feColorMatrix in="SourceAlpha" result="hardAlpha" values="0 0 0 0 0 0 0 0 0 0 0 0 0 0 0 0 0 0 127 0"/><feOffset dy="5"/><feGaussianBlur stdDeviation="20"/><feComposite in2="hardAlpha" operator="out"/><feColorMatrix values="0 0 0 0 0 0 0 0 0 0 0 0 0 0 0 0 0 0 0.1 0"/><feBlend in2="BackgroundImageFix" result="effect1_dropShadow_1129_3133"/><feBlend in="SourceGraphic" in2="effect1_dropShadow_1129_3133" result="shape"/></filter></defs></svg>